NewsreaderText-MediumItalic.ufo
<glyph name="exclam" format="2">
	<unicode hex="0021"/>
	<advance width="525.8"/>
	<outline>
		<contour>
			<point x="633.8" y="1298.6" type="line" smooth="yes"/>
			<point x="648" y="1342.6"/>
			<point x="608" y="1356.4"/>
			<point x="541.6" y="1356.4" type="curve" smooth="yes"/>
			<point x="476.6" y="1356.4"/>
			<point x="437.2" y="1343.4"/>
			<point x="424.6" y="1301" type="curve" smooth="yes"/>
			<point x="386.2" y="1164.4" type="line" smooth="yes"/>
			<point x="350.2" y="1041"/>
			<point x="311.8" y="798.4"/>
			<point x="230" y="417.2" type="curve"/>
			<point x="289.4" y="417.2" type="line"/>
			<point x="440.6" y="798.4"/>
			<point x="549.8" y="1041"/>
			<point x="589.8" y="1164.4" type="curve" smooth="yes"/>
		</contour>
		<contour>
			<point x="184.8" y="249" type="curve" smooth="yes"/>
			<point x="96.2" y="249"/>
			<point x="31" y="179.6"/>
			<point x="31" y="95.4" type="curve" smooth="yes"/>
			<point x="31" y="32.8"/>
			<point x="76.2" y="-16"/>
			<point x="147.8" y="-16" type="curve" smooth="yes"/>
			<point x="236.4" y="-16"/>
			<point x="301.6" y="53.4"/>
			<point x="301.6" y="137.6" type="curve" smooth="yes"/>
			<point x="301.6" y="200.2"/>
			<point x="256.4" y="249"/>
		</contour>
	</outline>
</glyph>
<glyph name="ampersand" format="2">
	<unicode hex="0026"/>
	<advance width="1349.6"/>
	<outline>
		<contour>
			<point x="955.2" y="223.2" type="line"/>
			<point x="1060.8" y="339"/>
			<point x="1161.2" y="502.8"/>
			<point x="1250" y="726.2" type="curve"/>
			<point x="1406.4" y="773.8" type="line"/>
			<point x="1418.2" y="813" type="line"/>
			<point x="997.6" y="813" type="line"/>
			<point x="985" y="773.8" type="line"/>
			<point x="1119.2" y="726.2" type="line"/>
			<point x="1064.2" y="518.4"/>
			<point x="991.8" y="376"/>
			<point x="912.8" y="284.4" type="curve"/>
			<point x="853.4" y="233.2" type="line"/>
			<point x="748" y="134.4"/>
			<point x="630.8" y="106"/>
			<point x="523.6" y="106" type="curve" smooth="yes"/>
			<point x="351" y="106"/>
			<point x="258.8" y="199.2"/>
			<point x="258.8" y="336.4" type="curve" smooth="yes"/>
			<point x="258.8" y="475"/>
			<point x="322" y="615.8"/>
			<point x="572.2" y="711" type="curve"/>
			<point x="666.6" y="745.8" type="line"/>
			<point x="966.4" y="867.4"/>
			<point x="1077.2" y="979.2"/>
			<point x="1077.2" y="1140.2" type="curve" smooth="yes"/>
			<point x="1077.2" y="1268.8"/>
			<point x="984.4" y="1362"/>
			<point x="803" y="1362" type="curve" smooth="yes"/>
			<point x="569.8" y="1362"/>
			<point x="412.6" y="1221.6"/>
			<point x="412.6" y="1024" type="curve" smooth="yes"/>
			<point x="412.6" y="935.8"/>
			<point x="440.4" y="839.2"/>
			<point x="501.6" y="734.4" type="curve" smooth="yes"/>
			<point x="930.8" y="0" type="line"/>
			<point x="1235.8" y="0" type="line"/>
			<point x="1245.4" y="39.8" type="line"/>
			<point x="1077.4" y="97.6" type="line"/>
			<point x="639.4" y="837.8" type="line" smooth="yes"/>
			<point x="593.8" y="916.2"/>
			<point x="572" y="991.2"/>
			<point x="572" y="1062.6" type="curve" smooth="yes"/>
			<point x="572" y="1175.8"/>
			<point x="640.6" y="1280"/>
			<point x="792.8" y="1280" type="curve" smooth="yes"/>
			<point x="880.4" y="1280"/>
			<point x="927" y="1227.8"/>
			<point x="927" y="1150.8" type="curve" smooth="yes"/>
			<point x="927" y="1020"/>
			<point x="842.4" y="901.2"/>
			<point x="640.4" y="807.2" type="curve"/>
			<point x="546.4" y="767.2" type="line"/>
			<point x="189.2" y="650.2"/>
			<point x="84.6" y="496.2"/>
			<point x="84.6" y="306.2" type="curve" smooth="yes"/>
			<point x="84.6" y="114.6"/>
			<point x="205.4" y="-21.2"/>
			<point x="452.6" y="-21.2" type="curve" smooth="yes"/>
			<point x="593" y="-21.2"/>
			<point x="742.4" y="30.4"/>
			<point x="893.2" y="170.2" type="curve"/>
		</contour>
	</outline>
</glyph>
<glyph name="quotesingle" format="2">
	<unicode hex="0027"/>
	<advance width="379.6"/>
	<outline>
		<contour>
			<point x="269" y="846.2" type="line"/>
			<point x="349.6" y="846.2" type="line"/>
			<point x="547.4" y="1290" type="line"/>
			<point x="563" y="1340" type="line"/>
			<point x="360.6" y="1340" type="line"/>
			<point x="345" y="1290" type="line"/>
		</contour>
	</outline>
</glyph>
<glyph name="parenleft" format="2">
  <advance width="536"/>
  <unicode hex="0028"/>
  <outline>
    <contour>
      <point x="772.4" y="1380.8" type="curve"/>
      <point x="733.2" y="1421.0" type="line"/>
      <point x="184.4" y="913.0"/>
      <point x="84.8" y="618.0"/>
      <point x="84.8" y="281.0" type="curve" smooth="yes"/>
      <point x="84.8" y="114.4"/>
      <point x="127.4" y="-64.6"/>
      <point x="216.2" y="-275.0" type="curve"/>
      <point x="270.8" y="-255.4" type="line"/>
      <point x="232.4" y="-115.2"/>
      <point x="216.4" y="9.4"/>
      <point x="216.4" y="125.0" type="curve" smooth="yes"/>
      <point x="216.4" y="542.6"/>
      <point x="324.6" y="904.2"/>
    </contour>
  </outline>
</glyph>
<glyph name="parenright" format="2">
	<unicode hex="0029"/>
	<advance width="535.6"/>
	<outline>
		<contour>
			<point x="-149" y="-234.8" type="curve"/>
			<point x="-109.8" y="-275" type="line"/>
			<point x="439" y="233"/>
			<point x="538.6" y="528"/>
			<point x="538.6" y="865" type="curve" smooth="yes"/>
			<point x="538.6" y="1031.6"/>
			<point x="496" y="1210.6"/>
			<point x="407.2" y="1421" type="curve"/>
			<point x="352.6" y="1401.4" type="line"/>
			<point x="391" y="1261.2"/>
			<point x="407" y="1136.6"/>
			<point x="407" y="1021" type="curve" smooth="yes"/>
			<point x="407" y="603.4"/>
			<point x="298.8" y="241.8"/>
		</contour>
	</outline>
</glyph>
<glyph name="asterisk" format="2">
  <advance width="851"/>
  <unicode hex="002A"/>
  <outline>
    <contour>
      <point x="759.4" y="717.8" type="line"/>
      <point x="687.2" y="967.2" type="line"/>
      <point x="943.4" y="1015.6" type="line"/>
      <point x="938.6" y="1077.4" type="line"/>
      <point x="677.8" y="1085.2" type="line"/>
      <point x="712.2" y="1344.4" type="line"/>
      <point x="652.6" y="1358.4" type="line"/>
      <point x="564.2" y="1113.4" type="line"/>
      <point x="328.6" y="1225.8" type="line"/>
      <point x="295.6" y="1173.6" type="line"/>
      <point x="501.6" y="1013.2" type="line"/>
      <point x="322.4" y="824.2" type="line"/>
      <point x="361.8" y="776.8" type="line"/>
      <point x="577.8" y="922.4" type="line"/>
      <point x="702.0" y="693.0" type="line"/>
    </contour>
  </outline>
</glyph>
<glyph name="plus" format="2">
	<unicode hex="002B"/>
	<advance width="1000"/>
	<outline>
		<contour>
			<point x="340.2" y="73" type="line"/>
			<point x="441.4" y="73" type="line"/>
			<point x="663" y="799" type="line"/>
			<point x="561.8" y="799" type="line"/>
		</contour>
		<contour>
			<point x="153.4" y="484" type="line"/>
			<point x="123.8" y="388" type="line"/>
			<point x="849.8" y="388" type="line"/>
			<point x="879.4" y="484" type="line"/>
		</contour>
	</outline>
</glyph>
<glyph name="hyphen" format="2">
  <advance width="671.0"/>
  <unicode hex="002D"/>
  <outline>
    <contour>
      <point x="142.8" y="507.4" type="line"/>
      <point x="101.2" y="368.8" type="line"/>
      <point x="533.4" y="368.8" type="line"/>
      <point x="575.0" y="507.4" type="line"/>
    </contour>
  </outline>
</glyph>
<glyph name="period" format="2">
	<unicode hex="002E"/>
	<advance width="447.8"/>
	<outline>
		<contour>
			<point x="168.2" y="249" type="curve" smooth="yes"/>
			<point x="79.6" y="249"/>
			<point x="14.4" y="179.6"/>
			<point x="14.4" y="95.4" type="curve" smooth="yes"/>
			<point x="14.4" y="32.8"/>
			<point x="59.6" y="-16"/>
			<point x="131.2" y="-16" type="curve" smooth="yes"/>
			<point x="219.8" y="-16"/>
			<point x="285" y="53.4"/>
			<point x="285" y="137.6" type="curve" smooth="yes"/>
			<point x="285" y="200.2"/>
			<point x="239.8" y="249"/>
		</contour>
	</outline>
</glyph>
<glyph name="slash" format="2">
	<unicode hex="002F"/>
	<advance width="802.8"/>
	<outline>
		<contour>
			<point x="-52.4" y="0" type="line"/>
			<point x="68.6" y="0" type="line"/>
			<point x="1001.6" y="1340" type="line"/>
			<point x="879.8" y="1340" type="line"/>
		</contour>
	</outline>
</glyph>
<glyph name="zero" format="2">
	<unicode hex="0030"/>
	<advance width="1140"/>
	<outline>
		<contour>
			<point x="302.8" y="341.2" type="curve" smooth="yes"/>
			<point x="302.8" y="674.6"/>
			<point x="510.4" y="1277.8"/>
			<point x="803.2" y="1277.8" type="curve" smooth="yes"/>
			<point x="925" y="1277.8"/>
			<point x="984.2" y="1186.2"/>
			<point x="984.2" y="999.6" type="curve" smooth="yes"/>
			<point x="984.2" y="666.2"/>
			<point x="776.6" y="63"/>
			<point x="483.8" y="63" type="curve" smooth="yes"/>
			<point x="362" y="63"/>
			<point x="302.8" y="154.6"/>
		</contour>
		<contour>
			<point x="808.2" y="1362" type="curve" smooth="yes"/>
			<point x="409.8" y="1361.2"/>
			<point x="124" y="850.4"/>
			<point x="124" y="425.2" type="curve" smooth="yes"/>
			<point x="124" y="132.4"/>
			<point x="261.6" y="-22"/>
			<point x="478.8" y="-22" type="curve" smooth="yes"/>
			<point x="877.2" y="-22"/>
			<point x="1163" y="490.4"/>
			<point x="1163" y="915.6" type="curve" smooth="yes"/>
			<point x="1163" y="1208.4"/>
			<point x="1025.4" y="1362"/>
		</contour>
	</outline>
</glyph>
<glyph name="one" format="2">
	<unicode hex="0031"/>
	<advance width="1140"/>
	<outline>
		<contour>
			<point x="465.2" y="95" type="line"/>
			<point x="169.4" y="39" type="line"/>
			<point x="157.6" y="0.4" type="line"/>
			<point x="888.2" y="0.4" type="line"/>
			<point x="901.2" y="39" type="line"/>
			<point x="651.6" y="92.2" type="line"/>
			<point x="1038.8" y="1356" type="line"/>
			<point x="977.8" y="1356" type="line"/>
			<point x="355.8" y="1081.2" type="line"/>
			<point x="371.6" y="1034.2" type="line"/>
			<point x="849.4" y="1163.4" type="line"/>
			<point x="817.4" y="1245" type="line"/>
		</contour>
	</outline>
</glyph>
<glyph name="colon" format="2">
	<unicode hex="003A"/>
	<advance width="504.2"/>
	<outline>
		<contour>
			<point x="175.2" y="249" type="curve" smooth="yes"/>
			<point x="86.6" y="249"/>
			<point x="21.4" y="179.6"/>
			<point x="21.4" y="95.4" type="curve" smooth="yes"/>
			<point x="21.4" y="32.8"/>
			<point x="66.6" y="-16"/>
			<point x="138.2" y="-16" type="curve" smooth="yes"/>
			<point x="226.8" y="-16"/>
			<point x="292" y="53.4"/>
			<point x="292" y="137.6" type="curve" smooth="yes"/>
			<point x="292" y="200.2"/>
			<point x="246.8" y="249"/>
		</contour>
		<contour>
			<point x="363.8" y="869.6" type="curve" smooth="yes"/>
			<point x="275.2" y="869.6"/>
			<point x="210" y="800.2"/>
			<point x="210" y="716" type="curve" smooth="yes"/>
			<point x="210" y="653.4"/>
			<point x="255.2" y="604.6"/>
			<point x="326.8" y="604.6" type="curve" smooth="yes"/>
			<point x="415.4" y="604.6"/>
			<point x="480.6" y="674"/>
			<point x="480.6" y="758.2" type="curve" smooth="yes"/>
			<point x="480.6" y="820.8"/>
			<point x="435.4" y="869.6"/>
		</contour>
	</outline>
</glyph>
<glyph name="less" format="2">
  <advance width="1000.0"/>
  <unicode hex="003C"/>
  <guideline x="1084.8" y="893.4" angle="172.9284383282427" identifier="rrevOd4Prw"/>
  <outline>
    <contour>
      <point x="129.0" y="407.8" type="line"/>
      <point x="1048.2" y="774.4" type="line"/>
      <point x="1084.8" y="893.4" type="line"/>
      <point x="57.4" y="476.8" type="line"/>
      <point x="33.0" y="395.2" type="line"/>
      <point x="805.6" y="-21.4" type="line"/>
      <point x="835.4" y="78.0" type="line"/>
      <point x="140.6" y="444.6" type="line"/>
    </contour>
  </outline>
</glyph>
<glyph name="greater" format="2">
	<unicode hex="003E"/>
	<advance width="1000"/>
	<outline>
		<contour>
			<point x="874.2" y="465" type="line"/>
			<point x="-45" y="98.4" type="line"/>
			<point x="-81.6" y="-21.4" type="line"/>
			<point x="945.8" y="395.2" type="line"/>
			<point x="970.2" y="476.8" type="line"/>
			<point x="197.6" y="893.4" type="line"/>
			<point x="167.8" y="794.8" type="line"/>
			<point x="862.6" y="428.2" type="line"/>
		</contour>
	</outline>
</glyph>
<glyph name="question" format="2">
	<unicode hex="003F"/>
	<advance width="875.6"/>
	<outline>
		<contour>
			<point x="314.2" y="249" type="curve" smooth="yes"/>
			<point x="225.6" y="249"/>
			<point x="160.4" y="179.6"/>
			<point x="160.4" y="95.4" type="curve" smooth="yes"/>
			<point x="160.4" y="32.8"/>
			<point x="205.6" y="-16"/>
			<point x="277.2" y="-16" type="curve" smooth="yes"/>
			<point x="365.8" y="-16"/>
			<point x="431" y="53.4"/>
			<point x="431" y="137.6" type="curve" smooth="yes"/>
			<point x="431" y="200.2"/>
			<point x="385.8" y="249"/>
		</contour>
		<contour>
			<point x="534.6" y="1362" type="curve" smooth="yes"/>
			<point x="361" y="1362"/>
			<point x="306.4" y="1308.8"/>
			<point x="306.4" y="1242.2" type="curve" smooth="yes"/>
			<point x="306.4" y="1196.8"/>
			<point x="339" y="1164.6"/>
			<point x="386.6" y="1164.6" type="curve" smooth="yes"/>
			<point x="472" y="1164.6"/>
			<point x="504.8" y="1250.4"/>
			<point x="645.2" y="1250.4" type="curve" smooth="yes"/>
			<point x="752.6" y="1250.4"/>
			<point x="828" y="1149.6"/>
			<point x="828" y="1029.8" type="curve" smooth="yes"/>
			<point x="828" y="847.6"/>
			<point x="711.4" y="765.8"/>
			<point x="403.4" y="781.6" type="curve"/>
			<point x="354.2" y="417.2" type="line"/>
			<point x="398.8" y="417.2" type="line"/>
			<point x="517.4" y="749.8" type="line"/>
			<point x="411" y="623.2" type="line"/>
			<point x="796.2" y="605.2"/>
			<point x="924" y="747.4"/>
			<point x="924" y="979.2" type="curve" smooth="yes"/>
			<point x="924" y="1192.2"/>
			<point x="761.6" y="1362"/>
		</contour>
	</outline>
</glyph>
<glyph name="at" format="2">
	<unicode hex="0040"/>
	<advance width="1795.6"/>
	<outline>
		<contour>
			<point x="1288.2" y="268" type="curve" smooth="yes"/>
			<point x="1241.6" y="268"/>
			<point x="1213.6" y="286.6"/>
			<point x="1213.6" y="347.4" type="curve" smooth="yes"/>
			<point x="1213.6" y="387.8"/>
			<point x="1225.8" y="446.6"/>
			<point x="1252.8" y="530.8" type="curve" smooth="yes"/>
			<point x="1397.6" y="995.6" type="line"/>
			<point x="1229.4" y="995.6" type="line"/>
			<point x="1192.2" y="913.4" type="line"/>
			<point x="1103.8" y="650.4" type="line" smooth="yes"/>
			<point x="1040.6" y="460.2"/>
			<point x="891.2" y="323.2"/>
			<point x="813.2" y="323.2" type="curve" smooth="yes"/>
			<point x="770" y="323.2"/>
			<point x="742.8" y="348.8"/>
			<point x="742.8" y="400.2" type="curve" smooth="yes"/>
			<point x="742.8" y="583.4"/>
			<point x="921" y="922"/>
			<point x="1098.4" y="922" type="curve" smooth="yes"/>
			<point x="1147" y="922"/>
			<point x="1171.2" y="892.2"/>
			<point x="1183" y="860.6" type="curve"/>
			<point x="1225.2" y="918.2" type="line"/>
			<point x="1178.8" y="972.4"/>
			<point x="1133.2" y="1002.6"/>
			<point x="1058.2" y="1002.6" type="curve" smooth="yes"/>
			<point x="766" y="1002.6"/>
			<point x="542" y="614"/>
			<point x="542" y="380.8" type="curve" smooth="yes"/>
			<point x="542" y="254.6"/>
			<point x="609.8" y="194.6"/>
			<point x="723" y="194.6" type="curve" smooth="yes"/>
			<point x="825.6" y="194.6"/>
			<point x="930.4" y="275.6"/>
			<point x="1113.6" y="557" type="curve"/>
			<point x="1087.2" y="557" type="line"/>
			<point x="1065.6" y="479.8" type="line" smooth="yes"/>
			<point x="1051.2" y="427.8"/>
			<point x="1042.4" y="383.4"/>
			<point x="1042.4" y="346.4" type="curve" smooth="yes"/>
			<point x="1042.4" y="246.4"/>
			<point x="1102.4" y="192.8"/>
			<point x="1257.2" y="192.8" type="curve" smooth="yes"/>
			<point x="1544.6" y="192.8"/>
			<point x="1816.6" y="480.8"/>
			<point x="1816.6" y="851.6" type="curve" smooth="yes"/>
			<point x="1816.6" y="1163"/>
			<point x="1589" y="1408.4"/>
			<point x="1149.8" y="1408.4" type="curve" smooth="yes"/>
			<point x="517.6" y="1408.4"/>
			<point x="104" y="890.2"/>
			<point x="104" y="381.8" type="curve" smooth="yes"/>
			<point x="104" y="-18.2"/>
			<point x="388.2" y="-258"/>
			<point x="816.6" y="-258" type="curve" smooth="yes"/>
			<point x="1094" y="-258"/>
			<point x="1293.6" y="-180.8"/>
			<point x="1482.4" y="-67.6" type="curve"/>
			<point x="1448.6" y="-6" type="line"/>
			<point x="1254.6" y="-124"/>
			<point x="1051" y="-170.8"/>
			<point x="859.6" y="-170.8" type="curve" smooth="yes"/>
			<point x="469.4" y="-170.8"/>
			<point x="257.6" y="56.8"/>
			<point x="257.6" y="394.6" type="curve" smooth="yes"/>
			<point x="257.6" y="863.6"/>
			<point x="586.6" y="1328.4"/>
			<point x="1134" y="1328.4" type="curve" smooth="yes"/>
			<point x="1542.2" y="1328.4"/>
			<point x="1678.8" y="1082.8"/>
			<point x="1678.8" y="826.4" type="curve" smooth="yes"/>
			<point x="1678.8" y="499.8"/>
			<point x="1484.8" y="268"/>
		</contour>
	</outline>
</glyph>
<glyph name="A" format="2">
  <advance width="1348.6"/>
  <unicode hex="0041"/>
  <guideline x="100.80000000000001" y="298.40000000000003" angle="181.24709355262402" identifier="2yAh3gSr58"/>
  <anchor x="934.0" y="1340.0" name="UCtop"/>
  <anchor x="562.6" y="0.0" name="bottom"/>
  <anchor x="1008.2" y="0.0" name="right"/>
  <outline>
    <contour>
      <point x="357.8" y="486.8" type="line"/>
      <point x="991.0" y="486.8" type="line"/>
      <point x="1021.6" y="577.2" type="line"/>
      <point x="388.4" y="577.2" type="line"/>
    </contour>
    <contour>
      <point x="1129.0" y="90.2" type="line"/>
      <point x="995.2" y="1356.0" type="line"/>
      <point x="906.6" y="1356.0" type="line"/>
      <point x="38.2" y="86.8" type="line"/>
      <point x="-123.8" y="39.2" type="line"/>
      <point x="-135.4" y="0.0" type="line"/>
      <point x="278.4" y="0.0" type="line"/>
      <point x="290.0" y="39.2" type="line"/>
      <point x="153.6" y="86.8" type="line"/>
      <point x="892.2" y="1186.4" type="line"/>
      <point x="829.8" y="1184.8" type="line"/>
      <point x="935.8" y="87.8" type="line"/>
      <point x="757.2" y="39.2" type="line"/>
      <point x="745.4" y="0.0" type="line"/>
      <point x="1241.6" y="0.0" type="line"/>
      <point x="1253.2" y="39.2" type="line"/>
    </contour>
  </outline>
</glyph>
<glyph name="B" format="2">
  <advance width="1247.0"/>
  <unicode hex="0042"/>
  <anchor x="853.6" y="1340.0" name="UCtop"/>
  <anchor x="514.2" y="0.0" name="bottom"/>
  <outline>
    <contour>
      <point x="588.2" y="1244.0" type="line"/>
      <point x="857.4" y="1244.0" type="line" smooth="yes"/>
      <point x="1000.2" y="1244.0"/>
      <point x="1073.2" y="1181.4"/>
      <point x="1073.2" y="1069.6" type="curve" smooth="yes"/>
      <point x="1073.2" y="890.6"/>
      <point x="942.0" y="759.0"/>
      <point x="749.8" y="759.0" type="curve" smooth="yes"/>
      <point x="444.4" y="759.0" type="line"/>
      <point x="411.2" y="663.0" type="line"/>
      <point x="710.8" y="663.0" type="line" smooth="yes"/>
      <point x="880.0" y="663.0"/>
      <point x="951.2" y="585.4"/>
      <point x="951.2" y="466.4" type="curve" smooth="yes"/>
      <point x="951.2" y="243.2"/>
      <point x="796.4" y="96.0"/>
      <point x="538.6" y="96.0" type="curve" smooth="yes"/>
      <point x="243.0" y="96.0" type="line"/>
      <point x="216.0" y="0.0" type="line"/>
      <point x="581.0" y="0.0" type="line" smooth="yes"/>
      <point x="967.6" y="0.0"/>
      <point x="1158.0" y="221.0"/>
      <point x="1158.0" y="457.2" type="curve" smooth="yes"/>
      <point x="1158.0" y="603.7424605175846"/>
      <point x="1052.8025416074588" y="713.7346168516874"/>
      <point x="858.4" y="726.0" type="curve"/>
      <point x="868.0" y="711.0" type="line"/>
      <point x="1121.4685152301722" y="733.0944069681276"/>
      <point x="1262.8" y="886.4307692307692"/>
      <point x="1262.8" y="1077.2" type="curve" smooth="yes"/>
      <point x="1262.8" y="1221.2"/>
      <point x="1164.2" y="1340.0"/>
      <point x="918.4" y="1340.0" type="curve" smooth="yes"/>
      <point x="624.8" y="1340.0" type="line"/>
    </contour>
    <contour>
      <point x="483.2" y="1247.8" type="line"/>
      <point x="130.2" y="93.4" type="line"/>
      <point x="-32.2" y="40.0" type="line"/>
      <point x="-44.4" y="0.0" type="line"/>
      <point x="297.2" y="0.0" type="line"/>
      <point x="707.0" y="1340.0" type="line"/>
      <point x="364.8" y="1340.0" type="line"/>
      <point x="352.6" y="1300.0" type="line"/>
    </contour>
  </outline>
</glyph>
<glyph name="C" format="2">
	<unicode hex="0043"/>
	<advance width="1344.8"/>
	<outline>
		<contour>
			<point x="1044" y="121.2" type="line"/>
			<point x="949.2" y="85"/>
			<point x="863.2" y="73.8"/>
			<point x="773.4" y="73.8" type="curve" smooth="yes"/>
			<point x="513.2" y="73.8"/>
			<point x="357.2" y="229.8"/>
			<point x="357.2" y="529.8" type="curve" smooth="yes"/>
			<point x="357.2" y="941.8"/>
			<point x="629.6" y="1266.4"/>
			<point x="1021.2" y="1266.4" type="curve" smooth="yes"/>
			<point x="1141.8" y="1266.4"/>
			<point x="1217.2" y="1241.2"/>
			<point x="1310.8" y="1175.2" type="curve"/>
			<point x="1250.8" y="1239.2" type="line"/>
			<point x="1328.2" y="926.8" type="line"/>
			<point x="1375.2" y="926.8" type="line"/>
			<point x="1446.8" y="1402" type="line"/>
			<point x="1424.2" y="1402" type="line"/>
			<point x="1277.8" y="1312.4" type="line"/>
			<point x="1362" y="1313.2" type="line"/>
			<point x="1258.8" y="1351.8"/>
			<point x="1156.4" y="1362"/>
			<point x="1047.4" y="1362" type="curve" smooth="yes"/>
			<point x="540.4" y="1362"/>
			<point x="150.6" y="1003.6"/>
			<point x="150.6" y="503.8" type="curve" smooth="yes"/>
			<point x="150.6" y="180.8"/>
			<point x="363.6" y="-22"/>
			<point x="749.2" y="-22" type="curve" smooth="yes"/>
			<point x="884.4" y="-22"/>
			<point x="1049.2812886373" y="8.5203221593"/>
			<point x="1156" y="49.6" type="curve"/>
			<point x="1265.2" y="364.2" type="line"/>
			<point x="1212.8" y="364.2" type="line"/>
			<point x="990" y="80.2" type="line"/>
		</contour>
	</outline>
	<anchor name="UCtop" x="973.4" y="1340"/>
	<anchor name="bottom" x="681.6" y="0"/>
	<anchor name="right" x="1296.2" y="0"/>
</glyph>
<glyph name="D" format="2">
	<unicode hex="0044"/>
	<advance width="1471.4"/>
	<outline>
		<contour>
			<point x="521.4" y="96" type="curve" smooth="yes"/>
			<point x="220.2" y="96" type="line"/>
			<point x="181" y="0" type="line"/>
			<point x="519" y="0" type="line" smooth="yes"/>
			<point x="1125.2" y="0"/>
			<point x="1466.2" y="367"/>
			<point x="1466.2" y="826.8" type="curve" smooth="yes"/>
			<point x="1466.2" y="1156.4"/>
			<point x="1278.2" y="1340"/>
			<point x="853.6" y="1340" type="curve" smooth="yes"/>
			<point x="591" y="1340" type="line"/>
			<point x="566.8" y="1244" type="line"/>
			<point x="791.8" y="1244" type="line" smooth="yes"/>
			<point x="1109.6" y="1244"/>
			<point x="1257.6" y="1100.6662337662"/>
			<point x="1257.6" y="838" type="curve" smooth="yes"/>
			<point x="1257.6" y="388.8571428571"/>
			<point x="976.6" y="96"/>
		</contour>
		<contour>
			<point x="484" y="1254.2" type="line"/>
			<point x="130.2" y="89.4" type="line"/>
			<point x="-29" y="39.2" type="line"/>
			<point x="-41.2" y="0" type="line"/>
			<point x="298.8" y="0" type="line"/>
			<point x="705.4" y="1340" type="line"/>
			<point x="361.6" y="1340" type="line"/>
			<point x="349.4" y="1300.8" type="line"/>
		</contour>
	</outline>
	<anchor name="UCtop" x="977.4" y="1340"/>
	<anchor name="bottom" x="622.4" y="0"/>
</glyph>
<glyph name="E" format="2">
  <advance width="1231.0"/>
  <unicode hex="0045"/>
  <anchor x="848.2" y="1340.0" name="UCtop"/>
  <anchor x="811.8" y="0.0" name="right"/>
  <anchor x="542.0" y="0.0" name="bottom"/>
  <outline>
    <contour>
      <point x="484.0" y="1254.2" type="line"/>
      <point x="130.2" y="89.4" type="line"/>
      <point x="-29.0" y="39.2" type="line"/>
      <point x="-41.2" y="0.0" type="line"/>
      <point x="298.8" y="0.0" type="line"/>
      <point x="705.4" y="1340.0" type="line"/>
      <point x="361.6" y="1340.0" type="line"/>
      <point x="349.4" y="1300.8" type="line"/>
    </contour>
    <contour>
      <point x="1158.4" y="1269.2" type="line"/>
      <point x="1221.6" y="952.6" type="line"/>
      <point x="1273.0" y="952.6" type="line"/>
      <point x="1340.0" y="1394.4" type="line"/>
      <point x="1320.8" y="1394.4" type="line"/>
      <point x="1193.2" y="1340.0" type="line"/>
      <point x="594.8" y="1340.0" type="line"/>
      <point x="563.2" y="1244.0" type="line"/>
      <point x="1200.0" y="1244.0" type="line"/>
    </contour>
    <contour>
      <point x="935.4" y="-63.4" type="line"/>
      <point x="955.6" y="-63.4" type="line"/>
      <point x="1165.2" y="374.0" type="line"/>
      <point x="1126.4" y="396.4" type="line"/>
      <point x="812.4" y="70.8" type="line"/>
      <point x="897.2" y="96.0" type="line"/>
      <point x="216.6" y="96.0" type="line"/>
      <point x="184.8" y="0.0" type="line"/>
      <point x="837.4" y="0.0" type="line"/>
    </contour>
    <contour>
      <point x="868.4" y="441.0" type="line"/>
      <point x="948.4" y="703.0" type="line"/>
      <point x="1028.4" y="965.0" type="line"/>
      <point x="950.6" y="965.0" type="line"/>
      <point x="863.8" y="750.2" type="line"/>
      <point x="414.0" y="750.2" type="line"/>
      <point x="385.6" y="655.8" type="line"/>
      <point x="835.4" y="655.8" type="line"/>
      <point x="790.6" y="441.0" type="line"/>
    </contour>
  </outline>
</glyph>
<glyph name="F" format="2">
	<unicode hex="0046"/>
	<advance width="1130.6"/>
	<outline>
		<contour>
			<point x="1026.4" y="933" type="line"/>
			<point x="948.6" y="933" type="line"/>
			<point x="861.8" y="718.2" type="line"/>
			<point x="412" y="718.2" type="line"/>
			<point x="383.6" y="623.8" type="line"/>
			<point x="833.4" y="623.8" type="line"/>
			<point x="788.6" y="409" type="line"/>
			<point x="866.4" y="409" type="line"/>
			<point x="946.4" y="671" type="line"/>
		</contour>
		<contour>
			<point x="1249.8" y="952.6" type="line"/>
			<point x="1316.8" y="1394.4" type="line"/>
			<point x="1297.6" y="1394.4" type="line"/>
			<point x="1170" y="1340" type="line"/>
			<point x="590.8" y="1340" type="line"/>
			<point x="559.2" y="1244" type="line"/>
			<point x="1176.8" y="1244" type="line"/>
			<point x="1135.2" y="1269.2" type="line"/>
			<point x="1198.4" y="952.6" type="line"/>
		</contour>
		<contour>
			<point x="324.6" y="85.8" type="line"/>
			<point x="705.6" y="1340" type="line"/>
			<point x="361.6" y="1340" type="line"/>
			<point x="349.4" y="1300.8" type="line"/>
			<point x="484" y="1254.2" type="line"/>
			<point x="130.2" y="89.4" type="line"/>
			<point x="-29" y="39.2" type="line"/>
			<point x="-41.2" y="0" type="line"/>
			<point x="447" y="0" type="line"/>
			<point x="459.2" y="39.2" type="line"/>
		</contour>
	</outline>
	<anchor name="UCtop" x="831.4" y="1340"/>
	<anchor name="bottom" x="208.2" y="0"/>
</glyph>
<glyph name="G" format="2">
	<unicode hex="0047"/>
	<advance width="1443.4"/>
	<outline>
		<contour>
			<point x="771.8" y="73.8" type="curve" smooth="yes"/>
			<point x="511.6" y="73.8"/>
			<point x="355.6" y="229.8"/>
			<point x="355.6" y="529.8" type="curve" smooth="yes"/>
			<point x="355.6" y="941.8"/>
			<point x="636.7047297297" y="1266.4"/>
			<point x="1041.4" y="1266.4" type="curve" smooth="yes"/>
			<point x="1162" y="1266.4"/>
			<point x="1237.4" y="1241.2"/>
			<point x="1331" y="1175.2" type="curve"/>
			<point x="1271" y="1239.2" type="line"/>
			<point x="1348.4" y="926.8" type="line"/>
			<point x="1395.4" y="926.8" type="line"/>
			<point x="1467" y="1402" type="line"/>
			<point x="1444.4" y="1402" type="line"/>
			<point x="1298" y="1312.4" type="line"/>
			<point x="1382.2" y="1313.2" type="line"/>
			<point x="1279" y="1351.8"/>
			<point x="1176.6" y="1362"/>
			<point x="1067.6" y="1362" type="curve" smooth="yes"/>
			<point x="548.2485416667" y="1362"/>
			<point x="149" y="1003.6"/>
			<point x="149" y="503.8" type="curve" smooth="yes"/>
			<point x="149" y="180.8"/>
			<point x="362" y="-22"/>
			<point x="747.6" y="-22" type="curve" smooth="yes"/>
			<point x="912.4" y="-22"/>
			<point x="1073.9765373592" y="4.2588457864"/>
			<point x="1205.4" y="60.6" type="curve"/>
			<point x="1206.2" y="64.4" type="line"/>
			<point x="1211" y="170.6" type="line"/>
			<point x="1314" y="509.4" type="line"/>
			<point x="1448.4" y="559.6" type="line"/>
			<point x="1460.6" y="598.8" type="line"/>
			<point x="972.4" y="598.8" type="line"/>
			<point x="960.2" y="559.6" type="line"/>
			<point x="1119.6" y="513" type="line"/>
			<point x="981" y="59.2" type="line"/>
			<point x="1085.2" y="165.8" type="line"/>
			<point x="1008.4" y="111"/>
			<point x="872.8" y="73.8"/>
		</contour>
	</outline>
	<anchor name="UCtop" x="996.4" y="1340"/>
	<anchor name="bottom" x="695.4" y="0"/>
</glyph>
<glyph name="H" format="2">
	<unicode hex="0048"/>
	<advance width="1532.4"/>
	<outline>
		<contour>
			<point x="375.4" y="635.4" type="line"/>
			<point x="1280.4" y="635.4" type="line"/>
			<point x="1309.6" y="731.4" type="line"/>
			<point x="404.6" y="731.4" type="line"/>
		</contour>
		<contour>
			<point x="484" y="1254.2" type="line"/>
			<point x="130.2" y="89.4" type="line"/>
			<point x="-29" y="39.2" type="line"/>
			<point x="-41.2" y="0" type="line"/>
			<point x="447" y="0" type="line"/>
			<point x="459.2" y="39.2" type="line"/>
			<point x="324.6" y="85.8" type="line"/>
			<point x="678.4" y="1250.6" type="line"/>
			<point x="837.6" y="1300.8" type="line"/>
			<point x="849.8" y="1340" type="line"/>
			<point x="361.6" y="1340" type="line"/>
			<point x="349.4" y="1300.8" type="line"/>
		</contour>
		<contour>
			<point x="1354.2" y="1254.2" type="line"/>
			<point x="1000.4" y="89.4" type="line"/>
			<point x="841.2" y="39.2" type="line"/>
			<point x="829" y="0" type="line"/>
			<point x="1317.2" y="0" type="line"/>
			<point x="1329.4" y="39.2" type="line"/>
			<point x="1194.8" y="85.8" type="line"/>
			<point x="1548.6" y="1250.6" type="line"/>
			<point x="1707.8" y="1300.8" type="line"/>
			<point x="1720" y="1340" type="line"/>
			<point x="1231.8" y="1340" type="line"/>
			<point x="1219.6" y="1300.8" type="line"/>
		</contour>
	</outline>
	<anchor name="UCtop" x="1011" y="1340"/>
	<anchor name="bottom" x="657.8" y="0"/>
</glyph>
<glyph name="I" format="2">
	<unicode hex="0049"/>
	<advance width="662.2"/>
	<outline>
		<contour>
			<point x="484" y="1254.2" type="line"/>
			<point x="130.2" y="89.4" type="line"/>
			<point x="-29" y="39.2" type="line"/>
			<point x="-41.2" y="0" type="line"/>
			<point x="447" y="0" type="line"/>
			<point x="459.2" y="39.2" type="line"/>
			<point x="324.6" y="85.8" type="line"/>
			<point x="678.4" y="1250.6" type="line"/>
			<point x="837.6" y="1300.8" type="line"/>
			<point x="849.8" y="1340" type="line"/>
			<point x="361.6" y="1340" type="line"/>
			<point x="349.4" y="1300.8" type="line"/>
		</contour>
	</outline>
	<anchor name="UCtop" x="596.4" y="1340"/>
	<anchor name="right" x="240.4" y="0"/>
	<anchor name="bottom" x="204" y="0"/>
</glyph>
<glyph name="J" format="2">
	<unicode hex="004A"/>
	<advance width="828.6"/>
	<outline>
		<contour>
			<point x="624.4" y="414.4" type="curve" smooth="yes"/>
			<point x="878.6" y="1250.6" type="line"/>
			<point x="1037.8" y="1300.8" type="line"/>
			<point x="1050" y="1340" type="line"/>
			<point x="561.8" y="1340" type="line"/>
			<point x="549.6" y="1300.8" type="line"/>
			<point x="684.2" y="1254.2" type="line"/>
			<point x="386.4" y="272.4" type="line" smooth="yes"/>
			<point x="341.8" y="127.2"/>
			<point x="264" y="81.2"/>
			<point x="181.6" y="81.2" type="curve" smooth="yes"/>
			<point x="100.6883777103" y="81.2"/>
			<point x="51.8" y="176.6"/>
			<point x="2.8" y="176.6" type="curve" smooth="yes"/>
			<point x="-56.6" y="176.6"/>
			<point x="-90.6" y="136.2"/>
			<point x="-90.6" y="89.2" type="curve" smooth="yes"/>
			<point x="-90.6" y="22.8"/>
			<point x="-25" y="-21.8"/>
			<point x="77" y="-21.8" type="curve" smooth="yes"/>
			<point x="324.4" y="-21.8"/>
			<point x="542.2" y="144"/>
		</contour>
	</outline>
	<anchor name="UCtop" x="784" y="1340"/>
	<anchor name="bottom" x="329.2" y="0"/>
</glyph>
<glyph name="K" format="2">
	<unicode hex="004B"/>
	<advance width="1385.6"/>
	<outline>
		<contour>
			<point x="1164.8" y="82.8" type="line"/>
			<point x="766" y="775.4" type="line"/>
			<point x="718.8" y="687.2" type="line"/>
			<point x="1422.4" y="1254" type="line"/>
			<point x="1581.8" y="1300.8" type="line"/>
			<point x="1593.4" y="1340" type="line"/>
			<point x="1179.2" y="1340" type="line"/>
			<point x="1167.6" y="1300.8" type="line"/>
			<point x="1301.4" y="1258" type="line"/>
			<point x="658.6" y="742" type="line"/>
			<point x="457" y="742" type="line"/>
			<point x="426.2" y="648" type="line"/>
			<point x="622.4" y="648" type="line"/>
			<point x="941.2" y="84" type="line"/>
			<point x="796" y="39.2" type="line"/>
			<point x="784.4" y="0" type="line"/>
			<point x="1280.4" y="0" type="line"/>
			<point x="1292" y="39.2" type="line"/>
		</contour>
		<contour>
			<point x="484" y="1254.2" type="line"/>
			<point x="130.2" y="89.4" type="line"/>
			<point x="-29" y="39.2" type="line"/>
			<point x="-41.2" y="0" type="line"/>
			<point x="447" y="0" type="line"/>
			<point x="459.2" y="39.2" type="line"/>
			<point x="324.6" y="85.8" type="line"/>
			<point x="678.4" y="1250.6" type="line"/>
			<point x="837.6" y="1300.8" type="line"/>
			<point x="849.8" y="1340" type="line"/>
			<point x="361.6" y="1340" type="line"/>
			<point x="349.4" y="1300.8" type="line"/>
		</contour>
	</outline>
	<anchor name="UCtop" x="957.4" y="1340"/>
	<anchor name="bottom" x="647.6" y="0"/>
</glyph>
<glyph name="L" format="2">
	<unicode hex="004C"/>
	<advance width="1138.2"/>
	<outline>
		<contour>
			<point x="678.2" y="1249.6" type="line"/>
			<point x="837.8" y="1300.4" type="line"/>
			<point x="850.4" y="1340" type="line"/>
			<point x="362.2" y="1340" type="line"/>
			<point x="349.8" y="1300.4" type="line"/>
			<point x="483.4" y="1252" type="line"/>
			<point x="130.6" y="90.4" type="line"/>
			<point x="-29" y="39.6" type="line"/>
			<point x="-41.4" y="0" type="line"/>
			<point x="299" y="0" type="line"/>
		</contour>
		<contour>
			<point x="742.4" y="70.8" type="line"/>
			<point x="827.2" y="96" type="line"/>
			<point x="226.6" y="96" type="line"/>
			<point x="194.8" y="0" type="line"/>
			<point x="767.4" y="0" type="line"/>
			<point x="864.4" y="-65.6" type="line"/>
			<point x="884.6" y="-65.6" type="line"/>
			<point x="1097.2" y="380" type="line"/>
			<point x="1058.4" y="402.4" type="line"/>
		</contour>
	</outline>
	<anchor name="UCtop" x="585.4" y="1340"/>
	<anchor name="right" x="948.4" y="1340"/>
	<anchor name="bottom" x="507.6" y="0"/>
	<anchor name="mid" x="969" y="702"/>
</glyph>
<glyph name="M" format="2">
	<unicode hex="004D"/>
	<advance width="1872.2"/>
	<outline>
		<contour>
			<point x="605" y="1204.6" type="line"/>
			<point x="580" y="1192.6" type="line"/>
			<point x="701.4" y="-15.2" type="line"/>
			<point x="786.2" y="-15.2" type="line"/>
			<point x="1733.4" y="1308.6" type="line"/>
			<point x="1735.6" y="1340" type="line"/>
			<point x="1648.2" y="1340" type="line"/>
			<point x="808.4" y="160.8" type="line"/>
			<point x="876" y="171" type="line"/>
			<point x="763.4" y="1340" type="line"/>
			<point x="397.4" y="1340" type="line"/>
			<point x="385.2" y="1300.8" type="line"/>
			<point x="527.2" y="1240.4" type="line"/>
			<point x="97" y="91.8" type="line"/>
			<point x="-66.8" y="39.6" type="line"/>
			<point x="-79.2" y="0" type="line"/>
			<point x="318.2" y="0" type="line"/>
			<point x="330.6" y="39.6" type="line"/>
			<point x="193.8" y="89.4" type="line"/>
		</contour>
		<contour>
			<point x="1665.6" y="1340" type="line"/>
			<point x="1369" y="89.4" type="line"/>
			<point x="1209.8" y="39.2" type="line"/>
			<point x="1197.6" y="0" type="line"/>
			<point x="1687.4" y="0" type="line"/>
			<point x="1699.6" y="39.2" type="line"/>
			<point x="1565" y="85.8" type="line"/>
			<point x="1834.2" y="1247.4" type="line"/>
			<point x="1996.6" y="1300.8" type="line"/>
			<point x="2008.8" y="1340" type="line"/>
		</contour>
	</outline>
	<anchor name="UCtop" x="1158.4" y="1340"/>
	<anchor name="bottom" x="748.6" y="0"/>
</glyph>
<glyph name="N" format="2">
	<unicode hex="004E"/>
	<advance width="1449.6"/>
	<outline>
		<contour>
			<point x="1115.4" y="233.8" type="line"/>
			<point x="686.2" y="1340" type="line"/>
			<point x="344.8" y="1340" type="line"/>
			<point x="333.8" y="1302.2" type="line"/>
			<point x="485.4" y="1234.2" type="line"/>
			<point x="135.8" y="88.6" type="line"/>
			<point x="-23.4" y="39.2" type="line"/>
			<point x="-35.6" y="0" type="line"/>
			<point x="353" y="0" type="line"/>
			<point x="365.2" y="39.2" type="line"/>
			<point x="228" y="86.2" type="line"/>
			<point x="575.6" y="1222.8" type="line"/>
			<point x="534.2" y="1233.2" type="line"/>
			<point x="1015" y="-16" type="line"/>
			<point x="1098.8" y="-16" type="line"/>
			<point x="1486" y="1251.4" type="line"/>
			<point x="1645.2" y="1300.8" type="line"/>
			<point x="1657.4" y="1340" type="line"/>
			<point x="1268.8" y="1340" type="line"/>
			<point x="1256.6" y="1300.8" type="line"/>
			<point x="1393.8" y="1253.8" type="line"/>
			<point x="1067.8" y="188" type="line"/>
		</contour>
	</outline>
	<anchor name="UCtop" x="991.6" y="1340"/>
	<anchor name="bottom" x="658.2" y="0"/>
</glyph>
<glyph name="O" format="2">
	<unicode hex="004F"/>
	<advance width="1489.6"/>
	<outline>
		<contour>
			<point x="354" y="471.4" type="curve" smooth="yes"/>
			<point x="354" y="895.6900584795"/>
			<point x="622.6" y="1266.6"/>
			<point x="944.4" y="1266.6" type="curve" smooth="yes"/>
			<point x="1161.8" y="1266.6"/>
			<point x="1281.8" y="1132.8"/>
			<point x="1281.8" y="868.6" type="curve" smooth="yes"/>
			<point x="1281.8" y="444.4"/>
			<point x="1013.2" y="73.4"/>
			<point x="691.4" y="73.4" type="curve" smooth="yes"/>
			<point x="474" y="73.4"/>
			<point x="354" y="207.2542750929"/>
		</contour>
		<contour>
			<point x="1481.6" y="822.2" type="curve" smooth="yes"/>
			<point x="1481.6" y="1162.6"/>
			<point x="1279" y="1362"/>
			<point x="946" y="1362" type="curve" smooth="yes"/>
			<point x="494.2" y="1362"/>
			<point x="154.2" y="967.6"/>
			<point x="154.2" y="517.8" type="curve" smooth="yes"/>
			<point x="154.2" y="177.4"/>
			<point x="356.8" y="-22"/>
			<point x="689.8" y="-22" type="curve" smooth="yes"/>
			<point x="1141.6" y="-22"/>
			<point x="1481.6" y="372.4"/>
		</contour>
	</outline>
	<anchor name="UCtop" x="978.4" y="1340"/>
	<anchor name="bottom" x="633" y="0"/>
	<anchor name="right" x="639.4" y="0"/>
	<anchor name="horn" x="1176" y="1340"/>
</glyph>
<glyph name="P" format="2">
	<unicode hex="0050"/>
	<advance width="1177.8"/>
	<outline>
		<contour>
			<point x="724.4" y="674.8" type="curve" smooth="yes"/>
			<point x="347.6" y="674.8" type="line"/>
			<point x="326.4" y="578.8" type="line"/>
			<point x="703.6" y="578.8" type="line" smooth="yes"/>
			<point x="1081" y="578.8"/>
			<point x="1296.4" y="771"/>
			<point x="1296.4" y="1041.6" type="curve" smooth="yes"/>
			<point x="1296.4" y="1208.4"/>
			<point x="1177.8" y="1340"/>
			<point x="874" y="1340" type="curve" smooth="yes"/>
			<point x="560.8" y="1340" type="line"/>
			<point x="518.8" y="1244" type="line"/>
			<point x="829.4" y="1244" type="line" smooth="yes"/>
			<point x="1017" y="1244"/>
			<point x="1096.2" y="1165.2"/>
			<point x="1096.2" y="1024.8" type="curve" smooth="yes"/>
			<point x="1096.2" y="805"/>
			<point x="953.4" y="674.8"/>
		</contour>
		<contour>
			<point x="324.6" y="85.8" type="line"/>
			<point x="705.6" y="1340" type="line"/>
			<point x="361.6" y="1340" type="line"/>
			<point x="349.4" y="1300.8" type="line"/>
			<point x="484" y="1254.2" type="line"/>
			<point x="130.2" y="89.4" type="line"/>
			<point x="-29" y="39.2" type="line"/>
			<point x="-41.2" y="0" type="line"/>
			<point x="447" y="0" type="line"/>
			<point x="459.2" y="39.2" type="line"/>
		</contour>
	</outline>
	<anchor name="UCtop" x="864" y="1340"/>
	<anchor name="bottom" x="195.4" y="0"/>
</glyph>
<glyph name="Q" format="2">
  <advance width="1484.8"/>
  <unicode hex="0051"/>
  <anchor x="977.4" y="1340.0" name="UCtop"/>
  <anchor x="533.4" y="-163.2" name="bottom"/>
  <outline>
    <contour>
      <point x="721.4" y="-238.0" type="line" smooth="yes"/>
      <point x="866.0" y="-359.4"/>
      <point x="930.8" y="-394.4"/>
      <point x="1079.2" y="-394.4" type="curve" smooth="yes"/>
      <point x="1184.4" y="-394.4"/>
      <point x="1249.8" y="-379.6"/>
      <point x="1336.8" y="-351.8" type="curve"/>
      <point x="1350.2" y="-307.2" type="line"/>
      <point x="1209.2" y="-324.4"/>
      <point x="1134.4" y="-310.8"/>
      <point x="951.6" y="-188.4" type="curve" smooth="yes"/>
      <point x="593.8" y="50.4" type="line"/>
      <point x="643.8" y="-4.0" type="line"/>
      <point x="1150.2" y="-51.2"/>
      <point x="1479.8" y="406.6"/>
      <point x="1479.8" y="823.4" type="curve" smooth="yes"/>
      <point x="1479.8" y="1161.8"/>
      <point x="1275.8" y="1362.0"/>
      <point x="943.4" y="1362.0" type="curve" smooth="yes"/>
      <point x="496.6" y="1362.0"/>
      <point x="154.0" y="967.8"/>
      <point x="154.0" y="516.6" type="curve" smooth="yes"/>
      <point x="154.0" y="319.0"/>
      <point x="220.6" y="180.0"/>
      <point x="338.4" y="81.6" type="curve" smooth="yes"/>
    </contour>
    <contour>
      <point x="357.2" y="478.6" type="curve" smooth="yes"/>
      <point x="357.2" y="904.3592088998764"/>
      <point x="621.8" y="1266.4"/>
      <point x="939.2" y="1266.4" type="curve" smooth="yes"/>
      <point x="1155.4" y="1266.4"/>
      <point x="1276.6" y="1128.7966101694915"/>
      <point x="1276.6" y="861.4" type="curve" smooth="yes"/>
      <point x="1276.6" y="435.64079110012364"/>
      <point x="1012.0" y="73.6"/>
      <point x="694.6" y="73.6" type="curve" smooth="yes"/>
      <point x="478.4" y="73.6"/>
      <point x="357.2" y="211.20338983050848"/>
    </contour>
  </outline>
</glyph>
<glyph name="R" format="2">
  <advance width="1261.6"/>
  <unicode hex="0052"/>
  <anchor x="825.4" y="1340.0" name="UCtop"/>
  <anchor x="628.4" y="0.0" name="bottom"/>
  <outline>
    <contour>
      <point x="711.6" y="724.4" type="curve" smooth="yes"/>
      <point x="352.0" y="724.4" type="line"/>
      <point x="339.2" y="628.4" type="line"/>
      <point x="658.2" y="628.4" type="line" smooth="yes"/>
      <point x="741.8" y="628.4"/>
      <point x="778.6" y="606.6"/>
      <point x="802.8" y="489.2" type="curve" smooth="yes"/>
      <point x="870.2" y="170.4" type="line" smooth="yes"/>
      <point x="904.4" y="7.6"/>
      <point x="937.6" y="-17.0"/>
      <point x="1178.8" y="0.0" type="curve"/>
      <point x="1194.6" y="58.8" type="line"/>
      <point x="1118.2" y="57.8"/>
      <point x="1085.4" y="69.6"/>
      <point x="1055.6" y="203.2" type="curve" smooth="yes"/>
      <point x="998.8" y="454.6" type="line" smooth="yes"/>
      <point x="966.6" y="596.4"/>
      <point x="929.4" y="664.2"/>
      <point x="793.2" y="672.0" type="curve"/>
      <point x="793.2" y="667.2" type="line"/>
      <point x="1091.2" y="682.2"/>
      <point x="1252.0" y="848.8"/>
      <point x="1252.0" y="1064.0" type="curve" smooth="yes"/>
      <point x="1252.0" y="1239.6"/>
      <point x="1138.2" y="1340.0"/>
      <point x="851.6" y="1340.0" type="curve" smooth="yes"/>
      <point x="560.8" y="1340.0" type="line"/>
      <point x="510.8" y="1244.0" type="line"/>
      <point x="789.8" y="1244.0" type="line" smooth="yes"/>
      <point x="983.8" y="1244.0"/>
      <point x="1055.8" y="1178.6"/>
      <point x="1055.8" y="1058.8" type="curve" smooth="yes"/>
      <point x="1055.8" y="863.6"/>
      <point x="920.6" y="724.4"/>
    </contour>
    <contour>
      <point x="324.6" y="85.8" type="line"/>
      <point x="705.6" y="1340.0" type="line"/>
      <point x="361.6" y="1340.0" type="line"/>
      <point x="349.4" y="1300.8" type="line"/>
      <point x="484.0" y="1254.2" type="line"/>
      <point x="130.2" y="89.4" type="line"/>
      <point x="-29.0" y="39.2" type="line"/>
      <point x="-41.2" y="0.0" type="line"/>
      <point x="447.0" y="0.0" type="line"/>
      <point x="459.2" y="39.2" type="line"/>
    </contour>
  </outline>
</glyph>
<glyph name="S" format="2">
	<unicode hex="0053"/>
	<advance width="1065.8"/>
	<outline>
		<contour>
			<point x="989.6" y="1174.6" type="curve"/>
			<point x="925.4" y="1275.4" type="line"/>
			<point x="1004.2" y="933.6" type="line"/>
			<point x="1051.2" y="933.6" type="line"/>
			<point x="1128.4" y="1402" type="line"/>
			<point x="1105.8" y="1402" type="line"/>
			<point x="963.8" y="1317.6" type="line"/>
			<point x="1018.4" y="1316" type="line"/>
			<point x="924" y="1351"/>
			<point x="850.6" y="1362"/>
			<point x="758.8" y="1362" type="curve" smooth="yes"/>
			<point x="462.2" y="1362"/>
			<point x="277.6" y="1197"/>
			<point x="277.6" y="965.2" type="curve" smooth="yes"/>
			<point x="277.6" y="808.4"/>
			<point x="355" y="728.4"/>
			<point x="494.6" y="654.4" type="curve" smooth="yes"/>
			<point x="634" y="581.4"/>
			<point x="792.6" y="535.8"/>
			<point x="792.6" y="346.8" type="curve" smooth="yes"/>
			<point x="792.6" y="175.6"/>
			<point x="662.2" y="69"/>
			<point x="419.8" y="69" type="curve" smooth="yes"/>
			<point x="348.2" y="69"/>
			<point x="290" y="79"/>
			<point x="219" y="107.6" type="curve"/>
			<point x="290.8" y="51" type="line"/>
			<point x="131.2" y="396.6" type="line"/>
			<point x="86" y="396.6" type="line"/>
			<point x="93.8" y="44" type="line"/>
			<point x="196.4" y="-4.2"/>
			<point x="286.4" y="-22"/>
			<point x="418" y="-22" type="curve" smooth="yes"/>
			<point x="748.4" y="-22"/>
			<point x="965.4" y="151"/>
			<point x="965.4" y="410.8" type="curve" smooth="yes"/>
			<point x="965.4" y="599"/>
			<point x="867.2" y="690"/>
			<point x="721" y="765.4" type="curve" smooth="yes"/>
			<point x="574" y="841.6"/>
			<point x="446" y="887"/>
			<point x="446" y="1033.8" type="curve" smooth="yes"/>
			<point x="446" y="1188.2"/>
			<point x="546" y="1275.4"/>
			<point x="721.4" y="1275.4" type="curve" smooth="yes"/>
			<point x="839" y="1275.4"/>
			<point x="907.2" y="1244"/>
		</contour>
	</outline>
	<anchor name="UCtop" x="734.6" y="1340"/>
	<anchor name="bottom" x="461.6" y="0"/>
</glyph>
<glyph name="T" format="2">
	<unicode hex="0054"/>
	<advance width="1251"/>
	<outline>
		<contour>
			<point x="1357.2" y="1237.2" type="line"/>
			<point x="1284" y="1261" type="line"/>
			<point x="1329.4" y="965.6" type="line"/>
			<point x="1371.2" y="965.6" type="line"/>
			<point x="1471.8" y="1409.4" type="line"/>
			<point x="1449.2" y="1409.4" type="line"/>
			<point x="1283.8" y="1321.6" type="line"/>
			<point x="1377" y="1340" type="line"/>
			<point x="423.6" y="1340" type="line"/>
			<point x="497.8" y="1321.6" type="line"/>
			<point x="392.6" y="1409.4" type="line"/>
			<point x="370.4" y="1409.4" type="line"/>
			<point x="212.2" y="984.2" type="line"/>
			<point x="253.6" y="964.4" type="line"/>
			<point x="489.8" y="1261.8" type="line"/>
			<point x="369.8" y="1237.2" type="line"/>
		</contour>
		<contour>
			<point x="784.2" y="1271.8" type="line"/>
			<point x="424.8" y="89.4" type="line"/>
			<point x="265.6" y="39.2" type="line"/>
			<point x="253.4" y="0" type="line"/>
			<point x="741.6" y="0" type="line"/>
			<point x="753.8" y="39.2" type="line"/>
			<point x="619.2" y="85.8" type="line"/>
			<point x="979.8" y="1271.8" type="line"/>
		</contour>
	</outline>
	<anchor name="UCtop" x="902.8" y="1340"/>
	<anchor name="bottom" x="498" y="0"/>
</glyph>
<glyph name="U" format="2">
  <advance width="1454.0"/>
  <unicode hex="0055"/>
  <anchor x="1011.4" y="1340.0" name="UCtop"/>
  <anchor x="672.2" y="0.0" name="right"/>
  <anchor x="612.4" y="0.0" name="bottom"/>
  <anchor x="1519.6" y="1340.0" name="horn"/>
  <outline>
    <contour>
      <point x="429.2" y="521.4" type="curve" smooth="yes"/>
      <point x="651.8" y="1250.6" type="line"/>
      <point x="811.0" y="1300.8" type="line"/>
      <point x="823.2" y="1340.0" type="line"/>
      <point x="335.0" y="1340.0" type="line"/>
      <point x="322.8" y="1300.8" type="line"/>
      <point x="457.4" y="1254.2" type="line"/>
      <point x="233.4" y="520.6" type="line" smooth="yes"/>
      <point x="123.2" y="160.6"/>
      <point x="299.2" y="-22.0"/>
      <point x="648.4" y="-22.0" type="curve" smooth="yes"/>
      <point x="947.8" y="-22.0"/>
      <point x="1162.0" y="122.0"/>
      <point x="1266.6" y="466.6" type="curve" smooth="yes"/>
      <point x="1505.4" y="1251.4" type="line"/>
      <point x="1664.6" y="1300.8" type="line"/>
      <point x="1676.8" y="1340.0" type="line"/>
      <point x="1288.2" y="1340.0" type="line"/>
      <point x="1276.0" y="1300.8" type="line"/>
      <point x="1413.2" y="1253.8" type="line"/>
      <point x="1184.0" y="502.2" type="line" smooth="yes"/>
      <point x="1095.0" y="210.0"/>
      <point x="921.0" y="113.0"/>
      <point x="707.4" y="113.0" type="curve" smooth="yes"/>
      <point x="431.6" y="113.0"/>
      <point x="346.2" y="249.6"/>
    </contour>
  </outline>
</glyph>
<glyph name="V" format="2">
  <advance width="1310.6"/>
  <unicode hex="0056"/>
  <anchor x="934.6" y="1340.0" name="UCtop"/>
  <anchor x="551.6" y="0.0" name="bottom"/>
  <outline>
    <contour>
      <point x="365.4" y="1249.8" type="line"/>
      <point x="483.6" y="-16.0" type="line"/>
      <point x="572.2" y="-16.0" type="line"/>
      <point x="1417.8" y="1253.2" type="line"/>
      <point x="1579.8" y="1300.8" type="line"/>
      <point x="1591.4" y="1340.0" type="line"/>
      <point x="1177.6" y="1340.0" type="line"/>
      <point x="1166.0" y="1300.8" type="line"/>
      <point x="1302.4" y="1253.2" type="line"/>
      <point x="586.6" y="153.6" type="line"/>
      <point x="650.2" y="155.2" type="line"/>
      <point x="559.8" y="1252.2" type="line"/>
      <point x="738.4" y="1300.8" type="line"/>
      <point x="750.2" y="1340.0" type="line"/>
      <point x="252.8" y="1340.0" type="line"/>
      <point x="241.2" y="1300.8" type="line"/>
    </contour>
  </outline>
</glyph>
<glyph name="X" format="2">
	<unicode hex="0058"/>
	<advance width="1342"/>
	<outline>
		<contour>
			<point x="741.8" y="642.6" type="line"/>
			<point x="801.4" y="682.2" type="line"/>
			<point x="1387" y="1246.6" type="line"/>
			<point x="1548.6" y="1300.8" type="line"/>
			<point x="1561" y="1340" type="line"/>
			<point x="1145" y="1340" type="line"/>
			<point x="1132.6" y="1300.8" type="line"/>
			<point x="1270.2" y="1249.8" type="line"/>
			<point x="764" y="752" type="line"/>
			<point x="701.2" y="710.6" type="line"/>
			<point x="48" y="93.4" type="line"/>
			<point x="-113.6" y="39.2" type="line"/>
			<point x="-126" y="0" type="line"/>
			<point x="291" y="0" type="line"/>
			<point x="303.4" y="39.2" type="line"/>
			<point x="167.6" y="90.2" type="line"/>
		</contour>
		<contour>
			<point x="895.2" y="90.2" type="line"/>
			<point x="728" y="39.2" type="line"/>
			<point x="715.6" y="0" type="line"/>
			<point x="1228.2" y="0" type="line"/>
			<point x="1240.8" y="39.2" type="line"/>
			<point x="1106.2" y="92.2" type="line"/>
			<point x="839" y="753.6" type="line"/>
			<point x="827" y="781.8" type="line"/>
			<point x="640.8" y="1251.4" type="line"/>
			<point x="811.2" y="1300.8" type="line"/>
			<point x="823.6" y="1340" type="line"/>
			<point x="311" y="1340" type="line"/>
			<point x="298.6" y="1300.8" type="line"/>
			<point x="429.2" y="1249.4" type="line"/>
			<point x="672.6" y="649.8" type="line"/>
			<point x="683.6" y="624" type="line"/>
		</contour>
	</outline>
	<anchor name="UCtop" x="944.8" y="1340"/>
	<anchor name="bottom" x="535.8" y="0"/>
</glyph>
<glyph name="Y" format="2">
	<unicode hex="0059"/>
	<advance width="1298.8"/>
	<outline>
		<contour>
			<point x="1279.2" y="1258.8" type="line"/>
			<point x="743" y="629.8" type="line"/>
			<point x="790.4" y="628.4" type="line"/>
			<point x="577.4" y="1253.8" type="line"/>
			<point x="744.8" y="1300.8" type="line"/>
			<point x="757.4" y="1340" type="line"/>
			<point x="260" y="1340" type="line"/>
			<point x="247.6" y="1300.8" type="line"/>
			<point x="376.6" y="1251.4" type="line"/>
			<point x="613.6" y="583.8" type="line"/>
			<point x="463.4" y="89.4" type="line"/>
			<point x="304.2" y="39.2" type="line"/>
			<point x="292" y="0" type="line"/>
			<point x="780.2" y="0" type="line"/>
			<point x="792.4" y="39.2" type="line"/>
			<point x="657.8" y="85.8" type="line"/>
			<point x="810.8" y="589.6" type="line"/>
			<point x="1390.6" y="1256.4" type="line"/>
			<point x="1546.2" y="1300.8" type="line"/>
			<point x="1558.6" y="1340" type="line"/>
			<point x="1148" y="1340" type="line"/>
			<point x="1135.6" y="1300.8" type="line"/>
		</contour>
	</outline>
	<anchor name="UCtop" x="903.8" y="1340"/>
	<anchor name="bottom" x="546.4" y="0"/>
</glyph>
<glyph name="Z" format="2">
  <advance width="1216.4"/>
  <unicode hex="005A"/>
  <anchor x="878.0" y="1340.0" name="UCtop"/>
  <anchor x="495.0" y="0.0" name="bottom"/>
  <outline>
    <contour>
      <point x="1389.0" y="1340.0" type="line"/>
      <point x="563.0" y="1340.0" type="line"/>
      <point x="456.4" y="1402.0" type="line"/>
      <point x="433.4" y="1402.0" type="line"/>
      <point x="230.6" y="969.0" type="line"/>
      <point x="268.0" y="947.4" type="line"/>
      <point x="557.8" y="1244.0" type="line"/>
      <point x="1162.0" y="1244.0" type="line"/>
      <point x="1112.6" y="1271.0" type="line"/>
      <point x="-17.0" y="28.8" type="line"/>
      <point x="-25.6" y="0.0" type="line"/>
      <point x="834.0" y="0.0" type="line"/>
      <point x="935.6" y="-53.6" type="line"/>
      <point x="954.4" y="-53.6" type="line"/>
      <point x="1137.4" y="356.4" type="line"/>
      <point x="1096.2" y="366.2" type="line"/>
      <point x="844.2" y="96.0" type="line"/>
      <point x="204.2" y="96.0" type="line"/>
      <point x="245.6" y="69.0" type="line"/>
      <point x="1380.2" y="1311.2" type="line"/>
    </contour>
  </outline>
</glyph>
<glyph name="bracketleft" format="2">
	<unicode hex="005B"/>
	<advance width="608.8"/>
	<outline>
		<contour>
			<point x="-26.4" y="-256.4" type="line"/>
			<point x="371" y="-256.4" type="line"/>
			<point x="393.8" y="-180.4" type="line"/>
			<point x="143" y="-180.4" type="line"/>
			<point x="602.8" y="1323" type="line"/>
			<point x="853.6" y="1323" type="line"/>
			<point x="877.4" y="1399" type="line"/>
			<point x="479.2" y="1399" type="line"/>
		</contour>
	</outline>
</glyph>
<glyph name="backslash" format="2">
  <advance width="739.0"/>
  <unicode hex="005C"/>
  <outline>
    <contour>
      <point x="556.8" y="0.0" type="line"/>
      <point x="428.4" y="1340.0" type="line"/>
      <point x="330.2" y="1340.0" type="line"/>
      <point x="459.2" y="0.0" type="line"/>
    </contour>
  </outline>
</glyph>
<glyph name="bracketright" format="2">
	<unicode hex="005D"/>
	<advance width="611.2"/>
	<outline>
		<contour>
			<point x="724.4" y="1399.8" type="line"/>
			<point x="327" y="1399.8" type="line"/>
			<point x="304" y="1323.8" type="line"/>
			<point x="555" y="1323.8" type="line"/>
			<point x="95.2" y="-179.6" type="line"/>
			<point x="-155.8" y="-179.6" type="line"/>
			<point x="-179.4" y="-255.6" type="line"/>
			<point x="218.8" y="-255.6" type="line"/>
		</contour>
	</outline>
</glyph>
<glyph name="asciicircum" format="2">
  <advance width="1000"/>
  <unicode hex="005E"/>
  <outline>
    <contour>
      <point x="748.2" y="1246.0" type="line"/>
      <point x="824.2" y="592.0" type="line"/>
      <point x="918.4" y="592.0" type="line"/>
      <point x="826.4" y="1340.0" type="line"/>
      <point x="734.4" y="1340.0" type="line"/>
      <point x="188.4" y="592.0" type="line"/>
      <point x="300.2" y="592.0" type="line"/>
      <point x="774.2" y="1246.0" type="line"/>
    </contour>
  </outline>
</glyph>
<glyph name="b" format="2">
  <advance width="925.2"/>
  <unicode hex="0062"/>
  <anchor x="745.8" y="1340.2" name="UCtop"/>
  <anchor x="309.8" y="0.0" name="bottom"/>
  <outline>
    <contour>
      <point x="253.4" y="316.2" type="curve" smooth="yes"/>
      <point x="267.2" y="363.6" type="line" smooth="yes"/>
      <point x="320.4" y="547.6"/>
      <point x="483.6" y="729.0"/>
      <point x="597.6" y="729.0" type="curve" smooth="yes"/>
      <point x="664.4" y="729.0"/>
      <point x="697.4" y="686.2"/>
      <point x="697.4" y="600.6" type="curve" smooth="yes"/>
      <point x="697.4" y="357.4"/>
      <point x="496.8" y="51.2"/>
      <point x="330.0" y="51.2" type="curve" smooth="yes"/>
      <point x="263.8" y="51.2"/>
      <point x="228.4" y="89.8"/>
      <point x="228.4" y="170.8" type="curve" smooth="yes"/>
      <point x="228.4" y="209.0"/>
      <point x="236.4" y="258.0"/>
    </contour>
    <contour>
      <point x="365.6" y="1248.4" type="curve"/>
      <point x="98.6" y="360.8" type="line" smooth="yes"/>
      <point x="84.4" y="314.4"/>
      <point x="77.6" y="270.8"/>
      <point x="77.6" y="230.4" type="curve" smooth="yes"/>
      <point x="77.6" y="78.6"/>
      <point x="175.0" y="-22.0"/>
      <point x="330.6" y="-22.0" type="curve" smooth="yes"/>
      <point x="613.4" y="-22.0"/>
      <point x="891.2" y="313.6"/>
      <point x="891.2" y="651.2" type="curve" smooth="yes"/>
      <point x="891.2" y="784.2"/>
      <point x="822.6" y="878.0"/>
      <point x="693.0" y="878.0" type="curve" smooth="yes"/>
      <point x="579.6" y="878.0"/>
      <point x="444.2" y="779.6"/>
      <point x="299.2" y="543.6" type="curve"/>
      <point x="311.6" y="516.0" type="line"/>
      <point x="585.8" y="1421.0" type="line"/>
      <point x="559.6" y="1421.0" type="line"/>
      <point x="248.2" y="1366.0" type="line"/>
      <point x="239.2" y="1334.6" type="line"/>
      <point x="296.6" y="1309.4"/>
      <point x="328.2" y="1285.0"/>
    </contour>
  </outline>
</glyph>
<glyph name="c" format="2">
	<unicode hex="0063"/>
	<advance width="737.2"/>
	<outline>
		<contour>
			<point x="480.2" y="793.6" type="curve" smooth="yes"/>
			<point x="520.8" y="793.6"/>
			<point x="555.2" y="763"/>
			<point x="586.4" y="723.8" type="curve" smooth="yes"/>
			<point x="617.6" y="684.6"/>
			<point x="639.6" y="655"/>
			<point x="658.6" y="655.8" type="curve" smooth="yes"/>
			<point x="714.6" y="656.6"/>
			<point x="753.8" y="686"/>
			<point x="753.8" y="743" type="curve" smooth="yes"/>
			<point x="753.8" y="814.6"/>
			<point x="691.8" y="878"/>
			<point x="558.2" y="878" type="curve" smooth="yes"/>
			<point x="289" y="878"/>
			<point x="53.4" y="605.2"/>
			<point x="53.4" y="255" type="curve" smooth="yes"/>
			<point x="53.4" y="71.8"/>
			<point x="142.8" y="-22"/>
			<point x="304.6" y="-22" type="curve" smooth="yes"/>
			<point x="451.4" y="-22"/>
			<point x="551.6" y="49.2"/>
			<point x="658.4" y="290.6" type="curve"/>
			<point x="602" y="290.6" type="line"/>
			<point x="526.8" y="154.2"/>
			<point x="452.4" y="111"/>
			<point x="369.2" y="111" type="curve" smooth="yes"/>
			<point x="280.2" y="111"/>
			<point x="237.2" y="162"/>
			<point x="237.2" y="298.6" type="curve" smooth="yes"/>
			<point x="237.2" y="530.8"/>
			<point x="343.8" y="793.6"/>
		</contour>
	</outline>
	<anchor name="top" x="479.2" y="856"/>
	<anchor name="right" x="427.2" y="0"/>
	<anchor name="bottom" x="327.8" y="0"/>
</glyph>
<glyph name="d" format="2">
  <advance width="978.0"/>
  <unicode hex="0064"/>
  <anchor x="869.6" y="1444.0" name="UCtop"/>
  <anchor x="1126.4" y="1399.0" name="right"/>
  <anchor x="387.6" y="0.0" name="bottom"/>
  <anchor x="896.2" y="1073.2" name="center"/>
  <outline>
    <contour>
      <point x="725.4" y="719.4" type="curve"/>
      <point x="769.0" y="779.2" type="line"/>
      <point x="721.4" y="843.6"/>
      <point x="669.2" y="873.2"/>
      <point x="587.2" y="873.2" type="curve" smooth="yes"/>
      <point x="283.2" y="873.2"/>
      <point x="20.8" y="445.8"/>
      <point x="20.8" y="183.0" type="curve" smooth="yes"/>
      <point x="20.8" y="41.0"/>
      <point x="94.6" y="-19.6"/>
      <point x="207.0" y="-19.6" type="curve" smooth="yes"/>
      <point x="320.0" y="-19.6"/>
      <point x="437.4" y="62.0"/>
      <point x="643.4" y="376.8" type="curve"/>
      <point x="617.2" y="376.8" type="line"/>
      <point x="512.2" y="54.6" type="line" smooth="yes"/>
      <point x="495.8" y="5.4"/>
      <point x="526.8" y="-22.0"/>
      <point x="597.4" y="-22.0" type="curve" smooth="yes"/>
      <point x="698.0" y="-22.0"/>
      <point x="807.8" y="43.0"/>
      <point x="952.0" y="213.6" type="curve"/>
      <point x="920.4" y="247.2" type="line"/>
      <point x="828.4" y="159.2"/>
      <point x="731.4" y="112.2"/>
      <point x="660.4" y="119.6" type="curve"/>
      <point x="684.2" y="71.2" type="line"/>
      <point x="1106.8" y="1421.0" type="line"/>
      <point x="1080.6" y="1421.0" type="line"/>
      <point x="768.2" y="1366.8" type="line"/>
      <point x="758.4" y="1335.4" type="line"/>
      <point x="812.2" y="1312.0"/>
      <point x="845.2" y="1285.0"/>
      <point x="880.4" y="1245.6" type="curve"/>
      <point x="647.6" y="502.8" type="line" smooth="yes"/>
      <point x="577.6" y="280.8"/>
      <point x="376.8" y="119.2"/>
      <point x="285.0" y="119.2" type="curve" smooth="yes"/>
      <point x="238.4" y="119.2"/>
      <point x="207.8" y="144.8"/>
      <point x="207.8" y="200.6" type="curve" smooth="yes"/>
      <point x="207.8" y="365.6"/>
      <point x="392.8" y="786.6"/>
      <point x="618.2" y="786.6" type="curve" smooth="yes"/>
      <point x="677.2" y="786.6"/>
      <point x="713.8" y="753.6"/>
    </contour>
  </outline>
</glyph>
<glyph name="e" format="2">
	<unicode hex="0065"/>
	<advance width="778"/>
	<outline>
		<contour>
			<point x="515.8" y="803" type="curve" smooth="yes"/>
			<point x="571.6" y="803"/>
			<point x="601.4" y="767.8"/>
			<point x="601.4" y="714.4" type="curve" smooth="yes"/>
			<point x="601.4" y="621"/>
			<point x="528.2" y="543.2"/>
			<point x="211.2" y="448.8" type="curve"/>
			<point x="208.2" y="373" type="line"/>
			<point x="373.4" y="421.6"/>
			<point x="540.2" y="479.2"/>
			<point x="694.8" y="544" type="curve"/>
			<point x="734.2" y="579"/>
			<point x="761.2" y="642.2"/>
			<point x="761.2" y="701" type="curve" smooth="yes"/>
			<point x="761.2" y="794.4"/>
			<point x="698.4" y="878"/>
			<point x="545.4" y="878" type="curve" smooth="yes"/>
			<point x="289" y="878"/>
			<point x="53.4" y="605.2"/>
			<point x="53.4" y="255" type="curve" smooth="yes"/>
			<point x="53.4" y="75.8"/>
			<point x="156" y="-22"/>
			<point x="323" y="-22" type="curve" smooth="yes"/>
			<point x="483.2" y="-22"/>
			<point x="579.2" y="48.4"/>
			<point x="682.6" y="290.6" type="curve"/>
			<point x="624.6" y="290.6" type="line"/>
			<point x="551.8" y="150.2"/>
			<point x="480.4" y="111"/>
			<point x="387" y="111" type="curve" smooth="yes"/>
			<point x="297.4" y="111"/>
			<point x="237.2" y="162"/>
			<point x="237.2" y="298.6" type="curve" smooth="yes"/>
			<point x="237.2" y="499.6"/>
			<point x="338.8" y="803"/>
		</contour>
	</outline>
	<anchor name="top" x="500.4" y="856"/>
	<anchor name="right" x="470.6" y="0"/>
	<anchor name="bottom" x="318.8" y="0"/>
</glyph>
<glyph name="f" format="2">
	<unicode hex="0066"/>
	<advance width="614.8"/>
	<outline>
		<contour>
			<point x="103" y="770.2" type="line"/>
			<point x="708.2" y="770.2" type="line"/>
			<point x="725.2" y="856" type="line"/>
			<point x="119" y="856" type="line"/>
		</contour>
		<contour>
			<point x="364.6" y="222.8" type="curve" smooth="yes"/>
			<point x="529.2" y="1028.4" type="line" smooth="yes"/>
			<point x="572.4" y="1239.4"/>
			<point x="652.2" y="1330.6"/>
			<point x="786.2" y="1330.6" type="curve" smooth="yes"/>
			<point x="839.8" y="1330.6"/>
			<point x="879.8" y="1308.4"/>
			<point x="913.8" y="1269.6" type="curve" smooth="yes"/>
			<point x="947.8" y="1230.8"/>
			<point x="973.8" y="1186"/>
			<point x="1005.2" y="1186" type="curve" smooth="yes"/>
			<point x="1063.2" y="1186"/>
			<point x="1104.2" y="1227.4"/>
			<point x="1104.2" y="1280.2" type="curve" smooth="yes"/>
			<point x="1104.2" y="1359.4"/>
			<point x="1026.2" y="1421"/>
			<point x="873" y="1421" type="curve" smooth="yes"/>
			<point x="599.8" y="1421"/>
			<point x="391.2" y="1226.4"/>
			<point x="319.6" y="867.2" type="curve" smooth="yes"/>
			<point x="147.2" y="4.4" type="line" smooth="yes"/>
			<point x="76" y="-354.8"/>
			<point x="2.4" y="-432"/>
			<point x="-100.6" y="-432" type="curve" smooth="yes"/>
			<point x="-135" y="-432"/>
			<point x="-169.8" y="-416"/>
			<point x="-203" y="-374.2" type="curve" smooth="yes"/>
			<point x="-236.2" y="-332.4"/>
			<point x="-259.6" y="-307"/>
			<point x="-285" y="-307" type="curve" smooth="yes"/>
			<point x="-333" y="-307"/>
			<point x="-370.6" y="-351.8"/>
			<point x="-370.6" y="-401.8" type="curve" smooth="yes"/>
			<point x="-370.6" y="-476"/>
			<point x="-309.4" y="-530"/>
			<point x="-183.6" y="-530" type="curve" smooth="yes"/>
			<point x="53.6" y="-530"/>
			<point x="247.2" y="-344.2"/>
		</contour>
	</outline>
	<anchor name="UCtop" x="805.4" y="1340"/>
	<anchor name="bottom" x="23" y="-508"/>
</glyph>
<glyph name="i" format="2">
	<unicode hex="0069"/>
	<advance width="565.4"/>
	<outline>
		<contour>
			<point x="64.6" y="50.6" type="line" smooth="yes"/>
			<point x="46.8" y="2.2"/>
			<point x="74.2" y="-22"/>
			<point x="159" y="-22" type="curve" smooth="yes"/>
			<point x="262" y="-22"/>
			<point x="375" y="36.2"/>
			<point x="519" y="208.2" type="curve"/>
			<point x="487.8" y="242.4" type="line"/>
			<point x="395.2" y="156.4"/>
			<point x="299.2" y="111.6"/>
			<point x="224.2" y="118.6" type="curve"/>
			<point x="250.8" y="71.4" type="line"/>
			<point x="509" y="805.4" type="line" smooth="yes"/>
			<point x="525.8" y="852.2"/>
			<point x="496.2" y="878"/>
			<point x="429.8" y="878" type="curve" smooth="yes"/>
			<point x="324.8" y="878"/>
			<point x="211.4" y="820.8"/>
			<point x="71.8" y="620.8" type="curve"/>
			<point x="105" y="589.6" type="line"/>
			<point x="190.8" y="684.2"/>
			<point x="284" y="736.4"/>
			<point x="359.4" y="734.2" type="curve"/>
			<point x="322.8" y="764.6" type="line"/>
		</contour>
		<contour>
			<point x="406" y="1288.4" type="curve" smooth="yes"/>
			<point x="406" y="1215.6"/>
			<point x="458.6" y="1161.2"/>
			<point x="533.4" y="1161.2" type="curve" smooth="yes"/>
			<point x="608.4" y="1161.2"/>
			<point x="661" y="1215.6"/>
			<point x="661" y="1288.4" type="curve" smooth="yes"/>
			<point x="661" y="1361.6"/>
			<point x="608.4" y="1415.6"/>
			<point x="533.4" y="1415.6" type="curve" smooth="yes"/>
			<point x="458.6" y="1415.6"/>
			<point x="406" y="1361.6"/>
		</contour>
	</outline>
	<anchor name="top" x="561.4" y="1387.2"/>
	<anchor name="bottom" x="155.8" y="0"/>
	<anchor name="right" x="222.4" y="0"/>
</glyph>
<glyph name="k" format="2">
	<unicode hex="006B"/>
	<advance width="953.6"/>
	<outline>
		<contour>
			<point x="608.4" y="1421" type="line"/>
			<point x="582.2" y="1421" type="line"/>
			<point x="271.2" y="1367.6" type="line"/>
			<point x="261.4" y="1336.2" type="line"/>
			<point x="318" y="1311"/>
			<point x="348.8" y="1286.6"/>
			<point x="384.6" y="1250" type="curve"/>
			<point x="7.8" y="0" type="line"/>
			<point x="179.8" y="0" type="line"/>
		</contour>
		<contour>
			<point x="315.2" y="474.4" type="line"/>
			<point x="477.2" y="33.8"/>
			<point x="518.8" y="-22"/>
			<point x="600" y="-22" type="curve" smooth="yes"/>
			<point x="689.4" y="-22"/>
			<point x="778.8" y="46.8"/>
			<point x="905.2" y="221" type="curve"/>
			<point x="870.6" y="251.8" type="line"/>
			<point x="795.6" y="161.2"/>
			<point x="724.8" y="110"/>
			<point x="684.4" y="110" type="curve" smooth="yes"/>
			<point x="639" y="110"/>
			<point x="607.8" y="148.4"/>
			<point x="448.4" y="566" type="curve"/>
			<point x="403.6" y="490.2" type="line"/>
			<point x="524.4" y="624"/>
			<point x="682.6" y="732.2"/>
			<point x="748" y="732.2" type="curve" smooth="yes"/>
			<point x="768.6" y="732.2"/>
			<point x="783.2" y="719.4"/>
			<point x="802.4" y="684" type="curve" smooth="yes"/>
			<point x="821.6" y="648.6"/>
			<point x="833.2" y="635.2"/>
			<point x="852.2" y="635.2" type="curve" smooth="yes"/>
			<point x="924.6" y="635.2"/>
			<point x="985.6" y="687.6"/>
			<point x="985.6" y="764.8" type="curve" smooth="yes"/>
			<point x="985.6" y="825.6"/>
			<point x="942" y="878"/>
			<point x="870.4" y="878" type="curve" smooth="yes"/>
			<point x="750.2" y="878"/>
			<point x="639.6" y="811"/>
			<point x="324.6" y="497" type="curve"/>
		</contour>
	</outline>
	<anchor name="UCtop" x="788.2" y="1444"/>
	<anchor name="bottom" x="385.4" y="0"/>
</glyph>
<glyph name="l" format="2">
	<unicode hex="006C"/>
	<advance width="523.2"/>
	<outline>
		<contour>
			<point x="397" y="1250.4" type="curve"/>
			<point x="30.2" y="50.6" type="line" smooth="yes"/>
			<point x="14" y="-0.6"/>
			<point x="48.6" y="-22"/>
			<point x="124.6" y="-22" type="curve" smooth="yes"/>
			<point x="229.4" y="-22"/>
			<point x="346" y="34.2"/>
			<point x="490.6" y="208.2" type="curve"/>
			<point x="459.4" y="242.2" type="line"/>
			<point x="365.6" y="154.8"/>
			<point x="267.6" y="111.2"/>
			<point x="191.4" y="119.4" type="curve"/>
			<point x="212.4" y="79.4" type="line"/>
			<point x="623.8" y="1421" type="line"/>
			<point x="597.6" y="1421" type="line"/>
			<point x="284.6" y="1366.8" type="line"/>
			<point x="274.8" y="1335.4" type="line"/>
			<point x="331" y="1310.6"/>
			<point x="361.6" y="1286.6"/>
		</contour>
	</outline>
	<anchor name="UCtop" x="507.6" y="1444"/>
	<anchor name="bottom" x="98" y="0"/>
	<anchor name="right" x="642.6" y="1399"/>
	<anchor name="mid" x="584.2" y="546"/>
</glyph>
<glyph name="m" format="2">
	<unicode hex="006D"/>
	<advance width="1507.8"/>
	<outline>
		<contour>
			<point x="1191.8" y="71.4" type="line"/>
			<point x="1382.2" y="573.8" type="line" smooth="yes"/>
			<point x="1410.6" y="648.8"/>
			<point x="1424.4" y="708"/>
			<point x="1424.4" y="753.4" type="curve" smooth="yes"/>
			<point x="1424.4" y="829.4"/>
			<point x="1382.6" y="878.8"/>
			<point x="1269.2" y="878.8" type="curve" smooth="yes"/>
			<point x="1143.4" y="878.8"/>
			<point x="1015.2" y="786.8"/>
			<point x="862.2" y="496.6" type="curve"/>
			<point x="873.6" y="496.6" type="line"/>
			<point x="903.4" y="599.4" type="line" smooth="yes"/>
			<point x="924.6" y="668"/>
			<point x="938.4" y="720"/>
			<point x="938.4" y="760.8" type="curve" smooth="yes"/>
			<point x="938.4" y="832.2"/>
			<point x="895" y="878"/>
			<point x="788.2" y="878" type="curve" smooth="yes"/>
			<point x="664.6" y="878"/>
			<point x="543.8" y="792.6"/>
			<point x="371" y="467.6" type="curve"/>
			<point x="378.2" y="462" type="line"/>
			<point x="497.6" y="857.6" type="line"/>
			<point x="453" y="870.2"/>
			<point x="414.4" y="877"/>
			<point x="368.2" y="877" type="curve" smooth="yes"/>
			<point x="246.6" y="877"/>
			<point x="132.6" y="809.8"/>
			<point x="49.8" y="585.6" type="curve"/>
			<point x="90.4" y="569" type="line"/>
			<point x="162.8" y="703.8"/>
			<point x="221.6" y="735.6"/>
			<point x="295.4" y="735.6" type="curve" smooth="yes"/>
			<point x="300.4" y="735.6"/>
			<point x="305.4" y="735.6"/>
			<point x="310.4" y="735.6" type="curve"/>
			<point x="87.6" y="0" type="line"/>
			<point x="261.2" y="0" type="line"/>
			<point x="329.4" y="223.4" type="line" smooth="yes"/>
			<point x="421.2" y="524.4"/>
			<point x="583.6" y="734.6"/>
			<point x="698.6" y="734.6" type="curve" smooth="yes"/>
			<point x="743.6" y="734.6"/>
			<point x="762" y="715.8"/>
			<point x="762" y="683.2" type="curve" smooth="yes"/>
			<point x="762" y="664.4"/>
			<point x="755.4" y="639.2"/>
			<point x="744.4" y="605.2" type="curve" smooth="yes"/>
			<point x="546" y="0" type="line"/>
			<point x="723.4" y="0" type="line"/>
			<point x="802.2" y="250.6" type="line"/>
			<point x="902.8" y="544.8"/>
			<point x="1068.2" y="734.8"/>
			<point x="1175.6" y="734.8" type="curve" smooth="yes"/>
			<point x="1223.6" y="734.8"/>
			<point x="1241" y="714.2"/>
			<point x="1241" y="681.8" type="curve" smooth="yes"/>
			<point x="1241" y="660.8"/>
			<point x="1234.6" y="636.2"/>
			<point x="1221.2" y="601.8" type="curve" smooth="yes"/>
			<point x="1020" y="81" type="line" smooth="yes"/>
			<point x="989.2" y="1.4"/>
			<point x="1008" y="-22"/>
			<point x="1103.2" y="-22" type="curve" smooth="yes"/>
			<point x="1206.8" y="-22"/>
			<point x="1321.2" y="37.8"/>
			<point x="1466.2" y="213.4" type="curve"/>
			<point x="1433.4" y="246.6" type="line"/>
			<point x="1345.2" y="163.8"/>
			<point x="1255.6" y="119"/>
			<point x="1182.8" y="118.6" type="curve"/>
		</contour>
	</outline>
	<anchor name="top" x="900.2" y="856"/>
	<anchor name="bottom" x="643" y="0"/>
</glyph>
<glyph name="n" format="2">
	<unicode hex="006E"/>
	<advance width="1062"/>
	<outline>
		<contour>
			<point x="90.4" y="569" type="line"/>
			<point x="162.8" y="703.8"/>
			<point x="221.6" y="735.6"/>
			<point x="295.4" y="735.6" type="curve" smooth="yes"/>
			<point x="300.4" y="735.6"/>
			<point x="305.4" y="735.6"/>
			<point x="310.4" y="735.6" type="curve"/>
			<point x="87.6" y="0" type="line"/>
			<point x="261.2" y="0" type="line"/>
			<point x="329.4" y="223.4" type="line"/>
			<point x="419.8" y="519.6"/>
			<point x="608.2" y="735.6"/>
			<point x="727.2" y="735.6" type="curve" smooth="yes"/>
			<point x="778" y="735.6"/>
			<point x="795.2" y="714.4"/>
			<point x="795.2" y="682.6" type="curve" smooth="yes"/>
			<point x="795.2" y="660"/>
			<point x="787.2" y="633"/>
			<point x="773.8" y="598.6" type="curve" smooth="yes"/>
			<point x="573.4" y="81" type="line" smooth="yes"/>
			<point x="542.6" y="1.4"/>
			<point x="561.4" y="-22"/>
			<point x="656.6" y="-22" type="curve" smooth="yes"/>
			<point x="760.2" y="-22"/>
			<point x="874.6" y="37.8"/>
			<point x="1019.6" y="213.4" type="curve"/>
			<point x="986.8" y="246.6" type="line"/>
			<point x="898.6" y="163.8"/>
			<point x="809" y="119"/>
			<point x="736.2" y="118.6" type="curve"/>
			<point x="745.2" y="71.4" type="line"/>
			<point x="938.8" y="575.4" type="line" smooth="yes"/>
			<point x="963.2" y="639.2"/>
			<point x="977" y="694.4"/>
			<point x="977" y="739" type="curve" smooth="yes"/>
			<point x="977" y="819.8"/>
			<point x="936.4" y="875.6"/>
			<point x="818.8" y="875.6" type="curve" smooth="yes"/>
			<point x="654" y="875.6"/>
			<point x="495.6" y="694.8"/>
			<point x="366.4" y="444.6" type="curve"/>
			<point x="372.8" y="439.6" type="line"/>
			<point x="498.6" y="857.6" type="line"/>
			<point x="453.6" y="870.2"/>
			<point x="414.8" y="877"/>
			<point x="368.2" y="877" type="curve" smooth="yes"/>
			<point x="246.6" y="877"/>
			<point x="132.6" y="809.8"/>
			<point x="49.8" y="585.6" type="curve"/>
		</contour>
	</outline>
	<anchor name="top" x="659.2" y="856"/>
	<anchor name="bottom" x="444" y="0"/>
</glyph>
<glyph name="o" format="2">
  <advance width="886"/>
  <unicode hex="006F"/>
  <anchor x="557.0" y="856.0" name="top"/>
  <anchor x="311.8" y="0.0" name="bottom"/>
  <anchor x="616.0" y="856.0" name="horn"/>
  <anchor x="332.8" y="0.0" name="right"/>
  <outline>
    <contour>
      <point x="545.0" y="878.0" type="curve" smooth="yes"/>
      <point x="271.8" y="878.0"/>
      <point x="58.2" y="598.4"/>
      <point x="58.2" y="284.0" type="curve" smooth="yes"/>
      <point x="58.2" y="92.8"/>
      <point x="163.0" y="-22.0"/>
      <point x="340.6" y="-22.0" type="curve" smooth="yes"/>
      <point x="613.8" y="-22.0"/>
      <point x="827.4" y="257.6"/>
      <point x="827.4" y="572.0" type="curve" smooth="yes"/>
      <point x="827.4" y="763.2"/>
      <point x="722.6" y="878.0"/>
    </contour>
    <contour>
      <point x="341.6" y="53.0" type="curve" smooth="yes"/>
      <point x="267.4" y="53.0"/>
      <point x="234.4" y="104.8"/>
      <point x="234.4" y="223.2" type="curve" smooth="yes"/>
      <point x="234.4" y="486.0"/>
      <point x="386.6" y="803.0"/>
      <point x="544.0" y="803.0" type="curve" smooth="yes"/>
      <point x="618.2" y="803.0"/>
      <point x="651.2" y="751.2"/>
      <point x="651.2" y="632.8" type="curve" smooth="yes"/>
      <point x="651.2" y="370.0"/>
      <point x="499.0" y="53.0"/>
    </contour>
  </outline>
</glyph>
<glyph name="p" format="2">
	<unicode hex="0070"/>
	<advance width="1008.4"/>
	<outline>
		<contour>
			<point x="344" y="291.6" type="curve" smooth="yes"/>
			<point x="362" y="363" type="line" smooth="yes"/>
			<point x="405.2" y="534"/>
			<point x="550.2" y="729.6"/>
			<point x="668.4" y="729.6" type="curve" smooth="yes"/>
			<point x="742" y="729.6"/>
			<point x="771.6" y="683"/>
			<point x="771.6" y="588.2" type="curve" smooth="yes"/>
			<point x="771.6" y="325"/>
			<point x="583.2" y="51"/>
			<point x="442.4" y="51" type="curve" smooth="yes"/>
			<point x="358.2" y="51"/>
			<point x="325.6" y="104.2"/>
			<point x="325.6" y="174.4" type="curve" smooth="yes"/>
			<point x="325.6" y="195.8"/>
			<point x="328.6" y="230.8"/>
		</contour>
		<contour>
			<point x="200.2" y="76.2" type="line"/>
			<point x="242" y="7.6"/>
			<point x="345" y="-22"/>
			<point x="441.6" y="-22" type="curve" smooth="yes"/>
			<point x="740.4" y="-22"/>
			<point x="964.8" y="311.6"/>
			<point x="964.8" y="638" type="curve" smooth="yes"/>
			<point x="964.8" y="769.4"/>
			<point x="894.6" y="878"/>
			<point x="753.2" y="878" type="curve" smooth="yes"/>
			<point x="634.8" y="878"/>
			<point x="503.8" y="770.6"/>
			<point x="378.6" y="522.4" type="curve"/>
			<point x="390.4" y="500.2" type="line"/>
			<point x="487.4" y="859.2" type="line"/>
			<point x="443.2" y="871"/>
			<point x="404.4" y="878.6"/>
			<point x="359.4" y="878.6" type="curve" smooth="yes"/>
			<point x="241" y="878.6"/>
			<point x="131" y="810.6"/>
			<point x="48.2" y="585.6" type="curve"/>
			<point x="88.8" y="569" type="line"/>
			<point x="160.4" y="703.8"/>
			<point x="219.2" y="735.6"/>
			<point x="293.8" y="735.6" type="curve" smooth="yes"/>
			<point x="296.4" y="735.6"/>
			<point x="299" y="735.6"/>
			<point x="301.6" y="735.6" type="curve"/>
			<point x="-21.4" y="-420" type="line"/>
			<point x="-165.2" y="-470.2" type="line"/>
			<point x="-179" y="-508" type="line"/>
			<point x="298.8" y="-508" type="line"/>
			<point x="312.8" y="-470" type="line"/>
			<point x="153.4" y="-420.2" type="line"/>
			<point x="292" y="76.2" type="line"/>
		</contour>
	</outline>
	<anchor name="top" x="622.8" y="856"/>
	<anchor name="bottom" x="51" y="-508"/>
</glyph>
<glyph name="q" format="2">
	<unicode hex="0071"/>
	<advance width="916.2"/>
	<outline>
		<contour>
			<point x="349" y="-419.4" type="line"/>
			<point x="163.6" y="-470" type="line"/>
			<point x="152" y="-508" type="line"/>
			<point x="632" y="-508" type="line"/>
			<point x="643.6" y="-470.2" type="line"/>
			<point x="523.8" y="-420" type="line"/>
			<point x="927.4" y="856" type="line"/>
			<point x="766.2" y="856" type="line"/>
			<point x="725" y="768.2" type="line"/>
			<point x="628.2" y="480.6" type="line" smooth="yes"/>
			<point x="557.4" y="268.6"/>
			<point x="368.2" y="119.2"/>
			<point x="283.6" y="119.2" type="curve" smooth="yes"/>
			<point x="237" y="119.2"/>
			<point x="206.4" y="143.2"/>
			<point x="206.4" y="198.2" type="curve" smooth="yes"/>
			<point x="206.4" y="361.6"/>
			<point x="391" y="777.8"/>
			<point x="611.6" y="777.8" type="curve" smooth="yes"/>
			<point x="670.6" y="777.8"/>
			<point x="707.2" y="745.6"/>
			<point x="718.8" y="711.4" type="curve"/>
			<point x="762.4" y="770.4" type="line"/>
			<point x="714.8" y="834.8"/>
			<point x="662.6" y="863.6"/>
			<point x="580.6" y="863.6" type="curve" smooth="yes"/>
			<point x="280.6" y="863.6"/>
			<point x="19.4" y="441"/>
			<point x="19.4" y="180.6" type="curve" smooth="yes"/>
			<point x="19.4" y="40.2"/>
			<point x="93.2" y="-19.6"/>
			<point x="205.6" y="-19.6" type="curve" smooth="yes"/>
			<point x="317" y="-19.6"/>
			<point x="432" y="65"/>
			<point x="636.4" y="378.2" type="curve"/>
			<point x="605.6" y="378.2" type="line"/>
		</contour>
	</outline>
	<anchor name="top" x="604.4" y="856"/>
	<anchor name="bottom" x="411.8" y="-508"/>
</glyph>
<glyph name="s" format="2">
  <advance width="671.2"/>
  <unicode hex="0073"/>
  <anchor x="439.6" y="856.0" name="top"/>
  <anchor x="234.4" y="0.0" name="bottom"/>
  <outline>
    <contour>
      <point x="91.8" y="208.6" type="curve" smooth="yes"/>
      <point x="36.8" y="208.6"/>
      <point x="-2.4000000000000004" y="169.4"/>
      <point x="-2.4000000000000004" y="118.8" type="curve" smooth="yes"/>
      <point x="-2.4000000000000004" y="45.6"/>
      <point x="67.6" y="-22.0"/>
      <point x="225.6" y="-22.0" type="curve" smooth="yes"/>
      <point x="410.6" y="-22.0"/>
      <point x="547.4" y="97.6"/>
      <point x="547.4" y="246.6" type="curve" smooth="yes"/>
      <point x="547.4" y="317.0"/>
      <point x="514.2" y="394.8"/>
      <point x="421.4" y="498.2" type="curve" smooth="yes"/>
      <point x="328.6" y="601.6"/>
      <point x="300.8" y="655.2"/>
      <point x="300.8" y="699.2" type="curve" smooth="yes"/>
      <point x="300.8" y="763.0"/>
      <point x="337.0" y="801.0"/>
      <point x="400.4" y="801.0" type="curve" smooth="yes"/>
      <point x="436.8" y="801.0"/>
      <point x="477.6" y="773.2"/>
      <point x="514.2" y="720.6" type="curve" smooth="yes"/>
      <point x="550.8" y="668.0"/>
      <point x="567.2" y="656.8"/>
      <point x="579.8" y="656.8" type="curve" smooth="yes"/>
      <point x="631.8" y="656.8"/>
      <point x="668.6" y="693.2"/>
      <point x="668.6" y="744.0" type="curve" smooth="yes"/>
      <point x="668.6" y="816.8"/>
      <point x="608.2" y="878.0"/>
      <point x="463.2" y="878.0" type="curve" smooth="yes"/>
      <point x="274.0" y="878.0"/>
      <point x="167.8" y="761.2"/>
      <point x="167.8" y="617.6" type="curve" smooth="yes"/>
      <point x="167.8" y="542.8"/>
      <point x="198.8" y="473.4"/>
      <point x="293.8" y="374.0" type="curve" smooth="yes"/>
      <point x="388.8" y="274.6"/>
      <point x="411.8" y="223.6"/>
      <point x="411.8" y="167.6" type="curve" smooth="yes"/>
      <point x="411.8" y="91.0"/>
      <point x="356.2" y="50.0"/>
      <point x="280.4" y="50.0" type="curve" smooth="yes"/>
      <point x="241.6" y="50.0"/>
      <point x="203.8" y="70.0"/>
      <point x="162.6" y="131.4" type="curve" smooth="yes"/>
      <point x="121.4" y="192.8"/>
      <point x="108.6" y="208.6"/>
    </contour>
  </outline>
</glyph>
<glyph name="t" format="2">
	<unicode hex="0074"/>
	<advance width="632.2"/>
	<outline>
		<contour>
			<point x="119.4" y="770.2" type="line"/>
			<point x="661.6" y="770.2" type="line"/>
			<point x="678.6" y="856" type="line"/>
			<point x="137.8" y="856" type="line"/>
		</contour>
		<contour>
			<point x="311.8" y="254.2" type="curve" smooth="yes"/>
			<point x="543" y="1042.8" type="line"/>
			<point x="367.2" y="1042.8" type="line"/>
			<point x="145.8" y="269.6" type="line" smooth="yes"/>
			<point x="125.2" y="199.6"/>
			<point x="116.2" y="144"/>
			<point x="116.2" y="104.6" type="curve" smooth="yes"/>
			<point x="116.2" y="11.2"/>
			<point x="159" y="-20.4"/>
			<point x="223.2" y="-20.4" type="curve" smooth="yes"/>
			<point x="329" y="-20.4"/>
			<point x="452.8" y="92.8"/>
			<point x="580" y="290.6" type="curve"/>
			<point x="537.2" y="319.8" type="line"/>
			<point x="446" y="200"/>
			<point x="356.6" y="129"/>
			<point x="316.6" y="129" type="curve" smooth="yes"/>
			<point x="301.2" y="129"/>
			<point x="292.2" y="138.8"/>
			<point x="292.2" y="162" type="curve" smooth="yes"/>
			<point x="292.2" y="179.8"/>
			<point x="296" y="204.2"/>
		</contour>
	</outline>
	<anchor name="bottom" x="248.4" y="0"/>
	<anchor name="right" x="615" y="1334.2"/>
</glyph>
<glyph name="u" format="2">
  <advance width="1012"/>
  <unicode hex="0075"/>
  <anchor x="590.0" y="856.0" name="top"/>
  <anchor x="771.0" y="0.0" name="right"/>
  <anchor x="408.8" y="0.0" name="bottom"/>
  <anchor x="836.6" y="856.0" name="horn"/>
  <outline>
    <contour>
      <point x="561.0" y="46.6" type="line" smooth="yes"/>
      <point x="547.2" y="-1.2"/>
      <point x="571.8" y="-22.0"/>
      <point x="652.0" y="-22.0" type="curve" smooth="yes"/>
      <point x="748.6" y="-22.0"/>
      <point x="864.0" y="40.0"/>
      <point x="1004.0" y="213.6" type="curve"/>
      <point x="972.4" y="247.2" type="line"/>
      <point x="880.4" y="159.2"/>
      <point x="782.6" y="114.6"/>
      <point x="712.4" y="119.6" type="curve"/>
      <point x="721.8" y="78.6" type="line"/>
      <point x="957.4" y="856.0" type="line"/>
      <point x="783.8" y="856.0" type="line"/>
      <point x="704.4" y="596.4" type="line" smooth="yes"/>
      <point x="618.8" y="316.2"/>
      <point x="445.4" y="121.2"/>
      <point x="342.4" y="121.2" type="curve" smooth="yes"/>
      <point x="301.8" y="121.2"/>
      <point x="284.2" y="138.6"/>
      <point x="284.2" y="168.6" type="curve" smooth="yes"/>
      <point x="284.2" y="188.0"/>
      <point x="291.0" y="211.6"/>
      <point x="303.2" y="246.2" type="curve" smooth="yes"/>
      <point x="509.4" y="805.4" type="line" smooth="yes"/>
      <point x="526.8" y="853.2"/>
      <point x="496.6" y="878.0"/>
      <point x="426.2" y="878.0" type="curve" smooth="yes"/>
      <point x="316.6" y="878.0"/>
      <point x="198.8" y="814.4"/>
      <point x="57.8" y="621.8" type="curve"/>
      <point x="93.4" y="589.8" type="line"/>
      <point x="184.8" y="686.8"/>
      <point x="284.0" y="738.0"/>
      <point x="362.8" y="735.0" type="curve"/>
      <point x="329.4" y="784.6" type="line"/>
      <point x="143.6" y="282.2" type="line" smooth="yes"/>
      <point x="115.6" y="207.0"/>
      <point x="101.4" y="148.8"/>
      <point x="101.4" y="104.2" type="curve" smooth="yes"/>
      <point x="101.4" y="27.4"/>
      <point x="144.0" y="-22.0"/>
      <point x="246.2" y="-22.0" type="curve" smooth="yes"/>
      <point x="380.4" y="-22.0"/>
      <point x="496.8" y="64.4"/>
      <point x="684.2" y="410.0" type="curve"/>
      <point x="672.2" y="415.6" type="line"/>
    </contour>
  </outline>
</glyph>
<glyph name="v" format="2">
  <advance width="926"/>
  <unicode hex="0076"/>
  <anchor x="579.2" y="856.0" name="top"/>
  <anchor x="358.4" y="0.0" name="bottom"/>
  <outline>
    <contour>
      <point x="895.6" y="727.2" type="curve" smooth="yes"/>
      <point x="895.6" y="825.8"/>
      <point x="850.8" y="878.0"/>
      <point x="775.2" y="878.0" type="curve" smooth="yes"/>
      <point x="715.8" y="878.0"/>
      <point x="657.8" y="837.0"/>
      <point x="657.8" y="764.2" type="curve" smooth="yes"/>
      <point x="657.8" y="727.8"/>
      <point x="766.6" y="670.2"/>
      <point x="766.6" y="573.4" type="curve" smooth="yes"/>
      <point x="766.6" y="409.0"/>
      <point x="572.0" y="99.6"/>
      <point x="396.4" y="99.6" type="curve" smooth="yes"/>
      <point x="343.0" y="99.6"/>
      <point x="310.8" y="126.4"/>
      <point x="310.8" y="182.0" type="curve" smooth="yes"/>
      <point x="310.8" y="202.8"/>
      <point x="316.0" y="227.8"/>
      <point x="325.6" y="257.0" type="curve" smooth="yes"/>
      <point x="527.4" y="857.6" type="line"/>
      <point x="487.6" y="869.4"/>
      <point x="443.4" y="876.6"/>
      <point x="392.4" y="876.6" type="curve" smooth="yes"/>
      <point x="256.6" y="876.6"/>
      <point x="142.2" y="808.2"/>
      <point x="54.2" y="586.8" type="curve"/>
      <point x="95.4" y="569.0" type="line"/>
      <point x="167.8" y="702.2"/>
      <point x="225.6" y="735.6"/>
      <point x="298.4" y="735.6" type="curve" smooth="yes"/>
      <point x="303.4" y="735.6"/>
      <point x="308.4" y="735.6"/>
      <point x="313.4" y="735.6" type="curve"/>
      <point x="143.0" y="232.6" type="line" smooth="yes"/>
      <point x="132.0" y="199.8"/>
      <point x="126.6" y="168.6"/>
      <point x="126.6" y="140.8" type="curve" smooth="yes"/>
      <point x="126.6" y="40.4"/>
      <point x="196.4" y="-22.0"/>
      <point x="312.2" y="-22.0" type="curve" smooth="yes"/>
      <point x="616.4" y="-22.0"/>
      <point x="895.6" y="424.8"/>
    </contour>
  </outline>
</glyph>
<glyph name="w" format="2">
	<unicode hex="0077"/>
	<advance width="1319.4"/>
	<outline>
		<contour>
			<point x="755.4" y="856" type="line"/>
			<point x="639.4" y="454.4" type="line" smooth="yes"/>
			<point x="582" y="255.2"/>
			<point x="474.4" y="101.4"/>
			<point x="378.2" y="101.4" type="curve" smooth="yes"/>
			<point x="333.4" y="101.4"/>
			<point x="307.4" y="123.4"/>
			<point x="307.4" y="170.6" type="curve" smooth="yes"/>
			<point x="307.4" y="190.8"/>
			<point x="312.2" y="217"/>
			<point x="322.4" y="249" type="curve" smooth="yes"/>
			<point x="526.6" y="857.6" type="line"/>
			<point x="488.8" y="869.2"/>
			<point x="444.6" y="876.6"/>
			<point x="391.6" y="876.6" type="curve" smooth="yes"/>
			<point x="255.8" y="876.6"/>
			<point x="141.4" y="808.2"/>
			<point x="53.4" y="586.8" type="curve"/>
			<point x="94.6" y="569" type="line"/>
			<point x="167" y="702.2"/>
			<point x="224.8" y="735.6"/>
			<point x="297.6" y="735.6" type="curve" smooth="yes"/>
			<point x="302.6" y="735.6"/>
			<point x="307.6" y="735.6"/>
			<point x="312.6" y="735.6" type="curve"/>
			<point x="150.2" y="255" type="line" smooth="yes"/>
			<point x="136" y="211.6"/>
			<point x="128.8" y="172.4"/>
			<point x="128.8" y="138.2" type="curve" smooth="yes"/>
			<point x="128.8" y="35.6"/>
			<point x="191.2" y="-22"/>
			<point x="290.6" y="-22" type="curve" smooth="yes"/>
			<point x="406.4" y="-22"/>
			<point x="547.2" y="70.6"/>
			<point x="647.2" y="334" type="curve"/>
			<point x="625.2" y="336.6" type="line"/>
			<point x="598" y="240.6" type="line" smooth="yes"/>
			<point x="584.2" y="190.4"/>
			<point x="577.6" y="148"/>
			<point x="577.6" y="114" type="curve" smooth="yes"/>
			<point x="577.6" y="14.8"/>
			<point x="632.6" y="-22"/>
			<point x="731.2" y="-22" type="curve" smooth="yes"/>
			<point x="1018" y="-22"/>
			<point x="1283.8" y="424.8"/>
			<point x="1283.8" y="727.2" type="curve" smooth="yes"/>
			<point x="1283.8" y="825.8"/>
			<point x="1238.8" y="878"/>
			<point x="1164" y="878" type="curve" smooth="yes"/>
			<point x="1105.2" y="878"/>
			<point x="1046" y="837"/>
			<point x="1046" y="764.2" type="curve" smooth="yes"/>
			<point x="1046" y="727.8"/>
			<point x="1155.6" y="670.2"/>
			<point x="1155.6" y="573.4" type="curve" smooth="yes"/>
			<point x="1155.6" y="409"/>
			<point x="974.4" y="99.6"/>
			<point x="812.8" y="99.6" type="curve" smooth="yes"/>
			<point x="764.6" y="99.6"/>
			<point x="738.2" y="119.8"/>
			<point x="738.2" y="170.8" type="curve" smooth="yes"/>
			<point x="738.2" y="191.6"/>
			<point x="742.6" y="217.2"/>
			<point x="751.4" y="249" type="curve" smooth="yes"/>
			<point x="925" y="856" type="line"/>
		</contour>
	</outline>
	<anchor name="top" x="805.8" y="856"/>
	<anchor name="bottom" x="576.6" y="0"/>
</glyph>
<glyph name="y" format="2">
	<unicode hex="0079"/>
	<advance width="928"/>
	<outline>
		<contour>
			<point x="105.2" y="503" type="line"/>
			<point x="141" y="671.8"/>
			<point x="186.4" y="720.8"/>
			<point x="231.2" y="720.8" type="curve" smooth="yes"/>
			<point x="251.8" y="720.8"/>
			<point x="258.6" y="706.6"/>
			<point x="284.6" y="562" type="curve" smooth="yes"/>
			<point x="310.6" y="417.2"/>
			<point x="339" y="221.2"/>
			<point x="391" y="-195" type="curve"/>
			<point x="539.4" y="-50" type="line"/>
			<point x="484.8" y="397.6"/>
			<point x="452.4" y="630.2"/>
			<point x="425.2" y="739.6" type="curve" smooth="yes"/>
			<point x="398" y="849"/>
			<point x="369.4" y="878"/>
			<point x="317.4" y="878" type="curve" smooth="yes"/>
			<point x="182" y="878"/>
			<point x="98" y="785.8"/>
			<point x="56.8" y="503" type="curve"/>
		</contour>
		<contour>
			<point x="447.6" y="-62.4" type="line"/>
			<point x="327.8" y="-270"/>
			<point x="183.8" y="-400.6"/>
			<point x="107.2" y="-400.6" type="curve" smooth="yes"/>
			<point x="77" y="-400.6"/>
			<point x="46" y="-388"/>
			<point x="8.8" y="-348.6" type="curve" smooth="yes"/>
			<point x="-28.4" y="-309.2"/>
			<point x="-39.6" y="-300.4"/>
			<point x="-52.6" y="-300.4" type="curve" smooth="yes"/>
			<point x="-104.4" y="-300.4"/>
			<point x="-145.8" y="-343.4"/>
			<point x="-145.8" y="-403.8" type="curve" smooth="yes"/>
			<point x="-145.8" y="-479"/>
			<point x="-102.4" y="-530"/>
			<point x="3.4" y="-530" type="curve" smooth="yes"/>
			<point x="176.6" y="-530"/>
			<point x="341.6" y="-401.8"/>
			<point x="588.6" y="-1.4" type="curve" smooth="yes"/>
			<point x="835.6" y="399"/>
			<point x="922.8" y="655.8"/>
			<point x="922.8" y="828.8" type="curve" smooth="yes"/>
			<point x="922.8" y="862"/>
			<point x="904.8" y="876"/>
			<point x="869.6" y="876" type="curve" smooth="yes"/>
			<point x="831.8" y="876"/>
			<point x="788.8" y="871"/>
			<point x="746.6" y="857.8" type="curve"/>
			<point x="749.2" y="492.4"/>
			<point x="689.6" y="282"/>
			<point x="482.2" y="-35.8" type="curve"/>
		</contour>
	</outline>
	<anchor name="top" x="534.8" y="856"/>
	<anchor name="bottom" x="706.4" y="-150.4"/>
</glyph>
<glyph name="z" format="2">
	<unicode hex="007A"/>
	<advance width="811"/>
	<outline>
		<contour>
			<point x="-19.8" y="25.8" type="line"/>
			<point x="40.2" y="-20" type="line"/>
			<point x="855.6" y="844.4" type="line"/>
			<point x="800.4" y="896.2" type="line"/>
		</contour>
		<contour>
			<point x="129.6" y="564" type="line"/>
			<point x="223.2" y="709.2"/>
			<point x="254.8" y="722"/>
			<point x="389.6" y="685.6" type="curve" smooth="yes"/>
			<point x="617.6" y="623.6" type="line"/>
			<point x="743.2" y="769.4" type="line"/>
			<point x="422.2" y="855" type="line" smooth="yes"/>
			<point x="276.8" y="893.4"/>
			<point x="198.2" y="851.2"/>
			<point x="86" y="583" type="curve"/>
		</contour>
		<contour>
			<point x="416.6" y="-0.6" type="line" smooth="yes"/>
			<point x="523.8" y="-49"/>
			<point x="584.6" y="-32.4"/>
			<point x="764" y="238" type="curve"/>
			<point x="725.6" y="267" type="line"/>
			<point x="604.8" y="122.6"/>
			<point x="570.6" y="112"/>
			<point x="464.4" y="165.8" type="curve" smooth="yes"/>
			<point x="271.4" y="263.2" type="line"/>
			<point x="139" y="123.4" type="line"/>
		</contour>
	</outline>
	<anchor name="top" x="488.6" y="856"/>
	<anchor name="bottom" x="338.2" y="0"/>
</glyph>
<glyph name="bar" format="2">
  <advance width="475"/>
  <unicode hex="007C"/>
  <outline>
    <contour>
      <point x="-98.8" y="-530.0" type="line"/>
      <point x="10.2" y="-530.0" type="line"/>
      <point x="598.2" y="1470.0" type="line"/>
      <point x="489.2" y="1470.0" type="line"/>
    </contour>
  </outline>
</glyph>
<glyph name="braceright" format="2">
  <advance width="603"/>
  <unicode hex="007D"/>
  <outline>
    <contour>
      <point x="624.0" y="607.0" type="line"/>
      <point x="542.8" y="610.0" type="line" smooth="yes"/>
      <point x="475.4" y="612.2"/>
      <point x="440.8" y="637.6"/>
      <point x="440.8" y="690.8" type="curve" smooth="yes"/>
      <point x="440.8" y="797.2"/>
      <point x="591.4" y="1061.2"/>
      <point x="591.4" y="1187.6" type="curve" smooth="yes"/>
      <point x="591.4" y="1294.0"/>
      <point x="525.6" y="1384.2"/>
      <point x="404.2" y="1405.2" type="curve" smooth="yes"/>
      <point x="353.2" y="1413.8" type="line"/>
      <point x="329.4" y="1360.6" type="line"/>
      <point x="360.6" y="1352.8" type="line" smooth="yes"/>
      <point x="425.0" y="1336.0"/>
      <point x="450.0" y="1289.8"/>
      <point x="450.0" y="1227.8" type="curve" smooth="yes"/>
      <point x="450.0" y="1109.4"/>
      <point x="321.4" y="840.0"/>
      <point x="321.4" y="727.2" type="curve" smooth="yes"/>
      <point x="321.4" y="654.4"/>
      <point x="359.0" y="591.8"/>
      <point x="449.2" y="564.0" type="curve"/>
      <point x="454.8" y="582.4" type="line"/>
      <point x="322.0" y="548.8"/>
      <point x="240.2" y="453.2"/>
      <point x="212.6" y="355.8" type="curve" smooth="yes"/>
      <point x="175.6" y="218.4"/>
      <point x="167.6" y="95.6"/>
      <point x="138.2" y="-11.4" type="curve" smooth="yes"/>
      <point x="110.2" y="-113.6"/>
      <point x="59.599999999999994" y="-189.8"/>
      <point x="-65.6" y="-199.8" type="curve" smooth="yes"/>
      <point x="-149.4" y="-206.8" type="line"/>
      <point x="-162.6" y="-273.8" type="line"/>
      <point x="-55.2" y="-266.0" type="line" smooth="yes"/>
      <point x="145.4" y="-251.2"/>
      <point x="265.6" y="-129.2"/>
      <point x="304.6" y="13.6" type="curve" smooth="yes"/>
      <point x="337.4" y="134.0"/>
      <point x="323.4" y="255.6"/>
      <point x="363.0" y="404.0" type="curve" smooth="yes"/>
      <point x="386.8" y="488.4"/>
      <point x="432.6" y="526.6"/>
      <point x="521.8" y="530.0" type="curve" smooth="yes"/>
      <point x="601.8" y="533.0" type="line"/>
    </contour>
  </outline>
</glyph>
<glyph name="asciitilde" format="2">
	<unicode hex="007E"/>
	<advance width="1000"/>
	<outline>
		<contour>
			<point x="900.2" y="543" type="curve"/>
			<point x="800.6" y="543" type="line"/>
			<point x="769" y="454.8"/>
			<point x="729" y="417"/>
			<point x="662.2" y="417" type="curve" smooth="yes"/>
			<point x="546.4" y="417"/>
			<point x="497.2" y="550"/>
			<point x="358.6" y="550" type="curve" smooth="yes"/>
			<point x="250.4" y="550"/>
			<point x="157.6" y="497.8"/>
			<point x="104.6" y="329" type="curve"/>
			<point x="204.2" y="329" type="line"/>
			<point x="235.8" y="417.2"/>
			<point x="275.8" y="455"/>
			<point x="342.6" y="455" type="curve" smooth="yes"/>
			<point x="458.4" y="455"/>
			<point x="507.6" y="322"/>
			<point x="647" y="322" type="curve" smooth="yes"/>
			<point x="754.4" y="322"/>
			<point x="847.2" y="374.2"/>
		</contour>
	</outline>
</glyph>
<glyph name="exclamdown" format="2">
  <advance width="483.2"/>
  <unicode hex="00A1"/>
  <outline>
    <contour>
      <point x="-131.4" y="-447.8" type="line" smooth="yes"/>
      <point x="-145.6" y="-491.8"/>
      <point x="-105.6" y="-505.6"/>
      <point x="-39.2" y="-505.6" type="curve" smooth="yes"/>
      <point x="25.8" y="-505.6"/>
      <point x="65.2" y="-492.6"/>
      <point x="77.80000000000001" y="-450.2" type="curve" smooth="yes"/>
      <point x="116.2" y="-313.6" type="line" smooth="yes"/>
      <point x="152.2" y="-190.2"/>
      <point x="190.6" y="52.4"/>
      <point x="272.4" y="433.6" type="curve"/>
      <point x="213.0" y="433.6" type="line"/>
      <point x="61.8" y="52.4"/>
      <point x="-47.400000000000006" y="-190.2"/>
      <point x="-87.4" y="-313.6" type="curve" smooth="yes"/>
    </contour>
    <contour>
      <point x="317.6" y="601.8" type="curve" smooth="yes"/>
      <point x="406.2" y="601.8"/>
      <point x="471.4" y="671.2"/>
      <point x="471.4" y="755.4" type="curve" smooth="yes"/>
      <point x="471.4" y="818.0"/>
      <point x="426.2" y="866.8"/>
      <point x="354.6" y="866.8" type="curve" smooth="yes"/>
      <point x="266.0" y="866.8"/>
      <point x="200.8" y="797.4"/>
      <point x="200.8" y="713.2" type="curve" smooth="yes"/>
      <point x="200.8" y="650.6"/>
      <point x="246.0" y="601.8"/>
    </contour>
  </outline>
</glyph>
<glyph name="currency" format="2">
	<unicode hex="00A4"/>
	<advance width="845.2"/>
	<outline>
		<contour>
			<point x="190.4" y="702.6" type="line"/>
			<point x="271.2" y="580.4" type="line"/>
			<point x="348" y="639.6" type="line"/>
			<point x="267.2" y="759.6" type="line"/>
		</contour>
		<contour>
			<point x="708.4" y="739.4" type="line"/>
			<point x="589.2" y="637" type="line"/>
			<point x="642.8" y="569.4" type="line"/>
			<point x="762.6" y="671.2" type="line"/>
		</contour>
		<contour>
			<point x="659.2" y="169.4" type="line"/>
			<point x="578.4" y="291.6" type="line"/>
			<point x="501.6" y="232.4" type="line"/>
			<point x="582.4" y="112.4" type="line"/>
		</contour>
		<contour>
			<point x="87" y="200.8" type="line"/>
			<point x="141.2" y="132.6" type="line"/>
			<point x="260.4" y="235" type="line"/>
			<point x="206.8" y="302.6" type="line"/>
		</contour>
		<contour>
			<point x="472.6" y="709" type="curve" smooth="yes"/>
			<point x="271.4" y="709"/>
			<point x="143.4" y="554.6"/>
			<point x="143.4" y="388" type="curve" smooth="yes"/>
			<point x="143.4" y="258.8"/>
			<point x="239.2" y="163"/>
			<point x="377" y="163" type="curve" smooth="yes"/>
			<point x="578.2" y="163"/>
			<point x="706.2" y="317.4"/>
			<point x="706.2" y="484" type="curve" smooth="yes"/>
			<point x="706.2" y="613.2"/>
			<point x="610.4" y="709"/>
		</contour>
		<contour>
			<point x="387.4" y="251.4" type="curve" smooth="yes"/>
			<point x="293.8" y="251.4"/>
			<point x="239" y="311.2"/>
			<point x="239" y="399.8" type="curve" smooth="yes"/>
			<point x="239" y="517.8"/>
			<point x="324.2" y="620.6"/>
			<point x="462.2" y="620.6" type="curve" smooth="yes"/>
			<point x="555.8" y="620.6"/>
			<point x="610.6" y="560.8"/>
			<point x="610.6" y="472.2" type="curve" smooth="yes"/>
			<point x="610.6" y="354.2"/>
			<point x="525.4" y="251.4"/>
		</contour>
	</outline>
</glyph>
<glyph name="brokenbar" format="2">
	<unicode hex="00A6"/>
	<advance width="475"/>
	<outline>
		<contour>
			<point x="364.8" y="673" type="line"/>
			<point x="599" y="1470" type="line"/>
			<point x="490" y="1470" type="line"/>
			<point x="255.8" y="673" type="line"/>
		</contour>
		<contour>
			<point x="-98" y="-530" type="line"/>
			<point x="11" y="-530" type="line"/>
			<point x="252.8" y="293" type="line"/>
			<point x="143.8" y="293" type="line"/>
		</contour>
	</outline>
</glyph>
<glyph name="section" format="2">
	<unicode hex="00A7"/>
	<advance width="1008"/>
	<outline>
		<contour>
			<point x="546.2" y="793.4" type="curve"/>
			<point x="512.8" y="853.6" type="line"/>
			<point x="240.2" y="810"/>
			<point x="113.2" y="671.2"/>
			<point x="113.2" y="499.4" type="curve" smooth="yes"/>
			<point x="113.2" y="194.6"/>
			<point x="546.8" y="210.4"/>
			<point x="546.8" y="-15.6" type="curve" smooth="yes"/>
			<point x="546.8" y="-111.2"/>
			<point x="474.6" y="-198"/>
			<point x="352.2" y="-198" type="curve" smooth="yes"/>
			<point x="146.4" y="-198"/>
			<point x="173.4" y="-28.4"/>
			<point x="66.2" y="-28.4" type="curve" smooth="yes"/>
			<point x="18" y="-28.4"/>
			<point x="-20.4" y="-64.2"/>
			<point x="-20.4" y="-123" type="curve" smooth="yes"/>
			<point x="-20.4" y="-214.8"/>
			<point x="98.2" y="-277"/>
			<point x="290.6" y="-277" type="curve" smooth="yes"/>
			<point x="560" y="-277"/>
			<point x="707.8" y="-125"/>
			<point x="707.8" y="65.4" type="curve" smooth="yes"/>
			<point x="707.8" y="366.8"/>
			<point x="273" y="350.8"/>
			<point x="273" y="574.4" type="curve" smooth="yes"/>
			<point x="273" y="679.2"/>
			<point x="351" y="775.6"/>
		</contour>
		<contour>
			<point x="801.8" y="539.4" type="curve" smooth="yes"/>
			<point x="801.8" y="418.6"/>
			<point x="707.8" y="327.8"/>
			<point x="532.6" y="311.6" type="curve"/>
			<point x="566" y="250.6" type="line"/>
			<point x="829.8" y="282.2"/>
			<point x="967.2" y="417"/>
			<point x="967.2" y="599.2" type="curve" smooth="yes"/>
			<point x="967.2" y="893.6"/>
			<point x="527.2" y="880.2"/>
			<point x="527.2" y="1105.4" type="curve" smooth="yes"/>
			<point x="527.2" y="1198.6"/>
			<point x="598.6" y="1280.6"/>
			<point x="740.2" y="1280.6" type="curve" smooth="yes"/>
			<point x="917.2" y="1280.6"/>
			<point x="887" y="1109.4"/>
			<point x="1001.4" y="1109.4" type="curve" smooth="yes"/>
			<point x="1052" y="1109.4"/>
			<point x="1094.4" y="1148.4"/>
			<point x="1094.4" y="1201.6" type="curve" smooth="yes"/>
			<point x="1094.4" y="1276.6"/>
			<point x="1007" y="1362"/>
			<point x="791.4" y="1362" type="curve" smooth="yes"/>
			<point x="502" y="1362"/>
			<point x="371" y="1212.4"/>
			<point x="371" y="1035.6" type="curve" smooth="yes"/>
			<point x="371" y="738.2"/>
			<point x="801.8" y="753.4"/>
		</contour>
	</outline>
</glyph>
<glyph name="copyright" format="2">
  <advance width="1655"/>
  <unicode hex="00A9"/>
  <outline>
    <contour>
      <point x="898.4" y="351.0" type="curve" smooth="yes"/>
      <point x="748.4" y="351.0"/>
      <point x="678.8" y="439.0"/>
      <point x="678.8" y="588.4" type="curve" smooth="yes"/>
      <point x="678.8" y="792.8"/>
      <point x="786.8" y="997.4"/>
      <point x="1013.0" y="997.4" type="curve" smooth="yes"/>
      <point x="1076.0" y="997.4"/>
      <point x="1142.4" y="981.6"/>
      <point x="1180.6" y="952.6" type="curve"/>
      <point x="1136.2" y="995.4" type="line"/>
      <point x="1191.6" y="792.8" type="line"/>
      <point x="1226.6" y="795.4" type="line"/>
      <point x="1275.4" y="1092.6" type="line"/>
      <point x="1260.0" y="1092.6" type="line"/>
      <point x="1159.0" y="1038.2" type="line"/>
      <point x="1209.6" y="1045.2" type="line"/>
      <point x="1159.0" y="1057.4"/>
      <point x="1084.6" y="1065.0"/>
      <point x="1026.6" y="1065.0" type="curve" smooth="yes"/>
      <point x="702.2" y="1065.0"/>
      <point x="509.6" y="849.6"/>
      <point x="509.6" y="603.2" type="curve" smooth="yes"/>
      <point x="509.6" y="410.2"/>
      <point x="642.4" y="286.6"/>
      <point x="874.6" y="286.6" type="curve" smooth="yes"/>
      <point x="953.6" y="286.6"/>
      <point x="1002.4" y="297.2"/>
      <point x="1076.6" y="319.8" type="curve"/>
      <point x="1179.2" y="541.4" type="line"/>
      <point x="1138.0" y="541.4" type="line"/>
      <point x="963.8" y="341.4" type="line"/>
      <point x="1040.0" y="386.2" type="line"/>
      <point x="976.2" y="356.2"/>
      <point x="951.4" y="351.0"/>
    </contour>
    <contour>
      <point x="827.4" y="68.0" type="curve" smooth="yes"/>
      <point x="505.0" y="68.0"/>
      <point x="294.2" y="273.8"/>
      <point x="294.2" y="577.6" type="curve" smooth="yes"/>
      <point x="294.2" y="943.6"/>
      <point x="576.8" y="1272.0"/>
      <point x="974.6" y="1272.0" type="curve" smooth="yes"/>
      <point x="1297.0" y="1272.0"/>
      <point x="1507.8" y="1066.2"/>
      <point x="1507.8" y="762.4" type="curve" smooth="yes"/>
      <point x="1507.8" y="396.2"/>
      <point x="1225.2" y="68.0"/>
    </contour>
    <contour>
      <point x="979.0" y="1362.0" type="curve" smooth="yes"/>
      <point x="516.0" y="1362.0"/>
      <point x="189.4" y="990.2"/>
      <point x="189.4" y="565.6" type="curve" smooth="yes"/>
      <point x="189.4" y="209.4"/>
      <point x="442.0" y="-22.0"/>
      <point x="822.2" y="-22.0" type="curve" smooth="yes"/>
      <point x="1286.0" y="-22.0"/>
      <point x="1612.6" y="349.6"/>
      <point x="1612.6" y="774.4" type="curve" smooth="yes"/>
      <point x="1612.6" y="1130.6"/>
      <point x="1360.0" y="1362.0"/>
    </contour>
  </outline>
</glyph>
<glyph name="ordfeminine" format="2">
	<unicode hex="00AA"/>
	<advance width="894.2"/>
	<outline>
		<contour>
			<point x="159.8" y="459.8" type="line"/>
			<point x="764.4" y="459.8" type="line"/>
			<point x="794.2" y="557.4" type="line"/>
			<point x="190.2" y="557.4" type="line"/>
		</contour>
		<contour>
			<point x="613.2" y="738.8" type="line" smooth="yes"/>
			<point x="598.4" y="693.4"/>
			<point x="623.2" y="670"/>
			<point x="681.6" y="670" type="curve" smooth="yes"/>
			<point x="755.983090379" y="670"/>
			<point x="826.8" y="695.8"/>
			<point x="948.6" y="815.4" type="curve"/>
			<point x="925" y="849.4" type="line"/>
			<point x="841" y="789.6"/>
			<point x="781" y="774.4"/>
			<point x="728.6" y="779.8" type="curve"/>
			<point x="756.8" y="740.6" type="line"/>
			<point x="947.6" y="1340" type="line"/>
			<point x="897.2" y="1340" type="line"/>
			<point x="787.4" y="1323.4" type="line"/>
			<point x="695.8" y="1052" type="line" smooth="yes"/>
			<point x="640.793424749" y="887.0849800638"/>
			<point x="514.3942857143" y="783.4"/>
			<point x="451.6" y="783.4" type="curve" smooth="yes"/>
			<point x="416.6" y="783.4"/>
			<point x="401.6" y="802"/>
			<point x="401.6" y="844.4" type="curve" smooth="yes"/>
			<point x="401.6" y="968.7664921466"/>
			<point x="525.6833333333" y="1270"/>
			<point x="684.4" y="1270" type="curve" smooth="yes"/>
			<point x="727.8" y="1270"/>
			<point x="749.8" y="1241.4"/>
			<point x="763" y="1202.8" type="curve"/>
			<point x="799.6" y="1260.4" type="line"/>
			<point x="773.4" y="1308.2"/>
			<point x="735.8" y="1346.4"/>
			<point x="664.8" y="1346.4" type="curve" smooth="yes"/>
			<point x="444.8" y="1346.4"/>
			<point x="244.2" y="1025.4"/>
			<point x="244.2" y="825.2" type="curve" smooth="yes"/>
			<point x="244.2" y="717.2"/>
			<point x="306" y="671.6"/>
			<point x="390.2" y="671.6" type="curve" smooth="yes"/>
			<point x="474.8" y="671.6"/>
			<point x="562" y="734.6"/>
			<point x="716.4" y="974.6" type="curve"/>
			<point x="688.4" y="974.6" type="line"/>
		</contour>
	</outline>
</glyph>
<glyph name="logicalnot" format="2">
	<unicode hex="00AC"/>
	<advance width="1000"/>
	<outline>
		<contour>
			<point x="197.8" y="654" type="line"/>
			<point x="168.2" y="558" type="line"/>
			<point x="793.8" y="558" type="line"/>
			<point x="689.8" y="218" type="line"/>
			<point x="790.2" y="218" type="line"/>
			<point x="923.8" y="654" type="line"/>
		</contour>
	</outline>
</glyph>
<glyph name="registered" format="2">
  <advance width="1104.4"/>
  <unicode hex="00AE"/>
  <outline>
    <contour>
      <point x="885.0" y="749.4" type="line"/>
      <point x="856.8" y="749.4"/>
      <point x="849.8" y="755.2"/>
      <point x="846.4" y="798.2" type="curve" smooth="yes"/>
      <point x="841.0" y="866.0" type="line" smooth="yes"/>
      <point x="837.2" y="923.6"/>
      <point x="812.0" y="942.8"/>
      <point x="755.4" y="945.0" type="curve"/>
      <point x="755.4" y="937.6" type="line"/>
      <point x="873.4" y="945.8"/>
      <point x="926.2" y="990.6"/>
      <point x="926.2" y="1070.4" type="curve" smooth="yes"/>
      <point x="926.2" y="1123.0"/>
      <point x="891.2" y="1166.0"/>
      <point x="792.8" y="1166.0" type="curve" smooth="yes"/>
      <point x="649.6" y="1166.0" type="line"/>
      <point x="641.6" y="1116.4" type="line"/>
      <point x="756.6" y="1116.4" type="line" smooth="yes"/>
      <point x="804.4" y="1116.4"/>
      <point x="822.2" y="1097.6"/>
      <point x="822.2" y="1065.0" type="curve" smooth="yes"/>
      <point x="822.2" y="1004.0"/>
      <point x="784.6" y="964.6"/>
      <point x="725.8" y="964.6" type="curve" smooth="yes"/>
      <point x="599.0" y="964.6" type="line"/>
      <point x="578.8" y="912.8" type="line"/>
      <point x="697.4" y="912.8" type="line" smooth="yes"/>
      <point x="733.0" y="912.8"/>
      <point x="741.0" y="901.6"/>
      <point x="744.4" y="855.6" type="curve" smooth="yes"/>
      <point x="749.0" y="784.8" type="line" smooth="yes"/>
      <point x="752.0275862068966" y="717.7241379310345"/>
      <point x="769.1333333333333" y="709.1333333333333"/>
      <point x="874.2" y="717.2" type="curve"/>
    </contour>
    <contour>
      <point x="722.6" y="1166.0" type="line"/>
      <point x="570.8" y="1166.0" type="line"/>
      <point x="562.4" y="1138.8" type="line"/>
      <point x="609.4" y="1120.4" type="line"/>
      <point x="500.4" y="764.6" type="line"/>
      <point x="443.0" y="746.2" type="line"/>
      <point x="433.8" y="717.0" type="line"/>
      <point x="636.0" y="717.0" type="line"/>
      <point x="645.2" y="746.2" type="line"/>
      <point x="600.0" y="764.6" type="line"/>
    </contour>
    <contour>
      <point x="659.6" y="575.2" type="curve" smooth="yes"/>
      <point x="450.0" y="575.2"/>
      <point x="342.8" y="697.4"/>
      <point x="342.8" y="883.8" type="curve" smooth="yes"/>
      <point x="342.8" y="1097.2"/>
      <point x="495.2" y="1290.8"/>
      <point x="744.2" y="1290.8" type="curve" smooth="yes"/>
      <point x="953.8" y="1290.8"/>
      <point x="1061.0" y="1168.6"/>
      <point x="1061.0" y="982.2" type="curve" smooth="yes"/>
      <point x="1061.0" y="768.8"/>
      <point x="908.6" y="575.2"/>
    </contour>
    <contour>
      <point x="752.0" y="1362.0" type="curve" smooth="yes"/>
      <point x="446.8" y="1362.0"/>
      <point x="262.4" y="1125.2"/>
      <point x="262.4" y="874.8" type="curve" smooth="yes"/>
      <point x="262.4" y="657.2"/>
      <point x="399.0" y="504.0"/>
      <point x="651.8" y="504.0" type="curve" smooth="yes"/>
      <point x="957.0" y="504.0"/>
      <point x="1141.4" y="741.0"/>
      <point x="1141.4" y="991.2" type="curve" smooth="yes"/>
      <point x="1141.4" y="1208.8"/>
      <point x="1004.8" y="1362.0"/>
    </contour>
  </outline>
</glyph>
<glyph name="degree" format="2">
  <advance width="764.8"/>
  <unicode hex="00B0"/>
  <outline>
    <contour>
      <point x="603.8" y="1352.0" type="curve" smooth="yes"/>
      <point x="397.8" y="1352.0"/>
      <point x="256.0" y="1194.2"/>
      <point x="256.0" y="1000.2" type="curve" smooth="yes"/>
      <point x="256.0" y="852.8"/>
      <point x="363.6" y="748.0"/>
      <point x="527.6" y="748.0" type="curve" smooth="yes"/>
      <point x="733.6" y="748.0"/>
      <point x="875.4" y="905.8"/>
      <point x="875.4" y="1099.8" type="curve" smooth="yes"/>
      <point x="875.4" y="1247.2"/>
      <point x="767.8" y="1352.0"/>
    </contour>
    <contour>
      <point x="537.8" y="827.0" type="curve" smooth="yes"/>
      <point x="414.0" y="827.0"/>
      <point x="343.6" y="897.8"/>
      <point x="343.6" y="1012.4" type="curve" smooth="yes"/>
      <point x="343.6" y="1144.6"/>
      <point x="429.6" y="1272.8"/>
      <point x="594.0" y="1272.8" type="curve" smooth="yes"/>
      <point x="717.4" y="1272.8"/>
      <point x="787.8" y="1202.2"/>
      <point x="787.8" y="1087.6" type="curve" smooth="yes"/>
      <point x="787.8" y="955.4"/>
      <point x="701.8" y="827.2"/>
    </contour>
  </outline>
</glyph>
<glyph name="plusminus" format="2">
  <advance width="1000.0"/>
  <unicode hex="00B1"/>
  <outline>
    <contour>
      <point x="579.0" y="856.0" type="line"/>
      <point x="357.4" y="130.0" type="line"/>
      <point x="458.6" y="130.0" type="line"/>
      <point x="680.2" y="856.0" type="line"/>
    </contour>
    <contour>
      <point x="170.6" y="541.0" type="line"/>
      <point x="141.0" y="445.0" type="line"/>
      <point x="867.0" y="445.0" type="line"/>
      <point x="896.6" y="541.0" type="line"/>
    </contour>
    <contour>
      <point x="35.2" y="96.0" type="line"/>
      <point x="5.6" y="0.0" type="line"/>
      <point x="731.6" y="0.0" type="line"/>
      <point x="761.2" y="96.0" type="line"/>
    </contour>
  </outline>
</glyph>
<glyph name="uni00B2" format="2">
  <advance width="682.2"/>
  <unicode hex="00B2"/>
  <outline>
    <contour>
      <point x="549.2" y="676.8" type="line"/>
      <point x="672.0" y="736.6" type="line"/>
      <point x="314.6" y="736.6" type="line"/>
      <point x="301.6" y="687.2" type="line"/>
      <point x="472.2" y="820.2" type="line" smooth="yes"/>
      <point x="718.6" y="1006.2"/>
      <point x="763.8" y="1080.4"/>
      <point x="763.8" y="1182.2" type="curve" smooth="yes"/>
      <point x="763.8" y="1287.2"/>
      <point x="680.6" y="1355.2"/>
      <point x="562.4" y="1355.2" type="curve" smooth="yes"/>
      <point x="414.2" y="1355.2"/>
      <point x="310.6" y="1267.0"/>
      <point x="254.0" y="1091.8" type="curve"/>
      <point x="296.8" y="1079.6" type="line"/>
      <point x="337.6" y="1183.2"/>
      <point x="400.4" y="1221.0"/>
      <point x="482.8" y="1221.0" type="curve" smooth="yes"/>
      <point x="553.0" y="1221.0"/>
      <point x="594.2" y="1179.0"/>
      <point x="594.2" y="1113.4" type="curve" smooth="yes"/>
      <point x="594.2" y="1043.2"/>
      <point x="556.0" y="969.4"/>
      <point x="407.0" y="839.4" type="curve" smooth="yes"/>
      <point x="156.4" y="619.0" type="line"/>
      <point x="148.4" y="592.0" type="line"/>
      <point x="554.2" y="592.0" type="line"/>
      <point x="615.0" y="567.8" type="line"/>
      <point x="630.8" y="567.8" type="line"/>
      <point x="762.8" y="855.0" type="line"/>
      <point x="735.4" y="855.0" type="line"/>
    </contour>
  </outline>
</glyph>
<glyph name="uni00B3" format="2">
  <advance width="623"/>
  <unicode hex="00B3"/>
  <outline>
    <contour>
      <point x="356.6" y="939.4" type="line"/>
      <point x="396.8" y="948.6" type="line" smooth="yes"/>
      <point x="498.6142857142857" y="972.2285714285714"/>
      <point x="548.2" y="935.2"/>
      <point x="548.2" y="861.2" type="curve" smooth="yes"/>
      <point x="548.2" y="738.8"/>
      <point x="456.8" y="641.8"/>
      <point x="359.6" y="641.8" type="curve" smooth="yes"/>
      <point x="270.0" y="641.8"/>
      <point x="261.2" y="725.2"/>
      <point x="196.2" y="725.2" type="curve" smooth="yes"/>
      <point x="153.0" y="725.2"/>
      <point x="134.4" y="694.8"/>
      <point x="134.4" y="665.6" type="curve" smooth="yes"/>
      <point x="134.4" y="622.0"/>
      <point x="174.0" y="576.8"/>
      <point x="308.0" y="576.8" type="curve" smooth="yes"/>
      <point x="537.2" y="576.8"/>
      <point x="695.0" y="707.6"/>
      <point x="695.0" y="871.4" type="curve" smooth="yes"/>
      <point x="695.0" y="965.6"/>
      <point x="634.4" y="1023.2"/>
      <point x="526.2" y="1021.6" type="curve"/>
      <point x="516.0" y="1016.0" type="line"/>
      <point x="654.8" y="1052.2"/>
      <point x="720.0" y="1132.0"/>
      <point x="720.0" y="1215.6" type="curve" smooth="yes"/>
      <point x="720.0" y="1300.0"/>
      <point x="656.2" y="1356.6"/>
      <point x="552.8" y="1356.6" type="curve" smooth="yes"/>
      <point x="415.0" y="1356.6"/>
      <point x="334.2" y="1273.6"/>
      <point x="288.8" y="1134.8" type="curve"/>
      <point x="328.0" y="1121.8" type="line"/>
      <point x="361.8" y="1209.6"/>
      <point x="412.2" y="1246.2"/>
      <point x="485.8" y="1246.2" type="curve" smooth="yes"/>
      <point x="546.0" y="1246.2"/>
      <point x="580.8" y="1213.0"/>
      <point x="580.8" y="1160.6" type="curve" smooth="yes"/>
      <point x="580.8" y="1091.8"/>
      <point x="538.6" y="1035.4"/>
      <point x="355.2" y="987.2" type="curve"/>
    </contour>
  </outline>
</glyph>
<glyph name="uni00B5" format="2">
	<unicode hex="00B5"/>
	<advance width="1087.2"/>
	<outline>
		<contour>
			<point x="707" y="596.4" type="line"/>
			<point x="621.4" y="316.2"/>
			<point x="448" y="121.2"/>
			<point x="345" y="121.2" type="curve" smooth="yes"/>
			<point x="304.4" y="121.2"/>
			<point x="286.8" y="138.6"/>
			<point x="286.8" y="168.6" type="curve" smooth="yes"/>
			<point x="286.8" y="188"/>
			<point x="293" y="213.4"/>
			<point x="305" y="248.2" type="curve" smooth="yes"/>
			<point x="526.6" y="856" type="line"/>
			<point x="354.4" y="856" type="line"/>
			<point x="-140.2" y="-520" type="line"/>
			<point x="-121" y="-520" type="line"/>
			<point x="37.6" y="-500.6" type="line"/>
			<point x="159.2" y="198.2" type="line"/>
			<point x="131.2" y="173" type="line"/>
			<point x="101.6" y="45"/>
			<point x="154.6" y="-22"/>
			<point x="251.2" y="-22" type="curve" smooth="yes"/>
			<point x="383" y="-22"/>
			<point x="499.4" y="64.4"/>
			<point x="686.8" y="410" type="curve"/>
			<point x="674.8" y="415.6" type="line"/>
			<point x="563.6" y="46.6" type="line" smooth="yes"/>
			<point x="549.8" y="-1.2"/>
			<point x="574.4" y="-22"/>
			<point x="654.6" y="-22" type="curve" smooth="yes"/>
			<point x="751.2" y="-22"/>
			<point x="866.6" y="40"/>
			<point x="1006.6" y="213.6" type="curve"/>
			<point x="975" y="247.2" type="line"/>
			<point x="883" y="159.2"/>
			<point x="785.2" y="114.6"/>
			<point x="715" y="119.6" type="curve"/>
			<point x="724.4" y="78.6" type="line"/>
			<point x="960" y="856" type="line"/>
			<point x="786.4" y="856" type="line"/>
		</contour>
	</outline>
</glyph>
<glyph name="paragraph" format="2">
	<unicode hex="00B6"/>
	<advance width="1161.4"/>
	<outline>
		<contour>
			<point x="469.8" y="-254" type="line"/>
			<point x="926.8" y="1241" type="line"/>
			<point x="1090.8" y="1241" type="line"/>
			<point x="1121.4" y="1340" type="line"/>
			<point x="858" y="1340" type="line"/>
			<point x="370.2" y="-254" type="line"/>
		</contour>
		<contour>
			<point x="710.2" y="-254" type="line"/>
			<point x="1169.6" y="1250" type="line"/>
			<point x="1338.8" y="1300.4" type="line"/>
			<point x="1350.8" y="1340" type="line"/>
			<point x="1098.4" y="1340" type="line"/>
			<point x="610.8" y="-254" type="line"/>
		</contour>
		<contour>
			<point x="924.8" y="1340" type="line"/>
			<point x="677.8" y="1340" type="line" smooth="yes"/>
			<point x="355.2" y="1340"/>
			<point x="223.2" y="1121.1801797368"/>
			<point x="223.2" y="917" type="curve" smooth="yes"/>
			<point x="223.2" y="747.8"/>
			<point x="317" y="661"/>
			<point x="516.4" y="661" type="curve" smooth="yes"/>
			<point x="717" y="661" type="line"/>
		</contour>
	</outline>
</glyph>
<glyph name="uni00B9" format="2">
  <advance width="497.0"/>
  <unicode hex="00B9"/>
  <outline>
    <contour>
      <point x="277.4" y="655.8" type="line"/>
      <point x="160.4" y="625.0" type="line"/>
      <point x="150.6" y="592.0" type="line"/>
      <point x="502.8" y="592.0" type="line"/>
      <point x="513.2" y="625.0" type="line"/>
      <point x="421.8" y="655.8" type="line"/>
      <point x="632.6" y="1344.0" type="line"/>
      <point x="561.4" y="1344.0" type="line"/>
      <point x="266.6" y="1202.0" type="line"/>
      <point x="269.2" y="1160.4" type="line"/>
      <point x="485.2" y="1217.2" type="line"/>
      <point x="469.2" y="1282.8" type="line"/>
    </contour>
  </outline>
</glyph>
<glyph name="ordmasculine" format="2">
	<unicode hex="00BA"/>
	<advance width="851.8"/>
	<outline>
		<contour>
			<point x="143.6" y="459.8" type="line"/>
			<point x="748.2" y="459.8" type="line"/>
			<point x="778" y="557.4" type="line"/>
			<point x="174" y="557.4" type="line"/>
		</contour>
		<contour>
			<point x="684" y="1360" type="curve" smooth="yes"/>
			<point x="459.6" y="1360"/>
			<point x="285" y="1149"/>
			<point x="285" y="908.4" type="curve" smooth="yes"/>
			<point x="285" y="763.6"/>
			<point x="365.2" y="677.2"/>
			<point x="517" y="677.2" type="curve" smooth="yes"/>
			<point x="741.2" y="677.2"/>
			<point x="915.8" y="888.2"/>
			<point x="915.8" y="1128.8" type="curve" smooth="yes"/>
			<point x="915.8" y="1273.6"/>
			<point x="835.6" y="1360"/>
		</contour>
		<contour>
			<point x="520.2" y="747.6" type="curve" smooth="yes"/>
			<point x="464" y="747.6"/>
			<point x="441" y="782.4"/>
			<point x="441" y="867.2" type="curve" smooth="yes"/>
			<point x="441" y="1060.8"/>
			<point x="551" y="1289.8"/>
			<point x="680.6" y="1289.8" type="curve" smooth="yes"/>
			<point x="736.8" y="1289.8"/>
			<point x="759.8" y="1255"/>
			<point x="759.8" y="1170.2" type="curve" smooth="yes"/>
			<point x="759.8" y="976.6"/>
			<point x="649.8" y="747.6"/>
		</contour>
	</outline>
</glyph>
<glyph name="guillemotright" format="2">
  <advance width="999.0"/>
  <unicode hex="00BB"/>
  <outline>
    <contour>
      <point x="336.2" y="366.6" type="line"/>
      <point x="387.4" y="532.6" type="line"/>
      <point x="-25.6" y="66.4" type="line"/>
      <point x="14.4" y="20.0" type="line"/>
      <point x="517.4" y="408.0" type="line"/>
      <point x="532.0" y="456.0" type="line"/>
      <point x="264.0" y="844.0" type="line"/>
      <point x="210.8" y="820.4" type="line"/>
    </contour>
    <contour>
      <point x="725.8" y="366.6" type="line"/>
      <point x="777.0" y="532.6" type="line"/>
      <point x="364.0" y="66.4" type="line"/>
      <point x="404.0" y="20.0" type="line"/>
      <point x="907.0" y="408.0" type="line"/>
      <point x="921.6" y="456.0" type="line"/>
      <point x="653.6" y="844.0" type="line"/>
      <point x="600.4" y="820.4" type="line"/>
    </contour>
  </outline>
</glyph>
<glyph name="questiondown" format="2">
  <advance width="874"/>
  <unicode hex="00BF"/>
  <outline>
    <contour>
      <point x="580.8" y="605.0" type="curve" smooth="yes"/>
      <point x="669.4" y="605.0"/>
      <point x="734.6" y="674.4"/>
      <point x="734.6" y="758.6" type="curve" smooth="yes"/>
      <point x="734.6" y="821.2"/>
      <point x="689.4" y="870.0"/>
      <point x="617.8" y="870.0" type="curve" smooth="yes"/>
      <point x="529.2" y="870.0"/>
      <point x="464.0" y="800.6"/>
      <point x="464.0" y="716.4" type="curve" smooth="yes"/>
      <point x="464.0" y="653.8"/>
      <point x="509.2" y="605.0"/>
    </contour>
    <contour>
      <point x="360.4" y="-508.0" type="curve" smooth="yes"/>
      <point x="534.0" y="-508.0"/>
      <point x="588.6" y="-454.8"/>
      <point x="588.6" y="-388.2" type="curve" smooth="yes"/>
      <point x="588.6" y="-342.8"/>
      <point x="556.0" y="-310.6"/>
      <point x="508.4" y="-310.6" type="curve" smooth="yes"/>
      <point x="423.0" y="-310.6"/>
      <point x="390.2" y="-396.4"/>
      <point x="249.8" y="-396.4" type="curve" smooth="yes"/>
      <point x="142.4" y="-396.4"/>
      <point x="67.0" y="-295.6"/>
      <point x="67.0" y="-175.8" type="curve" smooth="yes"/>
      <point x="67.0" y="6.399999999999999"/>
      <point x="183.6" y="88.2"/>
      <point x="491.6" y="72.4" type="curve"/>
      <point x="540.8" y="436.8" type="line"/>
      <point x="496.2" y="436.8" type="line"/>
      <point x="377.6" y="104.2" type="line"/>
      <point x="484.0" y="230.8" type="line"/>
      <point x="98.8" y="248.8"/>
      <point x="-29.0" y="106.6"/>
      <point x="-29.0" y="-125.2" type="curve" smooth="yes"/>
      <point x="-29.0" y="-338.2"/>
      <point x="133.4" y="-508.0"/>
    </contour>
  </outline>
</glyph>
<glyph name="AE" format="2">
	<unicode hex="00C6"/>
	<advance width="1901.2"/>
	<outline>
		<contour>
			<point x="149.6" y="86.8" type="line"/>
			<point x="1168.8" y="1259.4" type="line"/>
			<point x="1157.8" y="1265.6" type="line"/>
			<point x="800.4" y="89.4" type="line"/>
			<point x="641.2" y="39.2" type="line"/>
			<point x="629" y="0" type="line"/>
			<point x="969" y="0" type="line"/>
			<point x="1375.6" y="1340" type="line"/>
			<point x="917" y="1340" type="line"/>
			<point x="904.8" y="1300" type="line"/>
			<point x="1038" y="1247" type="line"/>
			<point x="28.2" y="86.8" type="line"/>
			<point x="-133.8" y="39.2" type="line"/>
			<point x="-145.4" y="0" type="line"/>
			<point x="274.4" y="0" type="line"/>
			<point x="286" y="39.2" type="line"/>
		</contour>
		<contour>
			<point x="1605.6" y="-63.4" type="line"/>
			<point x="1625.8" y="-63.4" type="line"/>
			<point x="1835.4" y="374" type="line"/>
			<point x="1796.6" y="396.4" type="line"/>
			<point x="1482.6" y="70.8" type="line"/>
			<point x="1567.4" y="96" type="line"/>
			<point x="886.8" y="96" type="line"/>
			<point x="855" y="0" type="line"/>
			<point x="1507.6" y="0" type="line"/>
		</contour>
		<contour>
			<point x="459" y="487" type="line"/>
			<point x="998.2" y="487" type="line"/>
			<point x="1028" y="580.6" type="line"/>
			<point x="489.6" y="580.6" type="line"/>
		</contour>
		<contour>
			<point x="1460.8" y="441" type="line"/>
			<point x="1538.6" y="441" type="line"/>
			<point x="1618.6" y="703" type="line"/>
			<point x="1698.6" y="965" type="line"/>
			<point x="1620.8" y="965" type="line"/>
			<point x="1534" y="750.2" type="line"/>
			<point x="1084.2" y="750.2" type="line"/>
			<point x="1055.8" y="655.8" type="line"/>
			<point x="1505.6" y="655.8" type="line"/>
		</contour>
		<contour>
			<point x="1891.8" y="952.6" type="line"/>
			<point x="1943.2" y="952.6" type="line"/>
			<point x="2010.2" y="1394.4" type="line"/>
			<point x="1991" y="1394.4" type="line"/>
			<point x="1863.4" y="1340" type="line"/>
			<point x="1265" y="1340" type="line"/>
			<point x="1233.4" y="1244" type="line"/>
			<point x="1870.2" y="1244" type="line"/>
			<point x="1828.6" y="1269.2" type="line"/>
		</contour>
	</outline>
	<anchor name="UCtop" x="1263.6" y="1340"/>
	<anchor name="bottom" x="869.8" y="0"/>
</glyph>
<glyph name="Ccedilla" format="2">
	<unicode hex="00C7"/>
	<advance width="1344"/>
	<outline>
		<contour>
			<point x="1043.2" y="121.2" type="line"/>
			<point x="948.4" y="85"/>
			<point x="862.4" y="73.8"/>
			<point x="772.6" y="73.8" type="curve" smooth="yes"/>
			<point x="512.4" y="73.8"/>
			<point x="356.4" y="229.8"/>
			<point x="356.4" y="529.8" type="curve" smooth="yes"/>
			<point x="356.4" y="941.8"/>
			<point x="628.8" y="1266.4"/>
			<point x="1020.4" y="1266.4" type="curve" smooth="yes"/>
			<point x="1141" y="1266.4"/>
			<point x="1216.4" y="1241.2"/>
			<point x="1310" y="1175.2" type="curve"/>
			<point x="1250" y="1239.2" type="line"/>
			<point x="1327.4" y="926.8" type="line"/>
			<point x="1374.4" y="926.8" type="line"/>
			<point x="1446" y="1402" type="line"/>
			<point x="1423.4" y="1402" type="line"/>
			<point x="1277" y="1312.4" type="line"/>
			<point x="1361.2" y="1313.2" type="line"/>
			<point x="1258" y="1351.8"/>
			<point x="1155.6" y="1362"/>
			<point x="1046.6" y="1362" type="curve" smooth="yes"/>
			<point x="539.6" y="1362"/>
			<point x="149.8" y="1003.6"/>
			<point x="149.8" y="503.8" type="curve" smooth="yes"/>
			<point x="149.8" y="180.8"/>
			<point x="362.8" y="-22"/>
			<point x="748.4" y="-22" type="curve" smooth="yes"/>
			<point x="883.6" y="-22"/>
			<point x="1048.4" y="8.6"/>
			<point x="1155.2" y="49.6" type="curve"/>
			<point x="1264.4" y="364.2" type="line"/>
			<point x="1212" y="364.2" type="line"/>
			<point x="989.2" y="80.2" type="line"/>
		</contour>
		<contour>
			<point x="549.6" y="-456" type="curve" smooth="yes"/>
			<point x="482.4" y="-456"/>
			<point x="478.8" y="-390.6"/>
			<point x="426.4" y="-390.6" type="curve" smooth="yes"/>
			<point x="385.8" y="-390.6"/>
			<point x="362.6" y="-419.4"/>
			<point x="362.6" y="-451.8" type="curve" smooth="yes"/>
			<point x="362.6" y="-491.2"/>
			<point x="401.2" y="-530"/>
			<point x="485.4" y="-530" type="curve"/>
			<point x="649" y="-530"/>
			<point x="778.4" y="-417"/>
			<point x="778.4" y="-281.2" type="curve" smooth="yes"/>
			<point x="778.4" y="-211.2"/>
			<point x="736.2" y="-148"/>
			<point x="594.8" y="-119.6" type="curve"/>
			<point x="561.6" y="-217.8" type="line"/>
			<point x="778.4" y="49.8" type="line"/>
			<point x="701.2" y="49.8" type="line"/>
			<point x="485" y="-216.6" type="line"/>
			<point x="479.6" y="-233.2" type="line"/>
			<point x="621.4" y="-255.2"/>
			<point x="667" y="-291.4"/>
			<point x="667" y="-345" type="curve" smooth="yes"/>
			<point x="667" y="-410"/>
			<point x="620.4" y="-456"/>
		</contour>
	</outline>
</glyph>
<glyph name="multiply" format="2">
  <advance width="1000.0"/>
  <unicode hex="00D7"/>
  <outline>
    <contour>
      <point x="102.0" y="186.8" type="line"/>
      <point x="151.2" y="115.6" type="line"/>
      <point x="901.6" y="685.2" type="line"/>
      <point x="852.4" y="756.4" type="line"/>
    </contour>
    <contour>
      <point x="268.8" y="698.6" type="line"/>
      <point x="657.2" y="115.6" type="line"/>
      <point x="734.8" y="173.4" type="line"/>
      <point x="346.4" y="756.4" type="line"/>
    </contour>
  </outline>
</glyph>
<glyph name="Oslash" format="2">
	<unicode hex="00D8"/>
	<advance width="1512.2"/>
	<outline>
		<contour>
			<point x="1693.6" y="1340" type="line"/>
			<point x="1539.2" y="1340" type="line"/>
			<point x="1341.6" y="1172" type="line"/>
			<point x="1286.4" y="1127" type="line"/>
			<point x="331" y="303" type="line"/>
			<point x="274" y="261.4" type="line"/>
			<point x="-32.6" y="0" type="line"/>
			<point x="121.8" y="0" type="line"/>
			<point x="321" y="169.6" type="line"/>
			<point x="369.4" y="211.8" type="line"/>
			<point x="1321.6" y="1032.6" type="line"/>
			<point x="1393.4" y="1084.2" type="line"/>
		</contour>
		<contour>
			<point x="365.8" y="471.4" type="curve" smooth="yes"/>
			<point x="365.8" y="895.6"/>
			<point x="634.4" y="1266.6"/>
			<point x="956.2" y="1266.6" type="curve" smooth="yes"/>
			<point x="1173.6" y="1266.6"/>
			<point x="1293.6" y="1132.8"/>
			<point x="1293.6" y="868.6" type="curve" smooth="yes"/>
			<point x="1293.6" y="444.4"/>
			<point x="1025" y="73.4"/>
			<point x="703.2" y="73.4" type="curve" smooth="yes"/>
			<point x="485.8" y="73.4"/>
			<point x="365.8" y="207.2"/>
		</contour>
		<contour>
			<point x="1493.4" y="822.2" type="curve" smooth="yes"/>
			<point x="1493.4" y="1162.6"/>
			<point x="1290.8" y="1362"/>
			<point x="957.8" y="1362" type="curve" smooth="yes"/>
			<point x="506" y="1362"/>
			<point x="166" y="967.6"/>
			<point x="166" y="517.8" type="curve" smooth="yes"/>
			<point x="166" y="177.4"/>
			<point x="368.6" y="-22"/>
			<point x="701.6" y="-22" type="curve" smooth="yes"/>
			<point x="1153.4" y="-22"/>
			<point x="1493.4" y="372.4"/>
		</contour>
	</outline>
	<anchor name="UCtop" x="990.2" y="1340"/>
	<anchor name="bottom" x="644.8" y="0"/>
</glyph>
<glyph name="Thorn" format="2">
  <advance width="1201"/>
  <unicode hex="00DE"/>
  <outline>
    <contour>
      <point x="643.8" y="408.2" type="curve" smooth="yes"/>
      <point x="267.0" y="408.2" type="line"/>
      <point x="245.8" y="312.2" type="line"/>
      <point x="623.0" y="312.2" type="line" smooth="yes"/>
      <point x="1000.4" y="312.2"/>
      <point x="1215.8" y="504.4"/>
      <point x="1215.8" y="775.0" type="curve" smooth="yes"/>
      <point x="1215.8" y="941.8"/>
      <point x="1097.2" y="1073.4"/>
      <point x="793.4" y="1073.4" type="curve" smooth="yes"/>
      <point x="480.2" y="1073.4" type="line"/>
      <point x="438.2" y="977.4" type="line"/>
      <point x="748.8" y="977.4" type="line" smooth="yes"/>
      <point x="936.4" y="977.4"/>
      <point x="1015.6" y="898.6"/>
      <point x="1015.6" y="758.2" type="curve" smooth="yes"/>
      <point x="1015.6" y="538.4"/>
      <point x="872.8" y="408.2"/>
    </contour>
    <contour>
      <point x="484.0" y="1254.2" type="line"/>
      <point x="130.2" y="89.4" type="line"/>
      <point x="-29.0" y="39.2" type="line"/>
      <point x="-41.2" y="0.0" type="line"/>
      <point x="447.0" y="0.0" type="line"/>
      <point x="459.2" y="39.2" type="line"/>
      <point x="324.6" y="85.8" type="line"/>
      <point x="678.4" y="1250.6" type="line"/>
      <point x="837.6" y="1300.8" type="line"/>
      <point x="849.8" y="1340.0" type="line"/>
      <point x="361.6" y="1340.0" type="line"/>
      <point x="349.4" y="1300.8" type="line"/>
    </contour>
  </outline>
</glyph>
<glyph name="germandbls" format="2">
	<unicode hex="00DF"/>
	<advance width="1130.2"/>
	<outline>
		<contour>
			<point x="103" y="770.2" type="line"/>
			<point x="388.2" y="770.2" type="line"/>
			<point x="405.2" y="856" type="line"/>
			<point x="119" y="856" type="line"/>
		</contour>
		<contour>
			<point x="364.6" y="222.8" type="curve" smooth="yes"/>
			<point x="529.2" y="1028.4" type="line" smooth="yes"/>
			<point x="574.6" y="1249.2"/>
			<point x="685" y="1351.2"/>
			<point x="832.8" y="1351.2" type="curve" smooth="yes"/>
			<point x="942.8" y="1351.2"/>
			<point x="1000.6" y="1278"/>
			<point x="1000.6" y="1181" type="curve" smooth="yes"/>
			<point x="1000.6" y="1096.2"/>
			<point x="962.8" y="1019.4"/>
			<point x="824.6" y="917" type="curve" smooth="yes"/>
			<point x="686.4" y="814.6"/>
			<point x="634.2" y="740.6"/>
			<point x="634.2" y="641.4" type="curve" smooth="yes"/>
			<point x="634.2" y="568.8"/>
			<point x="663" y="497.4"/>
			<point x="761.8" y="396" type="curve" smooth="yes"/>
			<point x="860.6" y="294.6"/>
			<point x="887.6" y="240"/>
			<point x="887.6" y="181" type="curve" smooth="yes"/>
			<point x="887.6" y="98.2"/>
			<point x="829" y="50"/>
			<point x="746.8" y="50" type="curve" smooth="yes"/>
			<point x="702.4" y="50"/>
			<point x="667.2" y="72.4"/>
			<point x="631.6" y="126.6" type="curve" smooth="yes"/>
			<point x="596" y="180.8"/>
			<point x="584" y="191.8"/>
			<point x="568" y="191.8" type="curve" smooth="yes"/>
			<point x="514.6" y="191.8"/>
			<point x="480.2" y="153.4"/>
			<point x="480.2" y="108.4" type="curve" smooth="yes"/>
			<point x="480.2" y="40.8"/>
			<point x="547" y="-22"/>
			<point x="698.6" y="-22" type="curve" smooth="yes"/>
			<point x="878.8" y="-22"/>
			<point x="1017.2" y="103.2"/>
			<point x="1017.2" y="264" type="curve" smooth="yes"/>
			<point x="1017.2" y="343.6"/>
			<point x="984" y="420.8"/>
			<point x="887.6" y="527.2" type="curve" smooth="yes"/>
			<point x="791.2" y="633.6"/>
			<point x="771.4" y="677.6"/>
			<point x="771.4" y="722.2" type="curve" smooth="yes"/>
			<point x="771.4" y="779.8"/>
			<point x="796.8" y="829"/>
			<point x="942.2" y="913.6" type="curve" smooth="yes"/>
			<point x="1087.6" y="998.2"/>
			<point x="1147.4" y="1071.8"/>
			<point x="1147.4" y="1181.6" type="curve" smooth="yes"/>
			<point x="1147.4" y="1314.2"/>
			<point x="1039.4" y="1421"/>
			<point x="855" y="1421" type="curve" smooth="yes"/>
			<point x="588.2" y="1421"/>
			<point x="391.6" y="1227.6"/>
			<point x="319.6" y="867.2" type="curve" smooth="yes"/>
			<point x="147.2" y="4.4" type="line" smooth="yes"/>
			<point x="76" y="-354.8"/>
			<point x="2.4" y="-432"/>
			<point x="-100.6" y="-432" type="curve" smooth="yes"/>
			<point x="-135" y="-432"/>
			<point x="-169.8" y="-416"/>
			<point x="-203" y="-374.2" type="curve" smooth="yes"/>
			<point x="-236.2" y="-332.4"/>
			<point x="-259.6" y="-307"/>
			<point x="-285" y="-307" type="curve" smooth="yes"/>
			<point x="-333" y="-307"/>
			<point x="-370.6" y="-351.8"/>
			<point x="-370.6" y="-401.8" type="curve" smooth="yes"/>
			<point x="-370.6" y="-476"/>
			<point x="-309.4" y="-530"/>
			<point x="-183.6" y="-530" type="curve" smooth="yes"/>
			<point x="53.6" y="-530"/>
			<point x="247.2" y="-344.2"/>
		</contour>
	</outline>
</glyph>
<glyph name="ae" format="2">
  <advance width="1330.0"/>
  <unicode hex="00E6"/>
  <anchor x="832.0" y="856.0" name="top"/>
  <anchor x="570.8" y="0.0" name="bottom"/>
  <outline>
    <contour>
      <point x="885.2" y="735.4" type="line"/>
      <point x="923.4" y="856.0" type="line"/>
      <point x="866.0" y="856.0" type="line"/>
      <point x="748.8" y="833.8" type="line"/>
      <point x="627.2" y="478.0" type="line" smooth="yes"/>
      <point x="556.0" y="269.2"/>
      <point x="368.2" y="119.2"/>
      <point x="283.6" y="119.2" type="curve" smooth="yes"/>
      <point x="237.0" y="119.2"/>
      <point x="206.4" y="143.2"/>
      <point x="206.4" y="198.2" type="curve" smooth="yes"/>
      <point x="206.4" y="361.6"/>
      <point x="391.0" y="777.8"/>
      <point x="611.6" y="777.8" type="curve" smooth="yes"/>
      <point x="670.6" y="777.8"/>
      <point x="707.2" y="745.6"/>
      <point x="718.8" y="711.4" type="curve"/>
      <point x="762.4" y="770.4" type="line"/>
      <point x="714.8" y="834.8"/>
      <point x="662.6" y="863.6"/>
      <point x="580.6" y="863.6" type="curve" smooth="yes"/>
      <point x="280.6" y="863.6"/>
      <point x="19.4" y="441.0"/>
      <point x="19.4" y="180.6" type="curve" smooth="yes"/>
      <point x="19.4" y="40.2"/>
      <point x="93.2" y="-19.6"/>
      <point x="205.6" y="-19.6" type="curve" smooth="yes"/>
      <point x="319.6" y="-19.6"/>
      <point x="434.0" y="66.4"/>
      <point x="636.8" y="376.8" type="curve"/>
      <point x="618.6" y="400.0" type="line"/>
      <point x="571.6" y="111.6"/>
      <point x="674.6" y="-22.0"/>
      <point x="875.0" y="-22.0" type="curve" smooth="yes"/>
      <point x="1033.8" y="-22.0"/>
      <point x="1130.8" y="47.4"/>
      <point x="1234.6" y="290.6" type="curve"/>
      <point x="1176.6" y="290.6" type="line"/>
      <point x="1103.8" y="150.2"/>
      <point x="1032.4" y="111.0"/>
      <point x="939.0" y="111.0" type="curve" smooth="yes"/>
      <point x="849.4" y="111.0"/>
      <point x="789.2" y="162.0"/>
      <point x="789.2" y="298.6" type="curve" smooth="yes"/>
      <point x="789.2" y="494.6"/>
      <point x="888.4" y="803.0"/>
      <point x="1067.8" y="803.0" type="curve" smooth="yes"/>
      <point x="1123.6" y="803.0"/>
      <point x="1153.4" y="767.8"/>
      <point x="1153.4" y="714.4" type="curve" smooth="yes"/>
      <point x="1153.4" y="621.0"/>
      <point x="1080.2" y="543.2"/>
      <point x="763.2" y="448.8" type="curve"/>
      <point x="760.2" y="373.0" type="line"/>
      <point x="923.2" y="421.4"/>
      <point x="1090.2" y="478.4"/>
      <point x="1246.8" y="544.0" type="curve"/>
      <point x="1284.4" y="576.4"/>
      <point x="1313.2" y="640.0"/>
      <point x="1313.2" y="701.0" type="curve" smooth="yes"/>
      <point x="1313.2" y="795.0"/>
      <point x="1256.2" y="878.0"/>
      <point x="1124.6" y="878.0" type="curve" smooth="yes"/>
      <point x="994.2" y="878.0"/>
      <point x="898.6" y="804.6"/>
      <point x="837.4" y="714.6" type="curve"/>
    </contour>
  </outline>
</glyph>
<glyph name="ccedilla" format="2">
	<unicode hex="00E7"/>
	<advance width="737.2"/>
	<outline>
		<contour>
			<point x="132.4" y="-530" type="curve"/>
			<point x="296" y="-530"/>
			<point x="425.4" y="-417"/>
			<point x="425.4" y="-281.2" type="curve" smooth="yes"/>
			<point x="425.4" y="-211.2"/>
			<point x="383.2" y="-148"/>
			<point x="241.8" y="-119.6" type="curve"/>
			<point x="208.6" y="-217.8" type="line"/>
			<point x="425.4" y="49.8" type="line"/>
			<point x="348.2" y="49.8" type="line"/>
			<point x="132" y="-216.6" type="line"/>
			<point x="126.6" y="-233.2" type="line"/>
			<point x="268.4" y="-255.2"/>
			<point x="314" y="-291.4"/>
			<point x="314" y="-345" type="curve" smooth="yes"/>
			<point x="314" y="-410"/>
			<point x="267.4" y="-456"/>
			<point x="196.6" y="-456" type="curve" smooth="yes"/>
			<point x="129.4" y="-456"/>
			<point x="125.8" y="-390.6"/>
			<point x="73.4" y="-390.6" type="curve" smooth="yes"/>
			<point x="32.8" y="-390.6"/>
			<point x="9.6" y="-419.4"/>
			<point x="9.6" y="-451.8" type="curve" smooth="yes"/>
			<point x="9.6" y="-491.2"/>
			<point x="48.2" y="-530"/>
		</contour>
		<contour>
			<point x="480.2" y="793.6" type="curve" smooth="yes"/>
			<point x="520.8" y="793.6"/>
			<point x="555.2" y="763"/>
			<point x="586.4" y="723.8" type="curve" smooth="yes"/>
			<point x="617.6" y="684.6"/>
			<point x="639.6" y="655"/>
			<point x="658.6" y="655.8" type="curve" smooth="yes"/>
			<point x="714.6" y="656.6"/>
			<point x="753.8" y="686"/>
			<point x="753.8" y="743" type="curve" smooth="yes"/>
			<point x="753.8" y="814.6"/>
			<point x="691.8" y="878"/>
			<point x="558.2" y="878" type="curve" smooth="yes"/>
			<point x="289" y="878"/>
			<point x="53.4" y="605.2"/>
			<point x="53.4" y="255" type="curve" smooth="yes"/>
			<point x="53.4" y="71.8"/>
			<point x="142.8" y="-22"/>
			<point x="304.6" y="-22" type="curve" smooth="yes"/>
			<point x="451.4" y="-22"/>
			<point x="551.6" y="49.2"/>
			<point x="658.4" y="290.6" type="curve"/>
			<point x="602" y="290.6" type="line"/>
			<point x="526.8" y="154.2"/>
			<point x="452.4" y="111"/>
			<point x="369.2" y="111" type="curve" smooth="yes"/>
			<point x="280.2" y="111"/>
			<point x="237.2" y="162"/>
			<point x="237.2" y="298.6" type="curve" smooth="yes"/>
			<point x="237.2" y="530.8"/>
			<point x="343.8" y="793.6"/>
		</contour>
	</outline>
</glyph>
<glyph name="eth" format="2">
	<unicode hex="00F0"/>
	<advance width="906.2"/>
	<outline>
		<contour>
			<point x="726.4" y="604.8" type="line"/>
			<point x="742" y="789.2"/>
			<point x="678" y="878"/>
			<point x="529.6" y="878" type="curve" smooth="yes"/>
			<point x="272" y="878"/>
			<point x="58.4" y="598.4"/>
			<point x="58.4" y="284" type="curve" smooth="yes"/>
			<point x="58.4" y="92.8"/>
			<point x="163.2" y="-22"/>
			<point x="340.8" y="-22" type="curve" smooth="yes"/>
			<point x="613.9825759977" y="-22"/>
			<point x="848.8" y="310.3500555741"/>
			<point x="862.4" y="719.4" type="curve" smooth="yes"/>
			<point x="877.2" y="1010.6"/>
			<point x="764.4" y="1299.4"/>
			<point x="355.6" y="1421" type="curve"/>
			<point x="322.2" y="1365.4" type="line"/>
			<point x="634.4" y="1246.2"/>
			<point x="774.4" y="1047.6"/>
			<point x="686.8" y="636" type="curve"/>
		</contour>
		<contour>
			<point x="341.8" y="53" type="curve" smooth="yes"/>
			<point x="267.6" y="53"/>
			<point x="234.6" y="104.8"/>
			<point x="234.6" y="223.2" type="curve" smooth="yes"/>
			<point x="234.6" y="486"/>
			<point x="386.8" y="803"/>
			<point x="544.2" y="803" type="curve" smooth="yes"/>
			<point x="618.4" y="803"/>
			<point x="651.4" y="751.2"/>
			<point x="651.4" y="632.8" type="curve" smooth="yes"/>
			<point x="651.4" y="370"/>
			<point x="499.2" y="53"/>
		</contour>
		<contour>
			<point x="372.4" y="987" type="line"/>
			<point x="966.2" y="1302.8" type="line"/>
			<point x="931.2" y="1373" type="line"/>
			<point x="337.2" y="1057.2" type="line"/>
		</contour>
	</outline>
</glyph>
<glyph name="divide" format="2">
	<unicode hex="00F7"/>
	<advance width="1000"/>
	<outline>
		<contour>
			<point x="153.4" y="484" type="line"/>
			<point x="123.8" y="388" type="line"/>
			<point x="849.8" y="388" type="line"/>
			<point x="879.4" y="484" type="line"/>
		</contour>
		<contour>
			<point x="596.6" y="862" type="curve" smooth="yes"/>
			<point x="529" y="862"/>
			<point x="480.6" y="810.2"/>
			<point x="480.6" y="747" type="curve" smooth="yes"/>
			<point x="480.6" y="683.8"/>
			<point x="529" y="632"/>
			<point x="596.6" y="632" type="curve" smooth="yes"/>
			<point x="664.2" y="632"/>
			<point x="712.6" y="683.8"/>
			<point x="712.6" y="747" type="curve" smooth="yes"/>
			<point x="712.6" y="810.2"/>
			<point x="664.2" y="862"/>
		</contour>
		<contour>
			<point x="406.6" y="240" type="curve" smooth="yes"/>
			<point x="339" y="240"/>
			<point x="290.6" y="188.2"/>
			<point x="290.6" y="125" type="curve" smooth="yes"/>
			<point x="290.6" y="61.8"/>
			<point x="339" y="10"/>
			<point x="406.6" y="10" type="curve" smooth="yes"/>
			<point x="474.2" y="10"/>
			<point x="522.6" y="61.8"/>
			<point x="522.6" y="125" type="curve" smooth="yes"/>
			<point x="522.6" y="188.2"/>
			<point x="474.2" y="240"/>
		</contour>
	</outline>
</glyph>
<glyph name="oslash" format="2">
  <advance width="912.4"/>
  <unicode hex="00F8"/>
  <guideline x="97.0" y="470.4" angle="6.578485082096433" identifier="mD8XTzRra8"/>
  <guideline x="812.6" y="375.8" angle="6.578485082096433" identifier="VMiJIYugiO"/>
  <anchor x="570.4" y="856.0" name="top"/>
  <anchor x="325.2" y="0.0" name="bottom"/>
  <outline>
    <contour>
      <point x="558.4" y="878.0" type="curve" smooth="yes"/>
      <point x="285.2" y="878.0"/>
      <point x="71.6" y="598.4"/>
      <point x="71.6" y="284.0" type="curve" smooth="yes"/>
      <point x="71.6" y="92.8"/>
      <point x="176.4" y="-22.0"/>
      <point x="354.0" y="-22.0" type="curve" smooth="yes"/>
      <point x="627.2" y="-22.0"/>
      <point x="840.8" y="257.6"/>
      <point x="840.8" y="572.0" type="curve" smooth="yes"/>
      <point x="840.8" y="763.2"/>
      <point x="736.0" y="878.0"/>
    </contour>
    <contour>
      <point x="355.0" y="53.0" type="curve" smooth="yes"/>
      <point x="280.8" y="53.0"/>
      <point x="247.8" y="104.8"/>
      <point x="247.8" y="223.2" type="curve" smooth="yes"/>
      <point x="247.8" y="486.0"/>
      <point x="400.0" y="803.0"/>
      <point x="557.4" y="803.0" type="curve" smooth="yes"/>
      <point x="631.6" y="803.0"/>
      <point x="664.6" y="751.2"/>
      <point x="664.6" y="632.8" type="curve" smooth="yes"/>
      <point x="664.6" y="370.0"/>
      <point x="512.4" y="53.0"/>
    </contour>
    <contour>
      <point x="836.2" y="856.0" type="line"/>
      <point x="737.6" y="762.2" type="line"/>
      <point x="682.8" y="722.2" type="line"/>
      <point x="188.6" y="215.4" type="line"/>
      <point x="131.4" y="174.8" type="line"/>
      <point x="-51.8" y="0.0" type="line"/>
      <point x="76.2" y="0.0" type="line"/>
      <point x="176.4" y="95.4" type="line"/>
      <point x="230.4" y="133.8" type="line"/>
      <point x="719.0" y="635.8" type="line"/>
      <point x="777.8" y="677.2" type="line"/>
      <point x="964.2" y="856.0" type="line"/>
    </contour>
  </outline>
</glyph>
<glyph name="thorn" format="2">
	<unicode hex="00FE"/>
	<advance width="929.4"/>
	<outline>
		<contour>
			<point x="265" y="291.6" type="curve" smooth="yes"/>
			<point x="283" y="363" type="line" smooth="yes"/>
			<point x="326.2" y="534"/>
			<point x="471.2" y="729.6"/>
			<point x="589.4" y="729.6" type="curve" smooth="yes"/>
			<point x="663" y="729.6"/>
			<point x="692.6" y="683"/>
			<point x="692.6" y="588.2" type="curve" smooth="yes"/>
			<point x="692.6" y="325"/>
			<point x="504.2" y="51"/>
			<point x="363.4" y="51" type="curve" smooth="yes"/>
			<point x="279.2" y="51"/>
			<point x="246.6" y="104.2"/>
			<point x="246.6" y="174.4" type="curve" smooth="yes"/>
			<point x="246.6" y="195.8"/>
			<point x="249.6" y="230.8"/>
		</contour>
		<contour>
			<point x="311.4" y="500.2" type="line"/>
			<point x="590.6" y="1421" type="line"/>
			<point x="564.4" y="1421" type="line"/>
			<point x="255.4" y="1366.8" type="line"/>
			<point x="245.6" y="1335.4" type="line"/>
			<point x="301.8" y="1310.6"/>
			<point x="332.4" y="1286.6"/>
			<point x="367.8" y="1250.4" type="curve"/>
			<point x="-100.4" y="-420" type="line"/>
			<point x="-244.2" y="-470.2" type="line"/>
			<point x="-258" y="-508" type="line"/>
			<point x="219.8" y="-508" type="line"/>
			<point x="233.8" y="-470" type="line"/>
			<point x="74.4" y="-420.2" type="line"/>
			<point x="213" y="76.2" type="line"/>
			<point x="121.2" y="76.2" type="line"/>
			<point x="163" y="7.6"/>
			<point x="266" y="-22"/>
			<point x="362.6" y="-22" type="curve" smooth="yes"/>
			<point x="661.4" y="-22"/>
			<point x="885.8" y="311.6"/>
			<point x="885.8" y="638" type="curve" smooth="yes"/>
			<point x="885.8" y="769.4"/>
			<point x="815.6" y="878"/>
			<point x="674.2" y="878" type="curve" smooth="yes"/>
			<point x="555.8" y="878"/>
			<point x="424.8" y="770.6"/>
			<point x="299.6" y="522.4" type="curve"/>
		</contour>
	</outline>
</glyph>
<glyph name="Aogonek" format="2">
  <advance width="1349"/>
  <unicode hex="0104"/>
  <outline>
    <contour>
      <point x="357.8" y="486.8" type="line"/>
      <point x="991.0" y="486.8" type="line"/>
      <point x="1021.6" y="577.2" type="line"/>
      <point x="388.4" y="577.2" type="line"/>
    </contour>
    <contour>
      <point x="1129.0" y="90.2" type="line"/>
      <point x="995.2" y="1356.0" type="line"/>
      <point x="906.6" y="1356.0" type="line"/>
      <point x="38.2" y="86.8" type="line"/>
      <point x="-123.8" y="39.2" type="line"/>
      <point x="-135.4" y="0.0" type="line"/>
      <point x="278.4" y="0.0" type="line"/>
      <point x="290.0" y="39.2" type="line"/>
      <point x="153.6" y="86.8" type="line"/>
      <point x="892.2" y="1186.4" type="line"/>
      <point x="829.8" y="1184.8" type="line"/>
      <point x="935.8" y="87.8" type="line"/>
      <point x="757.2" y="39.2" type="line"/>
      <point x="745.4" y="0.0" type="line"/>
      <point x="1241.6" y="0.0" type="line"/>
      <point x="1253.2" y="39.2" type="line"/>
    </contour>
    <contour>
      <point x="833.8" y="-338.2" type="curve" smooth="yes"/>
      <point x="833.8" y="-285.0"/>
      <point x="862.8" y="-214.2"/>
      <point x="950.0" y="-114.6" type="curve" smooth="yes"/>
      <point x="1085.2" y="46.0" type="line"/>
      <point x="1028.4" y="46.0" type="line"/>
      <point x="850.2" y="-142.4" type="line" smooth="yes"/>
      <point x="731.2" y="-265.0"/>
      <point x="704.2" y="-339.4"/>
      <point x="704.2" y="-400.8" type="curve" smooth="yes"/>
      <point x="704.2" y="-479.4"/>
      <point x="757.8" y="-530.0"/>
      <point x="839.0" y="-530.0" type="curve" smooth="yes"/>
      <point x="925.6" y="-530.0"/>
      <point x="986.0" y="-486.6"/>
      <point x="1095.4" y="-373.6" type="curve"/>
      <point x="1074.8" y="-342.8" type="line"/>
      <point x="994.8" y="-406.8"/>
      <point x="960.2" y="-421.6"/>
      <point x="919.2" y="-421.6" type="curve" smooth="yes"/>
      <point x="866.0" y="-421.6"/>
      <point x="833.8" y="-390.8"/>
    </contour>
  </outline>
</glyph>
<glyph name="aogonek" format="2">
  <advance width="974.4"/>
  <unicode hex="0105"/>
  <outline>
    <contour>
      <point x="945.6" y="213.6" type="curve"/>
      <point x="914.0" y="247.2" type="line"/>
      <point x="822.0" y="159.2"/>
      <point x="725.0" y="112.2"/>
      <point x="654.0" y="119.6" type="curve"/>
      <point x="677.8" y="71.2" type="line"/>
      <point x="930.4" y="856.0" type="line"/>
      <point x="866.0" y="856.0" type="line"/>
      <point x="748.8" y="833.8" type="line"/>
      <point x="627.2" y="478.0" type="line" smooth="yes"/>
      <point x="556.0" y="269.2"/>
      <point x="368.2" y="119.2"/>
      <point x="283.6" y="119.2" type="curve" smooth="yes"/>
      <point x="237.0" y="119.2"/>
      <point x="206.4" y="143.2"/>
      <point x="206.4" y="198.2" type="curve" smooth="yes"/>
      <point x="206.4" y="361.6"/>
      <point x="391.0" y="777.8"/>
      <point x="611.6" y="777.8" type="curve" smooth="yes"/>
      <point x="670.6" y="777.8"/>
      <point x="707.2" y="745.6"/>
      <point x="718.8" y="711.4" type="curve"/>
      <point x="762.4" y="770.4" type="line"/>
      <point x="714.8" y="834.8"/>
      <point x="662.6" y="863.6"/>
      <point x="580.6" y="863.6" type="curve" smooth="yes"/>
      <point x="280.6" y="863.6"/>
      <point x="19.4" y="441.0"/>
      <point x="19.4" y="180.6" type="curve" smooth="yes"/>
      <point x="19.4" y="40.2"/>
      <point x="93.2" y="-19.6"/>
      <point x="205.6" y="-19.6" type="curve" smooth="yes"/>
      <point x="317.0" y="-19.6"/>
      <point x="432.4" y="63.6"/>
      <point x="636.8" y="376.8" type="curve"/>
      <point x="610.6" y="376.8" type="line"/>
      <point x="505.8" y="54.6" type="line" smooth="yes"/>
      <point x="489.4" y="5.4"/>
      <point x="520.4" y="-22.0"/>
      <point x="591.0" y="-22.0" type="curve" smooth="yes"/>
      <point x="626.6" y="-22.0"/>
      <point x="663.8" y="-13.6"/>
      <point x="702.6" y="4.0" type="curve"/>
      <point x="698.8" y="21.0" type="line"/>
      <point x="534.2" y="-116.0" type="line" smooth="yes"/>
      <point x="391.4" y="-236.4"/>
      <point x="355.4" y="-311.4"/>
      <point x="355.4" y="-390.4" type="curve" smooth="yes"/>
      <point x="355.4" y="-471.4"/>
      <point x="415.4" y="-530.0"/>
      <point x="499.8" y="-530.0" type="curve" smooth="yes"/>
      <point x="586.4" y="-530.0"/>
      <point x="646.8" y="-486.6"/>
      <point x="756.2" y="-373.6" type="curve"/>
      <point x="735.6" y="-342.8" type="line"/>
      <point x="655.6" y="-406.8"/>
      <point x="621.0" y="-421.6"/>
      <point x="580.0" y="-421.6" type="curve" smooth="yes"/>
      <point x="520.4" y="-421.6"/>
      <point x="485.8" y="-384.4"/>
      <point x="485.8" y="-327.8" type="curve" smooth="yes"/>
      <point x="485.8" y="-258.6"/>
      <point x="522.8" y="-193.2"/>
      <point x="634.8" y="-89.8" type="curve" smooth="yes"/>
      <point x="805.0" y="67.6" type="line" smooth="yes"/>
      <point x="866.2" y="124.8"/>
      <point x="911.4" y="172.4"/>
    </contour>
  </outline>
</glyph>
<glyph name="Dcroat" format="2">
	<unicode hex="0110"/>
	<advance width="1473.2"/>
	<outline>
		<contour>
			<point x="146.8" y="630" type="line"/>
			<point x="781.8" y="630" type="line"/>
			<point x="813" y="731.2" type="line"/>
			<point x="178" y="731.2" type="line"/>
		</contour>
		<contour>
			<point x="523.2" y="96" type="curve" smooth="yes"/>
			<point x="222" y="96" type="line"/>
			<point x="182.8" y="0" type="line"/>
			<point x="520.8" y="0" type="line" smooth="yes"/>
			<point x="1127" y="0"/>
			<point x="1468" y="367"/>
			<point x="1468" y="826.8" type="curve" smooth="yes"/>
			<point x="1468" y="1156.4"/>
			<point x="1280" y="1340"/>
			<point x="855.4" y="1340" type="curve" smooth="yes"/>
			<point x="592.8" y="1340" type="line"/>
			<point x="568.6" y="1244" type="line"/>
			<point x="793.6" y="1244" type="line" smooth="yes"/>
			<point x="1111.4" y="1244"/>
			<point x="1259.4" y="1100.6"/>
			<point x="1259.4" y="838" type="curve" smooth="yes"/>
			<point x="1259.4" y="388.8"/>
			<point x="978.4" y="96"/>
		</contour>
		<contour>
			<point x="485.8" y="1254.2" type="line"/>
			<point x="132" y="89.4" type="line"/>
			<point x="-27.2" y="39.2" type="line"/>
			<point x="-39.4" y="0" type="line"/>
			<point x="300.6" y="0" type="line"/>
			<point x="707.2" y="1340" type="line"/>
			<point x="363.4" y="1340" type="line"/>
			<point x="351.2" y="1300.8" type="line"/>
		</contour>
	</outline>
</glyph>
<glyph name="Eogonek" format="2">
  <advance width="1231.0"/>
  <unicode hex="0118"/>
  <outline>
    <contour>
      <point x="484.0" y="1254.2" type="line"/>
      <point x="130.2" y="89.4" type="line"/>
      <point x="-29.0" y="39.2" type="line"/>
      <point x="-41.2" y="0.0" type="line"/>
      <point x="298.8" y="0.0" type="line"/>
      <point x="705.4" y="1340.0" type="line"/>
      <point x="361.6" y="1340.0" type="line"/>
      <point x="349.4" y="1300.8" type="line"/>
    </contour>
    <contour>
      <point x="790.6" y="441.0" type="line"/>
      <point x="868.4" y="441.0" type="line"/>
      <point x="948.4" y="703.0" type="line"/>
      <point x="1028.4" y="965.0" type="line"/>
      <point x="950.6" y="965.0" type="line"/>
      <point x="863.8" y="750.2" type="line"/>
      <point x="414.0" y="750.2" type="line"/>
      <point x="385.6" y="655.8" type="line"/>
      <point x="835.4" y="655.8" type="line"/>
    </contour>
    <contour>
      <point x="1273.0" y="952.6" type="line"/>
      <point x="1340.0" y="1394.4" type="line"/>
      <point x="1320.8" y="1394.4" type="line"/>
      <point x="1193.2" y="1340.0" type="line"/>
      <point x="594.8" y="1340.0" type="line"/>
      <point x="563.2" y="1244.0" type="line"/>
      <point x="1200.0" y="1244.0" type="line"/>
      <point x="1158.4" y="1269.2" type="line"/>
      <point x="1221.6" y="952.6" type="line"/>
    </contour>
    <contour>
      <point x="935.4" y="-63.4" type="line"/>
      <point x="955.6" y="-63.4" type="line"/>
      <point x="1165.2" y="374.0" type="line"/>
      <point x="1126.4" y="396.4" type="line"/>
      <point x="812.4" y="70.8" type="line"/>
      <point x="897.2" y="96.0" type="line"/>
      <point x="216.6" y="96.0" type="line"/>
      <point x="184.8" y="0.0" type="line"/>
      <point x="837.4" y="0.0" type="line"/>
    </contour>
    <contour>
      <point x="637.4" y="-338.2" type="curve" smooth="yes"/>
      <point x="637.4" y="-285.0"/>
      <point x="666.4" y="-214.2"/>
      <point x="753.6" y="-114.6" type="curve" smooth="yes"/>
      <point x="888.8" y="46.0" type="line"/>
      <point x="832.0" y="46.0" type="line"/>
      <point x="653.8" y="-142.4" type="line" smooth="yes"/>
      <point x="534.8" y="-265.0"/>
      <point x="507.8" y="-339.4"/>
      <point x="507.8" y="-400.8" type="curve" smooth="yes"/>
      <point x="507.8" y="-479.4"/>
      <point x="561.4" y="-530.0"/>
      <point x="642.6" y="-530.0" type="curve" smooth="yes"/>
      <point x="729.2" y="-530.0"/>
      <point x="789.6" y="-486.6"/>
      <point x="899.0" y="-373.6" type="curve"/>
      <point x="878.4" y="-342.8" type="line"/>
      <point x="798.4" y="-406.8"/>
      <point x="763.8" y="-421.6"/>
      <point x="722.8" y="-421.6" type="curve" smooth="yes"/>
      <point x="669.6" y="-421.6"/>
      <point x="637.4" y="-390.8"/>
    </contour>
  </outline>
</glyph>
<glyph name="eogonek" format="2">
	<unicode hex="0119"/>
	<advance width="778.8"/>
	<outline>
		<contour>
			<point x="567.6" y="86.8" type="line" smooth="yes"/>
			<point x="607.8" y="134.8"/>
			<point x="644.8" y="200.2"/>
			<point x="683.4" y="290.6" type="curve"/>
			<point x="625.4" y="290.6" type="line"/>
			<point x="552.6" y="150.2"/>
			<point x="481.2" y="111"/>
			<point x="387.8" y="111" type="curve" smooth="yes"/>
			<point x="298.2" y="111"/>
			<point x="238" y="162"/>
			<point x="238" y="298.6" type="curve" smooth="yes"/>
			<point x="238" y="499.6"/>
			<point x="339.6" y="803"/>
			<point x="516.6" y="803" type="curve" smooth="yes"/>
			<point x="572.4" y="803"/>
			<point x="602.2" y="767.8"/>
			<point x="602.2" y="714.4" type="curve" smooth="yes"/>
			<point x="602.2" y="621"/>
			<point x="529" y="543.2"/>
			<point x="212" y="448.8" type="curve"/>
			<point x="209" y="373" type="line"/>
			<point x="374.2" y="421.6"/>
			<point x="541" y="479.2"/>
			<point x="695.6" y="544" type="curve"/>
			<point x="735" y="579"/>
			<point x="762" y="642.2"/>
			<point x="762" y="701" type="curve" smooth="yes"/>
			<point x="762" y="794.4"/>
			<point x="699.2" y="878"/>
			<point x="546.2" y="878" type="curve" smooth="yes"/>
			<point x="289.8" y="878"/>
			<point x="54.2" y="605.2"/>
			<point x="54.2" y="255" type="curve" smooth="yes"/>
			<point x="54.2" y="75.8"/>
			<point x="156.8" y="-22"/>
			<point x="323.8" y="-22" type="curve" smooth="yes"/>
			<point x="374.2" y="-22"/>
			<point x="418" y="-15.2"/>
			<point x="457.8" y="2.2" type="curve"/>
			<point x="446.2" y="17" type="line"/>
			<point x="311" y="-134.6" type="line" smooth="yes"/>
			<point x="193.6" y="-261.2"/>
			<point x="165.4" y="-339.6"/>
			<point x="165.4" y="-401.8" type="curve" smooth="yes"/>
			<point x="165.4" y="-481.4"/>
			<point x="221" y="-530"/>
			<point x="302.2" y="-530" type="curve" smooth="yes"/>
			<point x="388.8" y="-530"/>
			<point x="449.2" y="-486.6"/>
			<point x="558.6" y="-373.6" type="curve"/>
			<point x="538" y="-342.8" type="line"/>
			<point x="458" y="-406.8"/>
			<point x="423.4" y="-421.6"/>
			<point x="382.4" y="-421.6" type="curve" smooth="yes"/>
			<point x="329.2" y="-421.6"/>
			<point x="297" y="-388.4"/>
			<point x="297" y="-335.2" type="curve" smooth="yes"/>
			<point x="297" y="-281.2"/>
			<point x="323" y="-210.4"/>
			<point x="410.8" y="-106.2" type="curve" smooth="yes"/>
		</contour>
	</outline>
</glyph>
<glyph name="hbar" format="2">
  <advance width="980"/>
  <unicode hex="0127"/>
  <outline>
    <contour>
      <point x="247.0" y="223.4" type="line"/>
      <point x="337.2" y="519.6"/>
      <point x="525.8" y="735.6"/>
      <point x="644.8" y="735.6" type="curve" smooth="yes"/>
      <point x="695.6" y="735.6"/>
      <point x="712.8" y="714.4"/>
      <point x="712.8" y="682.6" type="curve" smooth="yes"/>
      <point x="712.8" y="660.0"/>
      <point x="704.8" y="633.0"/>
      <point x="691.4" y="598.6" type="curve" smooth="yes"/>
      <point x="491.0" y="81.0" type="line" smooth="yes"/>
      <point x="460.2" y="1.4000000000000004"/>
      <point x="479.0" y="-22.0"/>
      <point x="574.2" y="-22.0" type="curve" smooth="yes"/>
      <point x="677.8" y="-22.0"/>
      <point x="792.2" y="37.8"/>
      <point x="937.2" y="213.4" type="curve"/>
      <point x="904.4" y="246.6" type="line"/>
      <point x="816.2" y="163.8"/>
      <point x="726.6" y="119.0"/>
      <point x="653.8" y="118.6" type="curve"/>
      <point x="662.8" y="71.4" type="line"/>
      <point x="856.4" y="575.4" type="line" smooth="yes"/>
      <point x="880.8" y="639.2"/>
      <point x="894.6" y="694.4"/>
      <point x="894.6" y="739.0" type="curve" smooth="yes"/>
      <point x="894.6" y="819.8"/>
      <point x="854.0" y="875.6"/>
      <point x="736.4" y="875.6" type="curve" smooth="yes"/>
      <point x="575.6" y="875.6"/>
      <point x="421.2" y="703.6"/>
      <point x="295.2" y="466.2" type="curve"/>
      <point x="308.2" y="458.8" type="line"/>
      <point x="610.4" y="1421.0" type="line"/>
      <point x="584.2" y="1421.0" type="line"/>
      <point x="271.2" y="1366.8" type="line"/>
      <point x="261.4" y="1335.4" type="line"/>
      <point x="318.0" y="1310.2"/>
      <point x="348.8" y="1285.8"/>
      <point x="384.6" y="1249.2" type="curve"/>
      <point x="7.8" y="0.0" type="line"/>
      <point x="179.8" y="0.0" type="line"/>
    </contour>
    <contour>
      <point x="136.2" y="1026.0" type="line"/>
      <point x="738.6" y="1026.0" type="line"/>
      <point x="768.0" y="1120.8" type="line"/>
      <point x="164.8" y="1120.8" type="line"/>
    </contour>
  </outline>
</glyph>
<glyph name="Iogonek" format="2">
	<unicode hex="012E"/>
	<advance width="662.2"/>
	<outline>
		<contour>
			<point x="484" y="1254.2" type="line"/>
			<point x="130.2" y="89.4" type="line"/>
			<point x="-29" y="39.2" type="line"/>
			<point x="-41.2" y="0" type="line"/>
			<point x="447" y="0" type="line"/>
			<point x="459.2" y="39.2" type="line"/>
			<point x="324.6" y="85.8" type="line"/>
			<point x="678.4" y="1250.6" type="line"/>
			<point x="837.6" y="1300.8" type="line"/>
			<point x="849.8" y="1340" type="line"/>
			<point x="361.6" y="1340" type="line"/>
			<point x="349.4" y="1300.8" type="line"/>
		</contour>
		<contour>
			<point x="66" y="-331" type="curve" smooth="yes"/>
			<point x="66" y="-277.8"/>
			<point x="89.4" y="-207"/>
			<point x="165.4" y="-106.6" type="curve" smooth="yes"/>
			<point x="271" y="46" type="line"/>
			<point x="214.2" y="46" type="line"/>
			<point x="68" y="-134.4" type="line" smooth="yes"/>
			<point x="-37.4" y="-257"/>
			<point x="-63.6" y="-333"/>
			<point x="-63.6" y="-394.4" type="curve" smooth="yes"/>
			<point x="-63.6" y="-475.4"/>
			<point x="-11.6" y="-530"/>
			<point x="71.2" y="-530" type="curve" smooth="yes"/>
			<point x="157.8" y="-530"/>
			<point x="218.2" y="-486.6"/>
			<point x="327.6" y="-373.6" type="curve"/>
			<point x="307" y="-342.8" type="line"/>
			<point x="227" y="-406.8"/>
			<point x="192.4" y="-421.6"/>
			<point x="151.4" y="-421.6" type="curve" smooth="yes"/>
			<point x="96.6" y="-421.6"/>
			<point x="66" y="-386.8"/>
		</contour>
	</outline>
</glyph>
<glyph name="iogonek" format="2">
  <advance width="568.2"/>
  <unicode hex="012F"/>
  <outline>
    <contour>
      <point x="406.0" y="1288.4" type="curve" smooth="yes"/>
      <point x="406.0" y="1215.6"/>
      <point x="458.6" y="1161.2"/>
      <point x="533.4" y="1161.2" type="curve" smooth="yes"/>
      <point x="608.4" y="1161.2"/>
      <point x="661.0" y="1215.6"/>
      <point x="661.0" y="1288.4" type="curve" smooth="yes"/>
      <point x="661.0" y="1361.6"/>
      <point x="608.4" y="1415.6"/>
      <point x="533.4" y="1415.6" type="curve" smooth="yes"/>
      <point x="458.6" y="1415.6"/>
      <point x="406.0" y="1361.6"/>
    </contour>
    <contour>
      <point x="374.8" y="57.400000000000006" type="line" smooth="yes"/>
      <point x="415.4" y="94.4"/>
      <point x="466.4" y="145.4"/>
      <point x="519.0" y="208.2" type="curve"/>
      <point x="487.8" y="242.4" type="line"/>
      <point x="395.2" y="156.4"/>
      <point x="299.2" y="111.6"/>
      <point x="224.2" y="118.6" type="curve"/>
      <point x="250.8" y="71.4" type="line"/>
      <point x="509.0" y="805.4" type="line" smooth="yes"/>
      <point x="525.8" y="852.2"/>
      <point x="496.2" y="878.0"/>
      <point x="429.8" y="878.0" type="curve" smooth="yes"/>
      <point x="324.8" y="878.0"/>
      <point x="211.4" y="820.8"/>
      <point x="71.8" y="620.8" type="curve"/>
      <point x="105.0" y="589.6" type="line"/>
      <point x="190.8" y="684.2"/>
      <point x="284.0" y="736.4"/>
      <point x="359.4" y="734.2" type="curve"/>
      <point x="322.8" y="764.6" type="line"/>
      <point x="64.6" y="50.6" type="line" smooth="yes"/>
      <point x="46.8" y="2.2"/>
      <point x="74.2" y="-22.0"/>
      <point x="159.0" y="-22.0" type="curve" smooth="yes"/>
      <point x="194.4" y="-22.0"/>
      <point x="231.2" y="-15.2"/>
      <point x="270.6" y="1.8" type="curve"/>
      <point x="268.2" y="21.2" type="line"/>
      <point x="90.4" y="-129.4" type="line" smooth="yes"/>
      <point x="-45.0" y="-244.2"/>
      <point x="-81.6" y="-328.2"/>
      <point x="-81.6" y="-398.4" type="curve" smooth="yes"/>
      <point x="-81.6" y="-477.0"/>
      <point x="-28.0" y="-530.0"/>
      <point x="53.2" y="-530.0" type="curve" smooth="yes"/>
      <point x="139.8" y="-530.0"/>
      <point x="200.2" y="-486.6"/>
      <point x="309.6" y="-373.6" type="curve"/>
      <point x="289.0" y="-342.8" type="line"/>
      <point x="209.0" y="-406.8"/>
      <point x="174.4" y="-421.6"/>
      <point x="133.4" y="-421.6" type="curve" smooth="yes"/>
      <point x="80.2" y="-421.6"/>
      <point x="48.0" y="-390.8"/>
      <point x="48.0" y="-338.2" type="curve" smooth="yes"/>
      <point x="48.0" y="-273.8"/>
      <point x="90.6" y="-200.2"/>
      <point x="193.4" y="-106.6" type="curve" smooth="yes"/>
    </contour>
  </outline>
</glyph>
<glyph name="dotlessi" format="2">
  <advance width="565.4"/>
  <unicode hex="0131"/>
  <anchor x="400.6" y="856.0" name="top"/>
  <anchor x="235.2" y="0.0" name="right"/>
  <anchor x="179.0" y="0.0" name="bottom"/>
  <outline>
    <contour>
      <point x="64.6" y="50.6" type="line" smooth="yes"/>
      <point x="46.8" y="2.2"/>
      <point x="74.2" y="-22.0"/>
      <point x="159.0" y="-22.0" type="curve" smooth="yes"/>
      <point x="262.0" y="-22.0"/>
      <point x="375.0" y="36.2"/>
      <point x="519.0" y="208.2" type="curve"/>
      <point x="487.8" y="242.4" type="line"/>
      <point x="395.2" y="156.4"/>
      <point x="299.2" y="111.6"/>
      <point x="224.2" y="118.6" type="curve"/>
      <point x="250.8" y="71.4" type="line"/>
      <point x="509.0" y="805.4" type="line" smooth="yes"/>
      <point x="525.8" y="852.2"/>
      <point x="496.2" y="878.0"/>
      <point x="429.8" y="878.0" type="curve" smooth="yes"/>
      <point x="324.8" y="878.0"/>
      <point x="211.4" y="820.8"/>
      <point x="71.8" y="620.8" type="curve"/>
      <point x="105.0" y="589.6" type="line"/>
      <point x="190.8" y="684.2"/>
      <point x="284.0" y="736.4"/>
      <point x="359.4" y="734.2" type="curve"/>
      <point x="322.8" y="764.6" type="line"/>
    </contour>
  </outline>
</glyph>
<glyph name="kgreenlandic" format="2">
  <advance width="1030"/>
  <unicode hex="0138"/>
  <outline>
    <contour>
      <point x="520.8" y="858.2" type="line"/>
      <point x="483.0" y="870.0"/>
      <point x="439.4" y="876.6"/>
      <point x="388.0" y="876.6" type="curve" smooth="yes"/>
      <point x="252.2" y="876.6"/>
      <point x="137.8" y="808.2"/>
      <point x="49.8" y="586.8" type="curve"/>
      <point x="91.0" y="569.0" type="line"/>
      <point x="163.4" y="702.2"/>
      <point x="221.2" y="735.6"/>
      <point x="294.0" y="735.6" type="curve" smooth="yes"/>
      <point x="299.0" y="735.6"/>
      <point x="304.0" y="735.6"/>
      <point x="309.0" y="735.6" type="curve"/>
      <point x="83.8" y="0.0" type="line"/>
      <point x="255.0" y="0.0" type="line"/>
    </contour>
    <contour>
      <point x="929.0" y="635.2" type="curve" smooth="yes"/>
      <point x="1001.4" y="635.2"/>
      <point x="1062.4" y="687.4"/>
      <point x="1062.4" y="764.8" type="curve" smooth="yes"/>
      <point x="1062.4" y="825.6"/>
      <point x="1018.8" y="878.0"/>
      <point x="947.2" y="878.0" type="curve" smooth="yes"/>
      <point x="848.4" y="878.0"/>
      <point x="761.8" y="831.6"/>
      <point x="393.6" y="458.8" type="curve"/>
      <point x="384.2" y="436.2" type="line"/>
      <point x="546.4" y="26.0"/>
      <point x="593.0" y="-22.0"/>
      <point x="676.8" y="-22.0" type="curve" smooth="yes"/>
      <point x="766.2" y="-22.0"/>
      <point x="855.6" y="46.8"/>
      <point x="982.0" y="221.0" type="curve"/>
      <point x="947.4" y="251.8" type="line"/>
      <point x="873.8" y="162.6"/>
      <point x="801.0" y="110.0"/>
      <point x="753.2" y="110.0" type="curve" smooth="yes"/>
      <point x="708.6" y="110.0"/>
      <point x="669.2" y="157.2"/>
      <point x="517.4" y="527.8" type="curve"/>
      <point x="472.6" y="452.0" type="line"/>
      <point x="623.2" y="621.6"/>
      <point x="769.2" y="732.2"/>
      <point x="824.8" y="732.2" type="curve" smooth="yes"/>
      <point x="845.4" y="732.2"/>
      <point x="860.0" y="719.4"/>
      <point x="879.2" y="684.0" type="curve" smooth="yes"/>
      <point x="898.4" y="648.6"/>
      <point x="910.0" y="635.2"/>
    </contour>
  </outline>
</glyph>
<glyph name="Lslash" format="2">
  <advance width="1171"/>
  <unicode hex="0141"/>
  <outline>
    <contour>
      <point x="711.4" y="1249.6" type="line"/>
      <point x="871.0" y="1300.4" type="line"/>
      <point x="883.6" y="1340.0" type="line"/>
      <point x="395.4" y="1340.0" type="line"/>
      <point x="383.0" y="1300.4" type="line"/>
      <point x="516.6" y="1252.0" type="line"/>
      <point x="163.8" y="90.4" type="line"/>
      <point x="4.199999999999999" y="39.6" type="line"/>
      <point x="-8.200000000000001" y="0.0" type="line"/>
      <point x="332.2" y="0.0" type="line"/>
    </contour>
    <contour>
      <point x="775.6" y="70.8" type="line"/>
      <point x="860.4" y="96.0" type="line"/>
      <point x="259.8" y="96.0" type="line"/>
      <point x="228.0" y="0.0" type="line"/>
      <point x="800.6" y="0.0" type="line"/>
      <point x="897.6" y="-65.6" type="line"/>
      <point x="917.8" y="-65.6" type="line"/>
      <point x="1130.4" y="380.0" type="line"/>
      <point x="1091.6" y="402.4" type="line"/>
    </contour>
    <contour>
      <point x="894.8" y="923.6" type="line"/>
      <point x="482.8" y="713.6" type="line"/>
      <point x="410.0" y="706.2" type="line"/>
      <point x="117.2" y="557.0" type="line"/>
      <point x="79.8" y="433.4" type="line"/>
      <point x="374.2" y="583.4" type="line"/>
      <point x="451.0" y="592.4" type="line"/>
      <point x="857.2" y="800.0" type="line"/>
    </contour>
  </outline>
</glyph>
<glyph name="lslash" format="2">
  <advance width="644"/>
  <unicode hex="0142"/>
  <outline>
    <contour>
      <point x="80.4" y="509.6" type="line"/>
      <point x="39.4" y="373.2" type="line"/>
      <point x="292.8" y="540.8" type="line"/>
      <point x="366.0" y="558.6" type="line"/>
      <point x="634.6" y="736.8" type="line"/>
      <point x="675.8" y="873.2" type="line"/>
      <point x="391.2" y="684.6" type="line"/>
      <point x="314.6" y="664.4" type="line"/>
    </contour>
    <contour>
      <point x="454.2" y="1250.4" type="curve"/>
      <point x="87.4" y="50.6" type="line" smooth="yes"/>
      <point x="71.2" y="-0.5999999999999996"/>
      <point x="105.8" y="-22.0"/>
      <point x="181.8" y="-22.0" type="curve" smooth="yes"/>
      <point x="286.6" y="-22.0"/>
      <point x="403.2" y="34.2"/>
      <point x="547.8" y="208.2" type="curve"/>
      <point x="516.6" y="242.2" type="line"/>
      <point x="422.8" y="154.8"/>
      <point x="324.8" y="111.2"/>
      <point x="248.6" y="119.4" type="curve"/>
      <point x="269.6" y="79.4" type="line"/>
      <point x="681.0" y="1421.0" type="line"/>
      <point x="654.8" y="1421.0" type="line"/>
      <point x="341.8" y="1366.8" type="line"/>
      <point x="332.0" y="1335.4" type="line"/>
      <point x="388.2" y="1310.6"/>
      <point x="418.8" y="1286.6"/>
    </contour>
  </outline>
</glyph>
<glyph name="Eng" format="2">
	<unicode hex="014A"/>
	<advance width="1449.6"/>
	<outline>
		<contour>
			<point x="1107.2" y="222" type="line"/>
			<point x="685" y="1340" type="line"/>
			<point x="344.8" y="1340" type="line"/>
			<point x="333.8" y="1302.2" type="line"/>
			<point x="485.4" y="1234.2" type="line"/>
			<point x="135.8" y="88.6" type="line"/>
			<point x="-23.4" y="39.2" type="line"/>
			<point x="-35.6" y="0" type="line"/>
			<point x="353" y="0" type="line"/>
			<point x="365.2" y="39.2" type="line"/>
			<point x="228" y="86.2" type="line"/>
			<point x="575.6" y="1222.8" type="line"/>
			<point x="534.2" y="1233.2" type="line"/>
			<point x="1029.4" y="-79.4" type="line"/>
		</contour>
		<contour>
			<point x="1080.4" y="-75.4" type="curve" smooth="yes"/>
			<point x="1486" y="1251.4" type="line"/>
			<point x="1645.2" y="1300.8" type="line"/>
			<point x="1657.4" y="1340" type="line"/>
			<point x="1268.8" y="1340" type="line"/>
			<point x="1256.6" y="1300.8" type="line"/>
			<point x="1393.8" y="1253.8" type="line"/>
			<point x="983.6" y="-86.4" type="line" smooth="yes"/>
			<point x="906.6" y="-338"/>
			<point x="795" y="-412.6"/>
			<point x="695" y="-412.6" type="curve" smooth="yes"/>
			<point x="617.6" y="-412.6"/>
			<point x="573.8" y="-316.4"/>
			<point x="521" y="-316.4" type="curve" smooth="yes"/>
			<point x="465.8" y="-316.4"/>
			<point x="431.8" y="-363.6"/>
			<point x="431.8" y="-416" type="curve" smooth="yes"/>
			<point x="431.8" y="-484.8"/>
			<point x="493.2" y="-530"/>
			<point x="611.4" y="-530" type="curve" smooth="yes"/>
			<point x="828.8" y="-530"/>
			<point x="984.6" y="-388.6"/>
		</contour>
	</outline>
</glyph>
<glyph name="eng" format="2">
  <advance width="999"/>
  <unicode hex="014B"/>
  <outline>
    <contour>
      <point x="286.4" y="-530.0" type="curve" smooth="yes"/>
      <point x="451.6" y="-530.0"/>
      <point x="626.2" y="-379.2"/>
      <point x="713.0" y="-93.4" type="curve" smooth="yes"/>
      <point x="908.4" y="550.6" type="line" smooth="yes"/>
      <point x="932.6" y="630.0"/>
      <point x="947.2" y="694.4"/>
      <point x="947.2" y="739.0" type="curve" smooth="yes"/>
      <point x="947.2" y="819.8"/>
      <point x="906.6" y="875.6"/>
      <point x="789.0" y="875.6" type="curve" smooth="yes"/>
      <point x="630.6" y="875.6"/>
      <point x="494.8" y="693.2"/>
      <point x="366.4" y="444.6" type="curve"/>
      <point x="372.8" y="439.6" type="line"/>
      <point x="498.6" y="857.6" type="line"/>
      <point x="453.6" y="870.2"/>
      <point x="414.8" y="877.0"/>
      <point x="368.2" y="877.0" type="curve" smooth="yes"/>
      <point x="246.6" y="877.0"/>
      <point x="132.6" y="809.8"/>
      <point x="49.8" y="585.6" type="curve"/>
      <point x="90.4" y="569.0" type="line"/>
      <point x="162.8" y="703.8"/>
      <point x="221.6" y="735.6"/>
      <point x="295.4" y="735.6" type="curve" smooth="yes"/>
      <point x="300.4" y="735.6"/>
      <point x="305.4" y="735.6"/>
      <point x="310.4" y="735.6" type="curve"/>
      <point x="87.6" y="0.0" type="line"/>
      <point x="261.2" y="0.0" type="line"/>
      <point x="329.4" y="223.4" type="line"/>
      <point x="419.8" y="518.8"/>
      <point x="584.4" y="735.6"/>
      <point x="698.6" y="735.6" type="curve" smooth="yes"/>
      <point x="749.4" y="735.6"/>
      <point x="766.6" y="714.4"/>
      <point x="766.6" y="682.6" type="curve" smooth="yes"/>
      <point x="766.6" y="652.0"/>
      <point x="754.8" y="609.2"/>
      <point x="740.0" y="557.8" type="curve" smooth="yes"/>
      <point x="518.8" y="-216.2" type="line" smooth="yes"/>
      <point x="469.2" y="-389.8"/>
      <point x="431.6" y="-421.8"/>
      <point x="366.0" y="-421.8" type="curve" smooth="yes"/>
      <point x="348.0" y="-421.8"/>
      <point x="329.2" y="-409.2"/>
      <point x="302.8" y="-371.6" type="curve" smooth="yes"/>
      <point x="276.4" y="-334.0"/>
      <point x="258.4" y="-318.0"/>
      <point x="243.8" y="-318.0" type="curve" smooth="yes"/>
      <point x="195.8" y="-318.0"/>
      <point x="157.4" y="-358.0"/>
      <point x="157.4" y="-412.6" type="curve" smooth="yes"/>
      <point x="157.4" y="-478.2"/>
      <point x="207.0" y="-530.0"/>
    </contour>
  </outline>
</glyph>
<glyph name="OE" format="2">
	<unicode hex="0152"/>
	<advance width="1994.6"/>
	<outline>
		<contour>
			<point x="1276" y="1340" type="line"/>
			<point x="866" y="0" type="line"/>
			<point x="1061.6" y="0" type="line"/>
			<point x="1471.4" y="1340" type="line"/>
		</contour>
		<contour>
			<point x="1086" y="1340" type="line" smooth="yes"/>
			<point x="489.4" y="1340"/>
			<point x="154.8" y="968.2"/>
			<point x="154.8" y="535.6" type="curve" smooth="yes"/>
			<point x="154.8" y="234"/>
			<point x="352.4" y="0"/>
			<point x="793.8" y="0" type="curve" smooth="yes"/>
			<point x="1601" y="0" type="line"/>
			<point x="1699" y="-63.4" type="line"/>
			<point x="1719.2" y="-63.4" type="line"/>
			<point x="1928.8" y="374" type="line"/>
			<point x="1890" y="396.4" type="line"/>
			<point x="1576" y="70.8" type="line"/>
			<point x="1660.8" y="96" type="line"/>
			<point x="878" y="96" type="line"/>
			<point x="515.4" y="96"/>
			<point x="357.8" y="270.6"/>
			<point x="357.8" y="535.6" type="curve" smooth="yes"/>
			<point x="357.8" y="911.2"/>
			<point x="569.2" y="1244"/>
			<point x="1100.4" y="1244" type="curve" smooth="yes"/>
			<point x="1963.6" y="1244" type="line"/>
			<point x="1922" y="1269.2" type="line"/>
			<point x="1985.2" y="952.6" type="line"/>
			<point x="2036.6" y="952.6" type="line"/>
			<point x="2103.6" y="1394.4" type="line"/>
			<point x="2084.4" y="1394.4" type="line"/>
			<point x="1956.8" y="1340" type="line"/>
		</contour>
		<contour>
			<point x="1632" y="441" type="line"/>
			<point x="1712" y="703" type="line"/>
			<point x="1792" y="965" type="line"/>
			<point x="1714.2" y="965" type="line"/>
			<point x="1627.4" y="750.2" type="line"/>
			<point x="1177.6" y="750.2" type="line"/>
			<point x="1149.2" y="655.8" type="line"/>
			<point x="1599" y="655.8" type="line"/>
			<point x="1554.2" y="441" type="line"/>
		</contour>
	</outline>
</glyph>
<glyph name="oe" format="2">
	<unicode hex="0153"/>
	<advance width="1340.6"/>
	<outline>
		<contour>
			<point x="545" y="878" type="curve" smooth="yes"/>
			<point x="271.8" y="878"/>
			<point x="58.2" y="598.4"/>
			<point x="58.2" y="284" type="curve" smooth="yes"/>
			<point x="58.2" y="92.8"/>
			<point x="163" y="-22"/>
			<point x="340.6" y="-22" type="curve" smooth="yes"/>
			<point x="468.4" y="-22"/>
			<point x="591.8" y="43.8"/>
			<point x="687.2" y="161.4" type="curve"/>
			<point x="640" y="165.4" type="line"/>
			<point x="673.4" y="41.2"/>
			<point x="761.8" y="-22"/>
			<point x="885.6" y="-22" type="curve" smooth="yes"/>
			<point x="1045.8" y="-22"/>
			<point x="1141.8" y="48.4"/>
			<point x="1245.2" y="290.6" type="curve"/>
			<point x="1187.2" y="290.6" type="line"/>
			<point x="1114.4" y="150.2"/>
			<point x="1043" y="111"/>
			<point x="949.6" y="111" type="curve" smooth="yes"/>
			<point x="860" y="111"/>
			<point x="799.8" y="162"/>
			<point x="799.8" y="298.6" type="curve" smooth="yes"/>
			<point x="799.8" y="499.6"/>
			<point x="901.4" y="803"/>
			<point x="1078.4" y="803" type="curve" smooth="yes"/>
			<point x="1134.2" y="803"/>
			<point x="1164" y="767.8"/>
			<point x="1164" y="714.4" type="curve" smooth="yes"/>
			<point x="1164" y="621"/>
			<point x="1090.8" y="543.2"/>
			<point x="773.8" y="448.8" type="curve"/>
			<point x="770.8" y="373" type="line"/>
			<point x="936" y="421.6"/>
			<point x="1102.8" y="479.2"/>
			<point x="1257.4" y="544" type="curve"/>
			<point x="1296.8" y="579"/>
			<point x="1323.8" y="642.2"/>
			<point x="1323.8" y="701" type="curve" smooth="yes"/>
			<point x="1323.8" y="794.4"/>
			<point x="1261" y="878"/>
			<point x="1108" y="878" type="curve" smooth="yes"/>
			<point x="982.2" y="878"/>
			<point x="831.4" y="800.4"/>
			<point x="746.6" y="670.8" type="curve"/>
			<point x="792" y="666.8" type="line"/>
			<point x="772.4" y="795"/>
			<point x="695.4" y="878"/>
		</contour>
		<contour>
			<point x="341.6" y="53" type="curve" smooth="yes"/>
			<point x="267.4" y="53"/>
			<point x="234.4" y="104.8"/>
			<point x="234.4" y="223.2" type="curve" smooth="yes"/>
			<point x="234.4" y="486"/>
			<point x="386.6" y="803"/>
			<point x="544" y="803" type="curve" smooth="yes"/>
			<point x="618.2" y="803"/>
			<point x="651.2" y="751.2"/>
			<point x="651.2" y="632.8" type="curve" smooth="yes"/>
			<point x="651.2" y="370"/>
			<point x="499" y="53"/>
		</contour>
	</outline>
	<anchor name="top" x="811.4" y="856"/>
	<anchor name="bottom" x="568" y="0"/>
</glyph>
<glyph name="Scedilla" format="2">
	<unicode hex="015E"/>
	<advance width="1065.8"/>
	<outline>
		<contour>
			<point x="989.6" y="1174.6" type="curve"/>
			<point x="925.4" y="1275.4" type="line"/>
			<point x="1004.2" y="933.6" type="line"/>
			<point x="1051.2" y="933.6" type="line"/>
			<point x="1128.4" y="1402" type="line"/>
			<point x="1105.8" y="1402" type="line"/>
			<point x="963.8" y="1317.6" type="line"/>
			<point x="1018.4" y="1316" type="line"/>
			<point x="924" y="1351"/>
			<point x="850.6" y="1362"/>
			<point x="758.8" y="1362" type="curve" smooth="yes"/>
			<point x="462.2" y="1362"/>
			<point x="277.6" y="1197"/>
			<point x="277.6" y="965.2" type="curve" smooth="yes"/>
			<point x="277.6" y="808.4"/>
			<point x="355" y="728.4"/>
			<point x="494.6" y="654.4" type="curve" smooth="yes"/>
			<point x="634" y="581.4"/>
			<point x="792.6" y="535.8"/>
			<point x="792.6" y="346.8" type="curve" smooth="yes"/>
			<point x="792.6" y="175.6"/>
			<point x="662.2" y="69"/>
			<point x="419.8" y="69" type="curve" smooth="yes"/>
			<point x="348.2" y="69"/>
			<point x="290" y="79"/>
			<point x="219" y="107.6" type="curve"/>
			<point x="290.8" y="51" type="line"/>
			<point x="131.2" y="396.6" type="line"/>
			<point x="86" y="396.6" type="line"/>
			<point x="93.8" y="44" type="line"/>
			<point x="196.4" y="-4.2"/>
			<point x="286.4" y="-22"/>
			<point x="418" y="-22" type="curve" smooth="yes"/>
			<point x="748.4" y="-22"/>
			<point x="965.4" y="151"/>
			<point x="965.4" y="410.8" type="curve" smooth="yes"/>
			<point x="965.4" y="599"/>
			<point x="867.2" y="690"/>
			<point x="721" y="765.4" type="curve" smooth="yes"/>
			<point x="574" y="841.6"/>
			<point x="446" y="887"/>
			<point x="446" y="1033.8" type="curve" smooth="yes"/>
			<point x="446" y="1188.2"/>
			<point x="546" y="1275.4"/>
			<point x="721.4" y="1275.4" type="curve" smooth="yes"/>
			<point x="839" y="1275.4"/>
			<point x="907.2" y="1244"/>
		</contour>
		<contour>
			<point x="266.2" y="-530" type="curve"/>
			<point x="429.8" y="-530"/>
			<point x="559.2" y="-417"/>
			<point x="559.2" y="-281.2" type="curve" smooth="yes"/>
			<point x="559.2" y="-211.2"/>
			<point x="517" y="-148"/>
			<point x="375.6" y="-119.6" type="curve"/>
			<point x="342.4" y="-217.8" type="line"/>
			<point x="559.2" y="49.8" type="line"/>
			<point x="482" y="49.8" type="line"/>
			<point x="265.8" y="-216.6" type="line"/>
			<point x="260.4" y="-233.2" type="line"/>
			<point x="402.2" y="-255.2"/>
			<point x="447.8" y="-291.4"/>
			<point x="447.8" y="-345" type="curve" smooth="yes"/>
			<point x="447.8" y="-410"/>
			<point x="401.2" y="-456"/>
			<point x="330.4" y="-456" type="curve" smooth="yes"/>
			<point x="263.2" y="-456"/>
			<point x="259.6" y="-390.6"/>
			<point x="207.2" y="-390.6" type="curve" smooth="yes"/>
			<point x="166.6" y="-390.6"/>
			<point x="143.4" y="-419.4"/>
			<point x="143.4" y="-451.8" type="curve" smooth="yes"/>
			<point x="143.4" y="-491.2"/>
			<point x="182" y="-530"/>
		</contour>
	</outline>
</glyph>
<glyph name="scedilla" format="2">
	<unicode hex="015F"/>
	<advance width="671.2"/>
	<outline>
		<contour>
			<point x="39" y="-530" type="curve"/>
			<point x="202.6" y="-530"/>
			<point x="332" y="-417"/>
			<point x="332" y="-281.2" type="curve" smooth="yes"/>
			<point x="332" y="-211.2"/>
			<point x="289.8" y="-148"/>
			<point x="148.4" y="-119.6" type="curve"/>
			<point x="115.2" y="-217.8" type="line"/>
			<point x="304" y="14.6" type="line"/>
			<point x="226.8" y="14.6" type="line"/>
			<point x="38.6" y="-216.6" type="line"/>
			<point x="33.2" y="-233.2" type="line"/>
			<point x="175" y="-255.2"/>
			<point x="220.6" y="-291.4"/>
			<point x="220.6" y="-345" type="curve" smooth="yes"/>
			<point x="220.6" y="-410"/>
			<point x="174" y="-456"/>
			<point x="103.2" y="-456" type="curve" smooth="yes"/>
			<point x="36" y="-456"/>
			<point x="32.4" y="-390.6"/>
			<point x="-20" y="-390.6" type="curve" smooth="yes"/>
			<point x="-60.6" y="-390.6"/>
			<point x="-83.8" y="-419.4"/>
			<point x="-83.8" y="-451.8" type="curve" smooth="yes"/>
			<point x="-83.8" y="-491.2"/>
			<point x="-45.2" y="-530"/>
		</contour>
		<contour>
			<point x="91.8" y="208.6" type="curve" smooth="yes"/>
			<point x="36.8" y="208.6"/>
			<point x="-2.4" y="169.4"/>
			<point x="-2.4" y="118.8" type="curve" smooth="yes"/>
			<point x="-2.4" y="45.6"/>
			<point x="67.6" y="-22"/>
			<point x="225.6" y="-22" type="curve" smooth="yes"/>
			<point x="410.6" y="-22"/>
			<point x="547.4" y="97.6"/>
			<point x="547.4" y="246.6" type="curve" smooth="yes"/>
			<point x="547.4" y="317"/>
			<point x="514.2" y="394.8"/>
			<point x="421.4" y="498.2" type="curve" smooth="yes"/>
			<point x="328.6" y="601.6"/>
			<point x="300.8" y="655.2"/>
			<point x="300.8" y="699.2" type="curve" smooth="yes"/>
			<point x="300.8" y="763"/>
			<point x="337" y="801"/>
			<point x="400.4" y="801" type="curve" smooth="yes"/>
			<point x="436.8" y="801"/>
			<point x="477.6" y="773.2"/>
			<point x="514.2" y="720.6" type="curve" smooth="yes"/>
			<point x="550.8" y="668"/>
			<point x="567.2" y="656.8"/>
			<point x="579.8" y="656.8" type="curve" smooth="yes"/>
			<point x="631.8" y="656.8"/>
			<point x="668.6" y="693.2"/>
			<point x="668.6" y="744" type="curve" smooth="yes"/>
			<point x="668.6" y="816.8"/>
			<point x="608.2" y="878"/>
			<point x="463.2" y="878" type="curve" smooth="yes"/>
			<point x="274" y="878"/>
			<point x="167.8" y="761.2"/>
			<point x="167.8" y="617.6" type="curve" smooth="yes"/>
			<point x="167.8" y="542.8"/>
			<point x="198.8" y="473.4"/>
			<point x="293.8" y="374" type="curve" smooth="yes"/>
			<point x="388.8" y="274.6"/>
			<point x="411.8" y="223.6"/>
			<point x="411.8" y="167.6" type="curve" smooth="yes"/>
			<point x="411.8" y="91"/>
			<point x="356.2" y="50"/>
			<point x="280.4" y="50" type="curve" smooth="yes"/>
			<point x="241.6" y="50"/>
			<point x="203.8" y="70"/>
			<point x="162.6" y="131.4" type="curve" smooth="yes"/>
			<point x="121.4" y="192.8"/>
			<point x="108.6" y="208.6"/>
		</contour>
	</outline>
</glyph>
<glyph name="uni0162" format="2">
  <advance width="1251"/>
  <unicode hex="0162"/>
  <outline>
    <contour>
      <point x="1357.2" y="1237.2" type="line"/>
      <point x="1284.0" y="1261.0" type="line"/>
      <point x="1329.4" y="965.6" type="line"/>
      <point x="1371.2" y="965.6" type="line"/>
      <point x="1471.8" y="1409.4" type="line"/>
      <point x="1449.2" y="1409.4" type="line"/>
      <point x="1283.8" y="1321.6" type="line"/>
      <point x="1377.0" y="1340.0" type="line"/>
      <point x="423.6" y="1340.0" type="line"/>
      <point x="497.8" y="1321.6" type="line"/>
      <point x="392.6" y="1409.4" type="line"/>
      <point x="370.4" y="1409.4" type="line"/>
      <point x="212.2" y="984.2" type="line"/>
      <point x="253.6" y="964.4" type="line"/>
      <point x="489.8" y="1261.8" type="line"/>
      <point x="369.8" y="1237.2" type="line"/>
    </contour>
    <contour>
      <point x="784.2" y="1271.8" type="line"/>
      <point x="424.8" y="89.4" type="line"/>
      <point x="265.6" y="39.2" type="line"/>
      <point x="253.4" y="0.0" type="line"/>
      <point x="741.6" y="0.0" type="line"/>
      <point x="753.8" y="39.2" type="line"/>
      <point x="619.2" y="85.8" type="line"/>
      <point x="979.8" y="1271.8" type="line"/>
    </contour>
    <contour>
      <point x="302.6" y="-530.0" type="curve"/>
      <point x="466.2" y="-530.0"/>
      <point x="595.6" y="-417.0"/>
      <point x="595.6" y="-281.2" type="curve" smooth="yes"/>
      <point x="595.6" y="-211.2"/>
      <point x="553.4" y="-148.0"/>
      <point x="412.0" y="-119.6" type="curve"/>
      <point x="378.8" y="-217.8" type="line"/>
      <point x="595.6" y="49.8" type="line"/>
      <point x="518.4" y="49.8" type="line"/>
      <point x="302.2" y="-216.6" type="line"/>
      <point x="296.8" y="-233.2" type="line"/>
      <point x="438.6" y="-255.2"/>
      <point x="484.2" y="-291.4"/>
      <point x="484.2" y="-345.0" type="curve" smooth="yes"/>
      <point x="484.2" y="-410.0"/>
      <point x="437.6" y="-456.0"/>
      <point x="366.8" y="-456.0" type="curve" smooth="yes"/>
      <point x="299.6" y="-456.0"/>
      <point x="296.0" y="-390.6"/>
      <point x="243.6" y="-390.6" type="curve" smooth="yes"/>
      <point x="203.0" y="-390.6"/>
      <point x="179.8" y="-419.4"/>
      <point x="179.8" y="-451.8" type="curve" smooth="yes"/>
      <point x="179.8" y="-491.2"/>
      <point x="218.4" y="-530.0"/>
    </contour>
  </outline>
</glyph>
<glyph name="uni0163" format="2">
  <advance width="632"/>
  <unicode hex="0163"/>
  <outline>
    <contour>
      <point x="119.4" y="770.2" type="line"/>
      <point x="661.6" y="770.2" type="line"/>
      <point x="678.6" y="856.0" type="line"/>
      <point x="137.8" y="856.0" type="line"/>
    </contour>
    <contour>
      <point x="311.8" y="254.2" type="curve" smooth="yes"/>
      <point x="543.0" y="1042.8" type="line"/>
      <point x="367.2" y="1042.8" type="line"/>
      <point x="145.8" y="269.6" type="line" smooth="yes"/>
      <point x="125.2" y="199.6"/>
      <point x="116.2" y="144.0"/>
      <point x="116.2" y="104.6" type="curve" smooth="yes"/>
      <point x="116.2" y="11.2"/>
      <point x="159.0" y="-20.4"/>
      <point x="223.2" y="-20.4" type="curve" smooth="yes"/>
      <point x="329.0" y="-20.4"/>
      <point x="452.8" y="92.8"/>
      <point x="580.0" y="290.6" type="curve"/>
      <point x="537.2" y="319.8" type="line"/>
      <point x="446.0" y="200.0"/>
      <point x="356.6" y="129.0"/>
      <point x="316.6" y="129.0" type="curve" smooth="yes"/>
      <point x="301.2" y="129.0"/>
      <point x="292.2" y="138.8"/>
      <point x="292.2" y="162.0" type="curve" smooth="yes"/>
      <point x="292.2" y="179.8"/>
      <point x="296.0" y="204.2"/>
    </contour>
    <contour>
      <point x="53.0" y="-530.0" type="curve"/>
      <point x="216.6" y="-530.0"/>
      <point x="346.0" y="-417.0"/>
      <point x="346.0" y="-281.2" type="curve" smooth="yes"/>
      <point x="346.0" y="-211.2"/>
      <point x="303.8" y="-148.0"/>
      <point x="162.4" y="-119.6" type="curve"/>
      <point x="129.2" y="-217.8" type="line"/>
      <point x="346.0" y="49.8" type="line"/>
      <point x="268.8" y="49.8" type="line"/>
      <point x="52.6" y="-216.6" type="line"/>
      <point x="47.2" y="-233.2" type="line"/>
      <point x="189.0" y="-255.2"/>
      <point x="234.6" y="-291.4"/>
      <point x="234.6" y="-345.0" type="curve" smooth="yes"/>
      <point x="234.6" y="-410.0"/>
      <point x="188.0" y="-456.0"/>
      <point x="117.2" y="-456.0" type="curve" smooth="yes"/>
      <point x="50.0" y="-456.0"/>
      <point x="46.4" y="-390.6"/>
      <point x="-6.0" y="-390.6" type="curve" smooth="yes"/>
      <point x="-46.6" y="-390.6"/>
      <point x="-69.8" y="-419.4"/>
      <point x="-69.8" y="-451.8" type="curve" smooth="yes"/>
      <point x="-69.8" y="-491.2"/>
      <point x="-31.2" y="-530.0"/>
    </contour>
  </outline>
</glyph>
<glyph name="Tbar" format="2">
	<unicode hex="0166"/>
	<advance width="1259.4"/>
	<outline>
		<contour>
			<point x="326.4" y="638" type="line"/>
			<point x="1056.4" y="638" type="line"/>
			<point x="1087.6" y="739.2" type="line"/>
			<point x="357.4" y="739.2" type="line"/>
		</contour>
		<contour>
			<point x="1360" y="1237.2" type="line"/>
			<point x="1286.8" y="1261" type="line"/>
			<point x="1332.2" y="965.6" type="line"/>
			<point x="1374" y="965.6" type="line"/>
			<point x="1474.6" y="1409.4" type="line"/>
			<point x="1452" y="1409.4" type="line"/>
			<point x="1286.6" y="1321.6" type="line"/>
			<point x="1379.8" y="1340" type="line"/>
			<point x="426.4" y="1340" type="line"/>
			<point x="500.6" y="1321.6" type="line"/>
			<point x="395.4" y="1409.4" type="line"/>
			<point x="373.2" y="1409.4" type="line"/>
			<point x="215" y="984.2" type="line"/>
			<point x="256.4" y="964.4" type="line"/>
			<point x="492.6" y="1261.8" type="line"/>
			<point x="372.6" y="1237.2" type="line"/>
		</contour>
		<contour>
			<point x="787" y="1271.8" type="line"/>
			<point x="427.6" y="89.4" type="line"/>
			<point x="268.4" y="39.2" type="line"/>
			<point x="256.2" y="0" type="line"/>
			<point x="744.4" y="0" type="line"/>
			<point x="756.6" y="39.2" type="line"/>
			<point x="622" y="85.8" type="line"/>
			<point x="982.6" y="1271.8" type="line"/>
		</contour>
	</outline>
</glyph>
<glyph name="tbar" format="2">
	<unicode hex="0167"/>
	<advance width="651.4"/>
	<outline>
		<contour>
			<point x="81" y="477.6" type="line"/>
			<point x="577.2" y="477.6" type="line"/>
			<point x="605.2" y="567.6" type="line"/>
			<point x="108.2" y="567.6" type="line"/>
		</contour>
		<contour>
			<point x="134.6" y="770.2" type="line"/>
			<point x="676.8" y="770.2" type="line"/>
			<point x="693.8" y="856" type="line"/>
			<point x="153" y="856" type="line"/>
		</contour>
		<contour>
			<point x="307.4" y="162" type="curve" smooth="yes"/>
			<point x="307.4" y="179.8"/>
			<point x="311.2" y="204.2"/>
			<point x="327" y="254.2" type="curve" smooth="yes"/>
			<point x="558.2" y="1042.8" type="line"/>
			<point x="382.4" y="1042.8" type="line"/>
			<point x="161" y="269.6" type="line" smooth="yes"/>
			<point x="140.4" y="199.6"/>
			<point x="131.4" y="144"/>
			<point x="131.4" y="104.6" type="curve" smooth="yes"/>
			<point x="131.4" y="11.2"/>
			<point x="174.2" y="-20.4"/>
			<point x="238.4" y="-20.4" type="curve" smooth="yes"/>
			<point x="344.2" y="-20.4"/>
			<point x="468" y="92.8"/>
			<point x="595.2" y="290.6" type="curve"/>
			<point x="552.4" y="319.8" type="line"/>
			<point x="461.2" y="200"/>
			<point x="371.8" y="129"/>
			<point x="331.8" y="129" type="curve" smooth="yes"/>
			<point x="316.4" y="129"/>
			<point x="307.4" y="138.8"/>
		</contour>
	</outline>
</glyph>
